{"glyphs":{"0":{"ha":736,"x_min":65,"x_max":697,"o":"m 450 950 q 228 851 314 950 q 103 603 142 751 q 65 306 65 456 q 128 63 65 147 q 314 -21 192 -21 q 535 79 449 -21 q 659 327 621 179 q 697 625 697 475 q 634 867 697 783 q 450 950 571 950 m 442 821 q 509 784 486 821 q 532 664 532 747 q 508 414 532 543 q 437 197 485 285 q 321 110 389 110 q 254 147 276 110 q 232 268 232 185 q 256 517 232 389 q 326 733 279 646 q 442 821 374 821 z "},"1":{"ha":567,"x_min":72,"x_max":522,"o":"m 522 935 l 392 0 l 226 0 l 331 747 l 132 625 l 72 749 l 372 935 l 522 935 z "},"2":{"ha":631,"x_min":-14,"x_max":613,"o":"m 360 950 q 546 885 479 950 q 613 717 613 819 q 577 566 613 640 q 451 391 542 492 q 190 133 361 290 l 549 136 l 510 0 l -14 0 l 4 129 q 283 418 197 322 q 403 576 369 514 q 438 706 438 639 q 411 788 438 760 q 338 817 385 817 q 252 793 292 817 q 164 718 213 769 l 69 804 q 204 914 133 878 q 360 950 275 950 z "},"3":{"ha":635,"x_min":-43,"x_max":604,"o":"m 363 950 q 540 889 476 950 q 604 733 604 828 q 551 582 604 643 q 392 493 499 521 q 517 437 471 483 q 564 308 564 390 q 524 152 564 228 q 406 28 485 76 q 215 -21 326 -21 q -43 115 47 -21 l 63 199 q 134 133 97 153 q 219 113 171 113 q 344 168 296 113 q 392 318 392 224 q 360 401 392 376 q 265 426 328 426 l 197 426 l 236 550 l 279 550 q 396 598 354 550 q 438 718 438 646 q 411 794 438 768 q 338 821 385 821 q 247 801 290 821 q 158 739 204 781 l 83 835 q 217 922 150 894 q 363 950 285 950 z "},"4":{"ha":686,"x_min":17,"x_max":654,"o":"m 654 347 l 635 217 l 538 217 l 507 0 l 344 0 l 374 217 l 17 217 l 33 333 l 357 953 l 497 897 l 217 347 l 393 347 l 444 585 l 589 585 l 556 347 l 654 347 z "},"5":{"ha":651,"x_min":-14,"x_max":651,"o":"m 614 807 l 304 807 l 269 569 q 400 603 331 603 q 546 540 492 603 q 600 363 600 478 q 561 181 600 269 q 440 36 522 93 q 239 -21 358 -21 q 90 14 150 -21 q -14 111 29 49 l 92 197 q 159 133 122 154 q 244 113 196 113 q 349 149 307 113 q 410 241 390 185 q 429 357 429 297 q 329 481 429 481 q 272 473 299 481 q 213 447 244 465 l 93 447 l 161 935 l 651 935 l 614 807 z "},"6":{"ha":699,"x_min":61,"x_max":674,"o":"m 457 621 q 601 559 547 621 q 656 383 656 497 q 619 194 656 288 q 506 40 582 101 q 319 -21 429 -21 q 124 60 188 -21 q 61 289 61 142 q 113 604 61 451 q 265 853 165 757 q 496 950 364 950 q 674 890 597 950 l 599 788 q 490 824 550 824 q 351 742 413 824 q 257 518 289 660 q 457 621 346 621 m 326 107 q 420 152 383 107 q 473 261 457 197 q 489 385 489 325 q 404 497 489 497 q 319 468 363 497 q 239 389 276 439 q 229 265 229 299 q 253 144 229 182 q 326 107 276 107 z "},"7":{"ha":567,"x_min":39,"x_max":621,"o":"m 621 933 l 604 813 l 185 -18 l 39 33 l 429 801 l 82 801 l 100 933 l 621 933 z "},"8":{"ha":710,"x_min":26,"x_max":690,"o":"m 513 497 q 617 408 583 460 q 651 289 651 357 q 607 128 651 199 q 483 18 563 57 q 303 -21 404 -21 q 100 47 174 -21 q 26 221 26 114 q 228 489 26 400 q 131 674 131 558 q 169 816 131 753 q 276 915 207 879 q 433 950 344 950 q 619 894 547 950 q 690 740 690 838 q 649 602 690 661 q 513 497 607 543 m 426 831 q 324 785 357 831 q 292 676 292 740 q 315 601 292 629 q 389 551 338 574 l 410 543 q 503 630 478 585 q 528 732 528 675 q 502 805 528 779 q 426 831 476 831 m 315 107 q 438 158 392 107 q 483 289 483 208 q 456 368 483 338 q 361 428 429 399 l 328 440 q 196 226 196 368 q 227 138 196 169 q 315 107 258 107 z "},"9":{"ha":683,"x_min":51,"x_max":669,"o":"m 407 950 q 603 874 536 950 q 669 667 669 799 q 539 231 669 421 q 75 -36 408 42 l 51 86 q 326 215 226 136 q 469 432 426 293 q 381 358 428 383 q 278 332 335 332 q 131 399 188 332 q 74 575 74 465 q 111 756 74 669 q 224 896 149 842 q 407 950 300 950 m 331 457 q 492 560 413 457 q 499 678 499 622 q 474 790 499 756 q 400 825 450 825 q 280 748 318 825 q 242 578 242 671 q 331 457 242 457 z "},"\r":{"ha":297,"x_min":0,"x_max":0,"o":""}," ":{"ha":297,"x_min":0,"x_max":0,"o":""},"A":{"ha":732,"x_min":-56,"x_max":683,"o":"m 503 0 l 482 225 l 207 225 l 125 0 l -56 0 l 342 960 l 556 960 l 683 0 l 503 0 m 256 358 l 471 358 l 428 831 l 256 358 z "},"Á":{"ha":732,"x_min":-56,"x_max":683,"o":"m 503 0 l 482 225 l 207 225 l 125 0 l -56 0 l 342 960 l 556 960 l 683 0 l 503 0 m 256 358 l 471 358 l 428 831 l 256 358 m 592 1285 l 650 1154 l 353 1043 l 314 1128 l 592 1285 z "},"Ă":{"ha":732,"x_min":-56,"x_max":689,"o":"m 503 0 l 482 225 l 207 225 l 125 0 l -56 0 l 342 960 l 556 960 l 683 0 l 503 0 m 256 358 l 471 358 l 428 831 l 256 358 m 463 1049 q 326 1106 374 1049 q 283 1247 279 1163 l 379 1261 q 469 1171 390 1171 q 543 1197 513 1171 q 592 1267 574 1224 l 689 1240 q 610 1102 669 1156 q 463 1049 550 1049 z "},"Ắ":{"ha":732,"x_min":-56,"x_max":700,"o":"m 700 1418 l 488 1229 l 426 1286 l 615 1508 l 700 1418 m 471 1149 q 544 1175 514 1149 q 593 1244 575 1201 l 690 1218 q 611 1080 671 1133 q 464 1026 551 1026 q 328 1083 375 1026 q 285 1225 281 1140 l 381 1239 q 471 1149 392 1149 m 342 960 l 556 960 l 683 0 l 503 0 l 482 225 l 207 225 l 125 0 l -56 0 l 342 960 m 256 358 l 471 358 l 428 831 l 256 358 z "},"Ặ":{"ha":732,"x_min":-56,"x_max":689,"o":"m 503 0 l 482 225 l 207 225 l 125 0 l -56 0 l 342 960 l 556 960 l 683 0 l 503 0 m 256 358 l 471 358 l 428 831 l 256 358 m 463 1049 q 326 1106 374 1049 q 283 1247 279 1163 l 379 1261 q 469 1171 390 1171 q 543 1197 513 1171 q 592 1267 574 1224 l 689 1240 q 610 1102 669 1156 q 463 1049 550 1049 m 294 -94 q 364 -120 339 -94 q 389 -186 389 -146 q 356 -270 389 -237 q 274 -303 322 -303 q 205 -277 231 -303 q 179 -211 179 -251 q 213 -128 179 -161 q 294 -94 246 -94 z "},"Ằ":{"ha":732,"x_min":-56,"x_max":689,"o":"m 542 1281 l 472 1229 l 310 1424 l 415 1506 l 542 1281 m 463 1026 q 326 1083 374 1026 q 283 1225 279 1140 l 379 1239 q 469 1149 390 1149 q 543 1175 513 1149 q 592 1244 574 1201 l 689 1218 q 610 1080 669 1133 q 463 1026 550 1026 m 342 960 l 556 960 l 683 0 l 503 0 l 482 225 l 207 225 l 125 0 l -56 0 l 342 960 m 256 358 l 471 358 l 428 831 l 256 358 z "},"Ẳ":{"ha":732,"x_min":-56,"x_max":692,"o":"m 503 0 l 482 225 l 207 225 l 125 0 l -56 0 l 342 960 l 556 960 l 683 0 l 503 0 m 256 358 l 471 358 l 428 831 l 256 358 m 465 1026 q 329 1083 376 1026 q 286 1225 282 1140 l 382 1239 q 472 1149 393 1149 q 546 1175 515 1149 q 594 1244 576 1201 l 692 1218 q 613 1080 672 1133 q 465 1026 553 1026 m 443 1342 q 517 1362 493 1347 q 542 1408 542 1376 q 531 1436 542 1426 q 499 1446 519 1446 q 424 1426 463 1446 l 400 1510 q 526 1542 460 1542 q 628 1507 592 1542 q 664 1417 664 1472 q 543 1285 664 1307 l 535 1222 l 429 1222 l 443 1342 z "},"Ẵ":{"ha":732,"x_min":-56,"x_max":732,"o":"m 432 1347 q 394 1333 411 1347 q 356 1286 378 1318 l 275 1333 q 350 1431 308 1394 q 439 1468 392 1468 q 485 1459 467 1468 q 528 1432 504 1450 q 578 1407 558 1407 q 614 1421 597 1407 q 651 1464 631 1435 l 732 1418 q 658 1319 699 1354 q 571 1285 617 1285 q 525 1294 544 1285 q 483 1322 506 1304 q 469 1333 481 1325 q 449 1344 458 1340 q 432 1347 440 1347 m 469 1149 q 543 1175 513 1149 q 592 1244 574 1201 l 689 1218 q 610 1080 669 1133 q 463 1026 550 1026 q 326 1083 374 1026 q 283 1225 279 1140 l 379 1239 q 469 1149 390 1149 m 342 960 l 556 960 l 683 0 l 503 0 l 482 225 l 207 225 l 125 0 l -56 0 l 342 960 m 256 358 l 471 358 l 428 831 l 256 358 z "},"Ǎ":{"ha":732,"x_min":-56,"x_max":710,"o":"m 503 0 l 482 225 l 207 225 l 125 0 l -56 0 l 342 960 l 556 960 l 683 0 l 503 0 m 256 358 l 471 358 l 428 831 l 256 358 m 649 1285 l 710 1213 l 514 1044 l 410 1044 l 258 1217 l 328 1285 l 474 1169 l 649 1285 z "},"Â":{"ha":732,"x_min":-56,"x_max":690,"o":"m 503 0 l 482 225 l 207 225 l 125 0 l -56 0 l 342 960 l 556 960 l 683 0 l 503 0 m 256 358 l 471 358 l 428 831 l 256 358 m 300 1051 l 239 1125 l 436 1292 l 540 1292 l 690 1121 l 622 1051 l 475 1167 l 300 1051 z "},"Ấ":{"ha":732,"x_min":-56,"x_max":869,"o":"m 869 1374 l 657 1185 l 596 1242 l 785 1464 l 869 1374 m 431 1239 l 535 1239 l 685 1068 l 617 999 l 469 1114 l 294 999 l 233 1072 l 431 1239 m 342 960 l 556 960 l 683 0 l 503 0 l 482 225 l 207 225 l 125 0 l -56 0 l 342 960 m 256 358 l 471 358 l 428 831 l 256 358 z "},"Ậ":{"ha":732,"x_min":-56,"x_max":690,"o":"m 503 0 l 482 225 l 207 225 l 125 0 l -56 0 l 342 960 l 556 960 l 683 0 l 503 0 m 256 358 l 471 358 l 428 831 l 256 358 m 300 1051 l 239 1125 l 436 1292 l 540 1292 l 690 1121 l 622 1051 l 475 1167 l 300 1051 m 294 -94 q 364 -120 339 -94 q 389 -186 389 -146 q 356 -270 389 -237 q 274 -303 322 -303 q 205 -277 231 -303 q 179 -211 179 -251 q 213 -128 179 -161 q 294 -94 246 -94 z "},"Ầ":{"ha":732,"x_min":-56,"x_max":683,"o":"m 360 1236 l 290 1185 l 128 1379 l 233 1461 l 360 1236 m 292 999 l 231 1072 l 428 1239 l 532 1239 l 682 1068 l 614 999 l 467 1114 l 292 999 m 503 0 l 482 225 l 207 225 l 125 0 l -56 0 l 342 960 l 556 960 l 683 0 l 503 0 m 256 358 l 471 358 l 428 831 l 256 358 z "},"Ẩ":{"ha":732,"x_min":-56,"x_max":854,"o":"m 503 0 l 482 225 l 207 225 l 125 0 l -56 0 l 342 960 l 556 960 l 683 0 l 503 0 m 256 358 l 471 358 l 428 831 l 256 358 m 292 999 l 231 1072 l 428 1239 l 532 1239 l 682 1068 l 614 999 l 467 1114 l 292 999 m 633 1281 q 708 1301 683 1286 q 732 1347 732 1315 q 721 1375 732 1365 q 689 1385 710 1385 q 614 1365 653 1385 l 590 1449 q 717 1481 650 1481 q 818 1446 782 1481 q 854 1356 854 1411 q 733 1224 854 1246 l 725 1161 l 619 1161 l 633 1281 z "},"Ẫ":{"ha":732,"x_min":-56,"x_max":731,"o":"m 431 1342 q 393 1327 410 1342 q 354 1281 376 1313 l 274 1328 q 349 1426 307 1389 q 438 1463 390 1463 q 484 1453 465 1463 q 526 1426 503 1444 q 576 1401 557 1401 q 613 1415 596 1401 q 650 1458 629 1429 l 731 1413 q 656 1314 697 1349 q 569 1279 615 1279 q 524 1289 543 1279 q 482 1317 504 1299 q 468 1327 479 1319 q 448 1338 457 1335 q 431 1342 439 1342 m 429 1239 l 533 1239 l 683 1068 l 615 999 l 468 1114 l 293 999 l 232 1072 l 429 1239 m 342 960 l 556 960 l 683 0 l 503 0 l 482 225 l 207 225 l 125 0 l -56 0 l 342 960 m 256 358 l 471 358 l 428 831 l 256 358 z "},"Ȁ":{"ha":732,"x_min":-56,"x_max":683,"o":"m 503 0 l 482 225 l 207 225 l 125 0 l -56 0 l 342 960 l 556 960 l 683 0 l 503 0 m 256 358 l 471 358 l 428 831 l 256 358 m 342 1349 l 424 1090 l 324 1050 l 210 1289 l 342 1349 m 547 1349 l 618 1093 l 519 1057 l 414 1292 l 547 1349 z "},"Ä":{"ha":732,"x_min":-56,"x_max":711,"o":"m 503 0 l 482 225 l 207 225 l 125 0 l -56 0 l 342 960 l 556 960 l 683 0 l 503 0 m 256 358 l 471 358 l 428 831 l 256 358 m 331 1076 q 270 1099 293 1076 q 247 1157 247 1121 q 277 1231 247 1201 q 350 1260 307 1260 q 410 1238 388 1260 q 433 1179 433 1215 q 403 1106 433 1135 q 331 1076 374 1076 m 608 1076 q 548 1099 571 1076 q 525 1157 525 1121 q 555 1231 525 1201 q 628 1260 585 1260 q 688 1238 665 1260 q 711 1179 711 1215 q 681 1106 711 1135 q 608 1076 651 1076 z "},"Ǟ":{"ha":732,"x_min":-56,"x_max":699,"o":"m 503 0 l 482 225 l 207 225 l 125 0 l -56 0 l 342 960 l 556 960 l 683 0 l 503 0 m 256 358 l 471 358 l 428 831 l 256 358 m 318 1038 q 258 1060 281 1038 q 235 1118 235 1082 q 265 1192 235 1163 q 338 1221 294 1221 q 398 1199 375 1221 q 421 1140 421 1176 q 391 1067 421 1096 q 318 1038 361 1038 m 596 1038 q 535 1060 558 1038 q 513 1118 513 1082 q 542 1192 513 1163 q 615 1221 572 1221 q 676 1199 653 1221 q 699 1140 699 1176 q 669 1067 699 1096 q 596 1038 639 1038 m 664 1281 l 301 1281 l 319 1403 l 682 1403 l 664 1281 z "},"Ȧ":{"ha":732,"x_min":-56,"x_max":683,"o":"m 503 0 l 482 225 l 207 225 l 125 0 l -56 0 l 342 960 l 556 960 l 683 0 l 503 0 m 256 358 l 471 358 l 428 831 l 256 358 m 472 1069 q 403 1095 428 1069 q 378 1161 378 1121 q 410 1245 378 1213 q 493 1278 443 1278 q 562 1252 536 1278 q 588 1186 588 1226 q 554 1103 588 1136 q 472 1069 521 1069 z "},"Ạ":{"ha":732,"x_min":-56,"x_max":683,"o":"m 503 0 l 482 225 l 207 225 l 125 0 l -56 0 l 342 960 l 556 960 l 683 0 l 503 0 m 256 358 l 471 358 l 428 831 l 256 358 m 294 -94 q 364 -120 339 -94 q 389 -186 389 -146 q 356 -270 389 -237 q 274 -303 322 -303 q 205 -277 231 -303 q 179 -211 179 -251 q 213 -128 179 -161 q 294 -94 246 -94 z "},"Ǡ":{"ha":732,"x_min":-56,"x_max":689,"o":"m 503 0 l 482 225 l 207 225 l 125 0 l -56 0 l 342 960 l 556 960 l 683 0 l 503 0 m 256 358 l 471 358 l 428 831 l 256 358 m 460 1026 q 390 1052 415 1026 q 365 1118 365 1078 q 398 1202 365 1169 q 481 1235 431 1235 q 549 1209 524 1235 q 575 1143 575 1183 q 542 1060 575 1093 q 460 1026 508 1026 m 671 1282 l 308 1282 l 326 1404 l 689 1404 l 671 1282 z "},"À":{"ha":732,"x_min":-56,"x_max":683,"o":"m 503 0 l 482 225 l 207 225 l 125 0 l -56 0 l 342 960 l 556 960 l 683 0 l 503 0 m 256 358 l 471 358 l 428 831 l 256 358 m 401 1282 l 644 1126 l 593 1044 l 326 1154 l 401 1282 z "},"Ả":{"ha":732,"x_min":-56,"x_max":683,"o":"m 503 0 l 482 225 l 207 225 l 125 0 l -56 0 l 342 960 l 556 960 l 683 0 l 503 0 m 256 358 l 471 358 l 428 831 l 256 358 m 426 1181 q 501 1201 476 1186 q 525 1247 525 1215 q 514 1275 525 1265 q 482 1285 503 1285 q 407 1265 446 1285 l 383 1349 q 510 1381 443 1381 q 611 1346 575 1381 q 647 1256 647 1311 q 526 1124 647 1146 l 518 1061 l 413 1061 l 426 1181 z "},"Ȃ":{"ha":732,"x_min":-56,"x_max":683,"o":"m 503 0 l 482 225 l 207 225 l 125 0 l -56 0 l 342 960 l 556 960 l 683 0 l 503 0 m 256 358 l 471 358 l 428 831 l 256 358 m 261 1092 q 346 1244 285 1188 q 494 1300 407 1300 q 631 1241 583 1300 q 672 1086 678 1182 l 574 1072 q 483 1176 565 1176 q 357 1067 396 1176 l 261 1092 z "},"Ɑ":{"ha":854,"x_min":61,"x_max":836,"o":"m 726 186 q 725 156 725 175 q 733 119 725 133 q 761 96 740 106 l 711 -18 q 565 89 594 -7 q 469 8 521 36 q 351 -19 417 -19 q 141 76 219 -19 q 61 346 63 172 q 115 662 61 517 q 264 893 168 807 q 481 979 360 979 q 660 883 593 979 l 686 960 l 836 960 l 726 186 m 390 114 q 556 206 481 114 l 632 760 q 574 823 606 801 q 497 844 542 844 q 360 774 418 844 q 272 588 303 703 q 242 343 242 474 q 390 114 242 114 z "},"Ā":{"ha":732,"x_min":-56,"x_max":683,"o":"m 503 0 l 482 225 l 207 225 l 125 0 l -56 0 l 342 960 l 556 960 l 683 0 l 503 0 m 256 358 l 471 358 l 428 831 l 256 358 m 650 1093 l 288 1093 l 306 1215 l 668 1215 l 650 1093 z "},"Ą":{"ha":732,"x_min":-56,"x_max":683,"o":"m 604 0 q 467 -85 503 -44 q 432 -167 432 -126 q 490 -215 432 -215 q 565 -207 526 -215 l 540 -321 q 458 -329 503 -329 q 345 -292 388 -329 q 303 -190 303 -254 q 500 31 303 -50 l 482 225 l 207 225 l 125 0 l -56 0 l 342 960 l 556 960 l 683 0 l 604 0 m 256 358 l 471 358 l 428 831 l 256 358 z "},"Å":{"ha":732,"x_min":-56,"x_max":683,"o":"m 503 0 l 482 225 l 207 225 l 125 0 l -56 0 l 342 960 l 556 960 l 683 0 l 503 0 m 256 358 l 471 358 l 428 831 l 256 358 m 501 1356 q 607 1315 568 1356 q 646 1210 646 1274 q 595 1082 646 1133 q 465 1031 544 1031 q 360 1072 400 1031 q 321 1176 321 1113 q 372 1303 321 1250 q 501 1356 424 1356 m 494 1268 q 442 1242 461 1268 q 422 1179 422 1215 q 435 1134 422 1150 q 472 1118 449 1118 q 526 1144 507 1118 q 546 1207 546 1169 q 533 1252 546 1236 q 494 1268 519 1268 z "},"Ǻ":{"ha":732,"x_min":-56,"x_max":683,"o":"m 503 0 l 482 225 l 207 225 l 125 0 l -56 0 l 342 960 l 556 960 l 683 0 l 503 0 m 256 358 l 471 358 l 428 831 l 256 358 m 490 1338 q 596 1297 557 1338 q 635 1192 635 1256 q 584 1064 635 1115 q 454 1013 533 1013 q 349 1053 389 1013 q 310 1158 310 1094 q 361 1285 310 1232 q 490 1338 413 1338 m 483 1250 q 431 1224 450 1250 q 411 1161 411 1197 q 424 1116 411 1132 q 461 1100 438 1100 q 515 1126 496 1100 q 535 1189 535 1151 q 522 1234 535 1218 q 483 1250 508 1250 m 603 1583 l 661 1453 l 364 1342 l 325 1426 l 603 1583 z "},"Ⱥ":{"ha":732,"x_min":-56,"x_max":683,"o":"m 519 0 l 496 225 l 344 225 l 221 -100 l 156 -83 l 272 225 l 197 225 l 113 0 l -56 0 l 343 960 l 553 960 l 585 1044 l 650 1028 l 574 826 l 683 0 l 519 0 m 244 351 l 321 351 l 447 683 l 431 843 l 244 351 m 393 351 l 482 351 l 463 536 l 393 351 z "},"Ã":{"ha":732,"x_min":-56,"x_max":708,"o":"m 503 0 l 482 225 l 207 225 l 125 0 l -56 0 l 342 960 l 556 960 l 683 0 l 503 0 m 256 358 l 471 358 l 428 831 l 256 358 m 546 1072 q 502 1081 521 1072 q 457 1110 483 1090 q 428 1130 439 1124 q 406 1136 418 1136 q 368 1121 385 1136 q 329 1074 351 1106 l 249 1122 q 323 1223 281 1185 q 413 1261 365 1261 q 460 1251 440 1261 q 503 1222 481 1240 q 553 1197 533 1197 q 589 1212 572 1197 q 626 1257 606 1226 l 708 1210 q 633 1108 675 1144 q 546 1072 592 1072 z "},"Æ":{"ha":1036,"x_min":-68,"x_max":1024,"o":"m 985 828 l 636 828 l 651 551 l 956 551 l 938 421 l 658 421 l 674 133 l 957 133 l 936 0 l 515 0 l 507 225 l 218 225 l 118 0 l -68 0 l 396 960 l 1024 960 l 985 828 m 276 358 l 501 358 l 485 826 l 276 358 z "},"Ǽ":{"ha":1036,"x_min":-68,"x_max":1024,"o":"m 985 828 l 636 828 l 651 551 l 956 551 l 938 421 l 658 421 l 674 133 l 957 133 l 936 0 l 515 0 l 507 225 l 218 225 l 118 0 l -68 0 l 396 960 l 1024 960 l 985 828 m 276 358 l 501 358 l 485 826 l 276 358 m 822 1285 l 881 1154 l 583 1043 l 544 1128 l 822 1285 z "},"Ǣ":{"ha":1036,"x_min":-68,"x_max":1024,"o":"m 985 828 l 636 828 l 651 551 l 956 551 l 938 421 l 658 421 l 674 133 l 957 133 l 936 0 l 515 0 l 507 225 l 218 225 l 118 0 l -68 0 l 396 960 l 1024 960 l 985 828 m 276 358 l 501 358 l 485 826 l 276 358 m 881 1093 l 518 1093 l 536 1215 l 899 1215 l 881 1093 z "},"B":{"ha":765,"x_min":44,"x_max":744,"o":"m 536 507 q 666 444 618 489 q 714 314 714 400 q 615 86 714 172 q 310 0 517 0 l 44 0 l 181 960 l 439 960 q 663 905 581 960 q 744 746 744 850 q 687 590 744 650 q 536 507 629 529 m 336 829 l 299 564 l 393 564 q 522 608 476 564 q 567 732 567 651 q 440 829 567 829 l 336 829 m 326 133 q 488 184 442 133 q 535 321 535 235 q 498 411 535 383 q 390 439 461 439 l 281 439 l 238 133 l 326 133 z "},"Ḃ":{"ha":765,"x_min":44,"x_max":744,"o":"m 536 507 q 666 444 618 489 q 714 314 714 400 q 615 86 714 172 q 310 0 517 0 l 44 0 l 181 960 l 439 960 q 663 905 581 960 q 744 746 744 850 q 687 590 744 650 q 536 507 629 529 m 336 829 l 299 564 l 393 564 q 522 608 476 564 q 567 732 567 651 q 440 829 567 829 l 336 829 m 326 133 q 488 184 442 133 q 535 321 535 235 q 498 411 535 383 q 390 439 461 439 l 281 439 l 238 133 l 326 133 m 468 1069 q 399 1095 424 1069 q 374 1161 374 1121 q 406 1245 374 1213 q 489 1278 439 1278 q 558 1252 532 1278 q 583 1186 583 1226 q 550 1103 583 1136 q 468 1069 517 1069 z "},"Ḅ":{"ha":765,"x_min":44,"x_max":744,"o":"m 536 507 q 666 444 618 489 q 714 314 714 400 q 615 86 714 172 q 310 0 517 0 l 44 0 l 181 960 l 439 960 q 663 905 581 960 q 744 746 744 850 q 687 590 744 650 q 536 507 629 529 m 336 829 l 299 564 l 393 564 q 522 608 476 564 q 567 732 567 651 q 440 829 567 829 l 336 829 m 326 133 q 488 184 442 133 q 535 321 535 235 q 498 411 535 383 q 390 439 461 439 l 281 439 l 238 133 l 326 133 m 315 -94 q 385 -120 360 -94 q 410 -186 410 -146 q 376 -270 410 -237 q 294 -303 343 -303 q 226 -277 251 -303 q 200 -211 200 -251 q 233 -128 200 -161 q 315 -94 267 -94 z "},"Ꞵ":{"ha":763,"x_min":6,"x_max":736,"o":"m 536 507 q 713 317 713 471 q 667 151 713 222 q 543 40 622 79 q 363 0 464 0 q 222 19 289 0 l 179 -286 l 6 -286 l 181 960 l 429 960 q 654 905 572 960 q 736 744 736 850 q 680 589 736 649 q 536 507 624 529 m 353 133 q 485 185 438 133 q 533 321 533 238 q 498 411 533 383 q 393 439 463 439 l 347 439 l 376 564 l 399 564 q 514 606 471 564 q 557 729 557 649 q 524 806 557 783 q 432 829 492 829 l 336 829 l 240 147 q 353 133 300 133 z "},"Ɓ":{"ha":917,"x_min":65,"x_max":896,"o":"m 688 507 q 817 444 769 489 q 865 314 865 400 q 767 86 865 172 q 461 0 668 0 l 196 0 l 314 829 l 279 829 q 224 807 243 829 q 206 743 206 785 q 218 664 206 711 l 99 617 q 65 749 65 683 q 126 903 65 846 q 292 960 186 960 l 590 960 q 814 905 732 960 q 896 746 896 850 q 838 590 896 650 q 688 507 781 529 m 488 829 l 450 564 l 544 564 q 673 608 628 564 q 718 732 718 651 q 592 829 718 829 l 488 829 m 478 133 q 640 184 593 133 q 686 321 686 235 q 649 411 686 383 q 542 439 613 439 l 432 439 l 389 133 l 478 133 z "},"Ƀ":{"ha":778,"x_min":1,"x_max":757,"o":"m 549 507 q 678 444 631 489 q 726 314 726 400 q 628 86 726 172 q 322 0 529 0 l 57 0 l 90 239 l 1 239 l 17 342 l 106 342 l 193 960 l 451 960 q 675 905 593 960 q 757 746 757 850 q 699 590 757 650 q 549 507 642 529 m 349 829 l 311 564 l 406 564 q 534 608 489 564 q 579 732 579 651 q 453 829 579 829 l 349 829 m 339 133 q 501 184 454 133 q 547 321 547 235 q 510 411 547 383 q 403 439 474 439 l 293 439 l 279 342 l 440 342 l 425 239 l 265 239 l 250 133 l 339 133 z "},"Ƃ":{"ha":732,"x_min":46,"x_max":701,"o":"m 393 607 q 620 541 539 607 q 701 351 701 475 q 664 181 701 261 q 541 51 626 101 q 319 0 456 0 l 46 0 l 181 960 l 690 960 l 651 821 l 336 821 l 306 607 l 393 607 m 328 133 q 474 194 431 133 q 518 346 518 256 q 483 447 518 415 q 376 479 447 479 l 288 479 l 239 133 l 328 133 z "},"C":{"ha":711,"x_min":61,"x_max":761,"o":"m 517 979 q 761 875 665 979 l 667 782 q 596 828 632 813 q 518 843 560 843 q 360 766 421 843 q 271 575 299 689 q 243 346 243 461 q 285 176 243 231 q 400 121 326 121 q 491 140 450 121 q 585 199 532 160 l 653 92 q 528 10 599 42 q 375 -21 458 -21 q 147 76 232 -21 q 61 353 61 174 q 110 649 61 506 q 263 886 160 793 q 517 979 365 979 z "},"Ć":{"ha":711,"x_min":61,"x_max":761,"o":"m 517 979 q 761 875 665 979 l 667 782 q 596 828 632 813 q 518 843 560 843 q 360 766 421 843 q 271 575 299 689 q 243 346 243 461 q 285 176 243 231 q 400 121 326 121 q 491 140 450 121 q 585 199 532 160 l 653 92 q 528 10 599 42 q 375 -21 458 -21 q 147 76 232 -21 q 61 353 61 174 q 110 649 61 506 q 263 886 160 793 q 517 979 365 979 m 664 1285 l 722 1154 l 425 1043 l 386 1128 l 664 1285 z "},"Č":{"ha":711,"x_min":61,"x_max":782,"o":"m 517 979 q 761 875 665 979 l 667 782 q 596 828 632 813 q 518 843 560 843 q 360 766 421 843 q 271 575 299 689 q 243 346 243 461 q 285 176 243 231 q 400 121 326 121 q 491 140 450 121 q 585 199 532 160 l 653 92 q 528 10 599 42 q 375 -21 458 -21 q 147 76 232 -21 q 61 353 61 174 q 110 649 61 506 q 263 886 160 793 q 517 979 365 979 m 721 1285 l 782 1213 l 586 1044 l 482 1044 l 331 1217 l 400 1285 l 546 1169 l 721 1285 z "},"Ç":{"ha":711,"x_min":61,"x_max":761,"o":"m 518 843 q 360 766 421 843 q 271 575 299 689 q 243 346 243 461 q 285 176 243 231 q 400 121 326 121 q 491 140 450 121 q 585 199 532 160 l 653 92 q 418 -18 550 -3 l 410 -75 q 490 -111 463 -81 q 518 -189 518 -142 q 469 -301 518 -253 q 328 -349 421 -349 q 200 -308 250 -349 l 251 -228 q 325 -249 286 -249 q 374 -235 356 -249 q 393 -194 393 -221 q 370 -156 393 -167 q 288 -146 347 -146 l 318 -17 q 131 97 200 1 q 61 353 61 192 q 110 649 61 506 q 263 886 160 793 q 517 979 365 979 q 761 875 665 979 l 667 782 q 596 828 632 813 q 518 843 560 843 z "},"Ĉ":{"ha":711,"x_min":61,"x_max":763,"o":"m 517 979 q 761 875 665 979 l 667 782 q 596 828 632 813 q 518 843 560 843 q 360 766 421 843 q 271 575 299 689 q 243 346 243 461 q 285 176 243 231 q 400 121 326 121 q 491 140 450 121 q 585 199 532 160 l 653 92 q 528 10 599 42 q 375 -21 458 -21 q 147 76 232 -21 q 61 353 61 174 q 110 649 61 506 q 263 886 160 793 q 517 979 365 979 m 372 1051 l 311 1125 l 508 1292 l 613 1292 l 763 1121 l 694 1051 l 547 1167 l 372 1051 z "},"Ċ":{"ha":711,"x_min":61,"x_max":761,"o":"m 517 979 q 761 875 665 979 l 667 782 q 596 828 632 813 q 518 843 560 843 q 360 766 421 843 q 271 575 299 689 q 243 346 243 461 q 285 176 243 231 q 400 121 326 121 q 491 140 450 121 q 585 199 532 160 l 653 92 q 528 10 599 42 q 375 -21 458 -21 q 147 76 232 -21 q 61 353 61 174 q 110 649 61 506 q 263 886 160 793 q 517 979 365 979 m 544 1069 q 475 1095 500 1069 q 450 1161 450 1121 q 483 1245 450 1213 q 565 1278 515 1278 q 634 1252 608 1278 q 660 1186 660 1226 q 626 1103 660 1136 q 544 1069 593 1069 z "},"Ꭓ":{"ha":688,"x_min":-82,"x_max":750,"o":"m 750 960 l 449 415 l 610 -201 l 426 -201 l 331 294 l 111 -201 l -82 -201 l 243 415 l 101 960 l 286 960 l 363 528 l 561 960 l 750 960 z "},"Ƈ":{"ha":713,"x_min":61,"x_max":1000,"o":"m 844 1168 q 1000 1114 935 1168 l 935 1013 q 896 1032 914 1026 q 854 1038 878 1038 q 771 946 783 1038 l 761 875 l 676 789 q 519 843 599 843 q 360 766 422 843 q 271 575 299 689 q 243 346 243 461 q 285 176 243 231 q 400 121 326 121 q 490 140 450 121 q 585 200 531 160 l 653 92 q 528 10 599 42 q 376 -21 458 -21 q 147 76 232 -21 q 61 353 61 174 q 110 649 61 504 q 259 886 160 793 q 500 979 358 979 q 619 954 569 979 l 621 969 q 692 1115 635 1063 q 844 1168 749 1168 z "},"Ȼ":{"ha":711,"x_min":61,"x_max":761,"o":"m 667 782 q 603 825 632 813 l 339 132 q 400 121 368 121 q 491 140 450 121 q 585 199 532 160 l 653 92 q 528 10 599 42 q 375 -21 458 -21 q 285 -10 329 -21 l 250 -100 l 183 -82 l 221 17 q 103 144 144 58 q 61 353 61 229 q 110 649 61 506 q 263 886 160 793 q 517 979 365 979 q 585 974 557 979 l 613 1044 l 679 1026 l 651 954 q 761 875 715 928 l 667 782 m 536 843 l 518 843 q 360 766 421 843 q 271 575 299 689 q 243 346 243 461 q 282 178 243 236 l 536 843 z "},"D":{"ha":817,"x_min":44,"x_max":788,"o":"m 406 960 q 683 883 579 960 q 788 615 788 806 q 738 303 788 442 q 576 83 688 165 q 288 0 464 0 l 44 0 l 181 960 l 406 960 m 336 826 l 239 132 l 315 132 q 488 204 422 132 q 582 386 554 276 q 610 617 610 496 q 559 781 610 736 q 415 826 508 826 l 336 826 z "},"Ǳ":{"ha":1442,"x_min":44,"x_max":1482,"o":"m 406 960 q 683 883 579 960 q 788 615 788 806 q 738 303 788 442 q 576 83 688 165 q 288 0 464 0 l 44 0 l 181 960 l 406 960 m 336 826 l 239 132 l 315 132 q 488 204 422 132 q 582 386 554 276 q 610 617 610 496 q 559 781 610 736 q 415 826 508 826 l 336 826 m 757 0 l 775 136 l 1268 818 l 911 818 l 932 960 l 1482 960 l 1463 822 l 972 144 l 1374 144 l 1333 0 l 757 0 z "},"Ǆ":{"ha":1442,"x_min":44,"x_max":1482,"o":"m 406 960 q 683 883 579 960 q 788 615 788 806 q 738 303 788 442 q 576 83 688 165 q 288 0 464 0 l 44 0 l 181 960 l 406 960 m 336 826 l 239 132 l 315 132 q 488 204 422 132 q 582 386 554 276 q 610 617 610 496 q 559 781 610 736 q 415 826 508 826 l 336 826 m 757 0 l 775 136 l 1268 818 l 911 818 l 932 960 l 1482 960 l 1463 822 l 972 144 l 1374 144 l 1333 0 l 757 0 m 1403 1285 l 1464 1213 l 1268 1044 l 1164 1044 l 1013 1217 l 1082 1285 l 1228 1169 l 1403 1285 z "},"Ɖ":{"ha":829,"x_min":28,"x_max":799,"o":"m 417 960 q 694 883 590 960 q 799 615 799 806 q 749 303 799 442 q 587 83 699 165 q 299 0 475 0 l 56 0 l 117 432 l 28 432 l 44 549 l 133 549 l 192 960 l 417 960 m 326 132 q 499 204 433 132 q 593 386 565 276 q 621 617 621 496 q 570 781 621 736 q 426 826 519 826 l 347 826 l 308 549 l 483 549 l 467 432 l 292 432 l 250 132 l 326 132 z "},"Ð":{"ha":829,"x_min":28,"x_max":799,"o":"m 417 960 q 694 883 590 960 q 799 615 799 806 q 749 303 799 442 q 587 83 699 165 q 299 0 475 0 l 56 0 l 117 432 l 28 432 l 44 549 l 133 549 l 192 960 l 417 960 m 326 132 q 499 204 433 132 q 593 386 565 276 q 621 617 621 496 q 570 781 621 736 q 426 826 519 826 l 347 826 l 308 549 l 483 549 l 467 432 l 292 432 l 250 132 l 326 132 z "},"Ď":{"ha":817,"x_min":44,"x_max":788,"o":"m 406 960 q 683 883 579 960 q 788 615 788 806 q 738 303 788 442 q 576 83 688 165 q 288 0 464 0 l 44 0 l 181 960 l 406 960 m 336 826 l 239 132 l 315 132 q 488 204 422 132 q 582 386 554 276 q 610 617 610 496 q 559 781 610 736 q 415 826 508 826 l 336 826 m 665 1285 l 726 1213 l 531 1044 l 426 1044 l 275 1217 l 344 1285 l 490 1169 l 665 1285 z "},"Ḓ":{"ha":817,"x_min":44,"x_max":788,"o":"m 406 960 q 683 883 579 960 q 788 615 788 806 q 738 303 788 442 q 576 83 688 165 q 288 0 464 0 l 44 0 l 181 960 l 406 960 m 336 826 l 239 132 l 315 132 q 488 204 422 132 q 582 386 554 276 q 610 617 610 496 q 559 781 610 736 q 415 826 508 826 l 336 826 m 115 -337 l 54 -264 l 253 -92 l 357 -92 l 507 -268 l 435 -337 l 292 -217 l 115 -337 z "},"Đ":{"ha":829,"x_min":28,"x_max":799,"o":"m 417 960 q 694 883 590 960 q 799 615 799 806 q 749 303 799 442 q 587 83 699 165 q 299 0 475 0 l 56 0 l 117 432 l 28 432 l 44 549 l 133 549 l 192 960 l 417 960 m 326 132 q 499 204 433 132 q 593 386 565 276 q 621 617 621 496 q 570 781 621 736 q 426 826 519 826 l 347 826 l 308 549 l 483 549 l 467 432 l 292 432 l 250 132 l 326 132 z "},"Ḋ":{"ha":817,"x_min":44,"x_max":788,"o":"m 406 960 q 683 883 579 960 q 788 615 788 806 q 738 303 788 442 q 576 83 688 165 q 288 0 464 0 l 44 0 l 181 960 l 406 960 m 336 826 l 239 132 l 315 132 q 488 204 422 132 q 582 386 554 276 q 610 617 610 496 q 559 781 610 736 q 415 826 508 826 l 336 826 m 489 1069 q 419 1095 444 1069 q 394 1161 394 1121 q 427 1245 394 1213 q 510 1278 460 1278 q 578 1252 553 1278 q 604 1186 604 1226 q 571 1103 604 1136 q 489 1069 538 1069 z "},"Ḍ":{"ha":817,"x_min":44,"x_max":788,"o":"m 406 960 q 683 883 579 960 q 788 615 788 806 q 738 303 788 442 q 576 83 688 165 q 288 0 464 0 l 44 0 l 181 960 l 406 960 m 336 826 l 239 132 l 315 132 q 488 204 422 132 q 582 386 554 276 q 610 617 610 496 q 559 781 610 736 q 415 826 508 826 l 336 826 m 299 -94 q 368 -120 343 -94 q 393 -186 393 -146 q 360 -270 393 -237 q 278 -303 326 -303 q 209 -277 235 -303 q 183 -211 183 -251 q 217 -128 183 -161 q 299 -94 250 -94 z "},"Ɗ":{"ha":968,"x_min":65,"x_max":939,"o":"m 557 960 q 835 883 731 960 q 939 615 939 806 q 889 303 939 442 q 727 83 839 165 q 439 0 615 0 l 196 0 l 314 829 l 279 829 q 224 807 243 829 q 206 743 206 785 q 218 664 206 711 l 99 617 q 65 749 65 683 q 126 903 65 846 q 292 960 186 960 l 557 960 m 467 132 q 640 204 574 132 q 733 386 706 276 q 761 617 761 496 q 710 781 761 736 q 567 826 660 826 l 488 826 l 390 132 l 467 132 z "},"Ḏ":{"ha":817,"x_min":44,"x_max":788,"o":"m 406 960 q 683 883 579 960 q 788 615 788 806 q 738 303 788 442 q 576 83 688 165 q 288 0 464 0 l 44 0 l 181 960 l 406 960 m 336 826 l 239 132 l 315 132 q 488 204 422 132 q 582 386 554 276 q 610 617 610 496 q 559 781 610 736 q 415 826 508 826 l 336 826 m 129 -129 l 492 -129 l 474 -251 l 111 -251 l 129 -129 z "},"Ƌ":{"ha":733,"x_min":15,"x_max":719,"o":"m 585 0 l 326 0 q 98 68 181 0 q 15 274 15 136 q 118 520 15 432 q 396 608 221 608 l 496 608 l 525 821 l 194 821 l 214 960 l 719 960 l 585 0 m 429 133 l 478 479 l 390 479 q 247 426 294 479 q 199 276 199 374 q 235 167 199 201 q 350 133 271 133 l 429 133 z "},"ǲ":{"ha":1361,"x_min":44,"x_max":1379,"o":"m 406 960 q 683 883 579 960 q 788 615 788 806 q 738 303 788 442 q 576 83 688 165 q 288 0 464 0 l 44 0 l 181 960 l 406 960 m 336 826 l 239 132 l 315 132 q 488 204 422 132 q 582 386 554 276 q 610 617 610 496 q 559 781 610 736 q 415 826 508 826 l 336 826 m 1379 735 l 1361 611 l 992 135 l 1301 135 l 1265 0 l 772 0 l 789 124 l 1160 600 l 882 600 l 901 735 l 1379 735 z "},"ǅ":{"ha":1361,"x_min":44,"x_max":1403,"o":"m 406 960 q 683 883 579 960 q 788 615 788 806 q 738 303 788 442 q 576 83 688 165 q 288 0 464 0 l 44 0 l 181 960 l 406 960 m 336 826 l 239 132 l 315 132 q 488 204 422 132 q 582 386 554 276 q 610 617 610 496 q 559 781 610 736 q 415 826 508 826 l 336 826 m 1379 735 l 1361 611 l 992 135 l 1301 135 l 1265 0 l 772 0 l 789 124 l 1160 600 l 882 600 l 901 735 l 1379 735 m 1346 1106 l 1403 1033 l 1207 861 l 1103 861 l 953 1033 l 1021 1106 l 1164 986 l 1346 1106 z "},"E":{"ha":654,"x_min":44,"x_max":683,"o":"m 683 960 l 644 828 l 336 828 l 297 553 l 568 553 l 550 422 l 279 422 l 239 133 l 571 133 l 551 0 l 44 0 l 181 960 l 683 960 z "},"É":{"ha":654,"x_min":44,"x_max":683,"o":"m 683 960 l 644 828 l 336 828 l 297 553 l 568 553 l 550 422 l 279 422 l 239 133 l 571 133 l 551 0 l 44 0 l 181 960 l 683 960 m 576 1285 l 635 1154 l 338 1043 l 299 1128 l 576 1285 z "},"Ĕ":{"ha":654,"x_min":44,"x_max":683,"o":"m 683 960 l 644 828 l 336 828 l 297 553 l 568 553 l 550 422 l 279 422 l 239 133 l 571 133 l 551 0 l 44 0 l 181 960 l 683 960 m 447 1049 q 311 1106 358 1049 q 268 1247 264 1163 l 364 1261 q 454 1171 375 1171 q 528 1197 497 1171 q 576 1267 558 1224 l 674 1240 q 594 1102 654 1156 q 447 1049 535 1049 z "},"Ě":{"ha":654,"x_min":44,"x_max":694,"o":"m 683 960 l 644 828 l 336 828 l 297 553 l 568 553 l 550 422 l 279 422 l 239 133 l 571 133 l 551 0 l 44 0 l 181 960 l 683 960 m 633 1285 l 694 1213 l 499 1044 l 394 1044 l 243 1217 l 313 1285 l 458 1169 l 633 1285 z "},"Ȩ":{"ha":654,"x_min":44,"x_max":683,"o":"m 336 828 l 297 553 l 568 553 l 550 422 l 279 422 l 239 133 l 571 133 l 551 0 l 347 0 l 336 -75 q 417 -110 390 -81 q 444 -189 444 -140 q 424 -265 444 -228 q 361 -325 404 -301 q 253 -349 318 -349 q 126 -308 176 -349 l 178 -229 q 253 -249 214 -249 q 301 -235 283 -249 q 319 -194 319 -221 q 297 -156 319 -167 q 214 -146 274 -146 l 249 0 l 44 0 l 181 960 l 683 960 l 644 828 l 336 828 z "},"Ê":{"ha":654,"x_min":44,"x_max":683,"o":"m 683 960 l 644 828 l 336 828 l 297 553 l 568 553 l 550 422 l 279 422 l 239 133 l 571 133 l 551 0 l 44 0 l 181 960 l 683 960 m 285 1051 l 224 1125 l 421 1292 l 525 1292 l 675 1121 l 607 1051 l 460 1167 l 285 1051 z "},"Ế":{"ha":654,"x_min":44,"x_max":854,"o":"m 769 1464 l 854 1374 l 642 1185 l 581 1242 l 769 1464 m 279 999 l 218 1072 l 415 1239 l 519 1239 l 669 1068 l 601 999 l 454 1114 l 279 999 m 683 960 l 644 828 l 336 828 l 297 553 l 568 553 l 550 422 l 279 422 l 239 133 l 571 133 l 551 0 l 44 0 l 181 960 l 683 960 z "},"Ệ":{"ha":654,"x_min":44,"x_max":683,"o":"m 683 960 l 644 828 l 336 828 l 297 553 l 568 553 l 550 422 l 279 422 l 239 133 l 571 133 l 551 0 l 44 0 l 181 960 l 683 960 m 285 1051 l 224 1125 l 421 1292 l 525 1292 l 675 1121 l 607 1051 l 460 1167 l 285 1051 m 279 -94 q 349 -120 324 -94 q 374 -186 374 -146 q 340 -270 374 -237 q 258 -303 307 -303 q 190 -277 215 -303 q 164 -211 164 -251 q 197 -128 164 -161 q 279 -94 231 -94 z "},"Ề":{"ha":654,"x_min":44,"x_max":683,"o":"m 218 1461 l 344 1236 l 275 1185 l 113 1379 l 218 1461 m 276 999 l 215 1072 l 413 1239 l 517 1239 l 667 1068 l 599 999 l 451 1114 l 276 999 m 683 960 l 644 828 l 336 828 l 297 553 l 568 553 l 550 422 l 279 422 l 239 133 l 571 133 l 551 0 l 44 0 l 181 960 l 683 960 z "},"Ể":{"ha":654,"x_min":44,"x_max":839,"o":"m 683 960 l 644 828 l 336 828 l 297 553 l 568 553 l 550 422 l 279 422 l 239 133 l 571 133 l 551 0 l 44 0 l 181 960 l 683 960 m 276 999 l 215 1072 l 413 1239 l 517 1239 l 667 1068 l 599 999 l 451 1114 l 276 999 m 618 1281 q 692 1301 668 1286 q 717 1347 717 1315 q 706 1375 717 1365 q 674 1385 694 1385 q 599 1365 638 1385 l 575 1449 q 701 1481 635 1481 q 803 1446 767 1481 q 839 1356 839 1411 q 718 1224 839 1246 l 710 1161 l 604 1161 l 618 1281 z "},"Ễ":{"ha":654,"x_min":44,"x_max":715,"o":"m 554 1279 q 508 1289 528 1279 q 467 1317 489 1299 q 453 1327 464 1319 q 433 1338 442 1335 q 415 1342 424 1342 q 378 1327 394 1342 q 339 1281 361 1313 l 258 1328 q 333 1426 292 1389 q 422 1463 375 1463 q 469 1453 450 1463 q 511 1426 488 1444 q 561 1401 542 1401 q 597 1415 581 1401 q 635 1458 614 1429 l 715 1413 q 641 1314 682 1349 q 554 1279 600 1279 m 278 999 l 217 1072 l 414 1239 l 518 1239 l 668 1068 l 600 999 l 453 1114 l 278 999 m 683 960 l 644 828 l 336 828 l 297 553 l 568 553 l 550 422 l 279 422 l 239 133 l 571 133 l 551 0 l 44 0 l 181 960 l 683 960 z "},"Ȅ":{"ha":654,"x_min":44,"x_max":683,"o":"m 683 960 l 644 828 l 336 828 l 297 553 l 568 553 l 550 422 l 279 422 l 239 133 l 571 133 l 551 0 l 44 0 l 181 960 l 683 960 m 326 1349 l 408 1090 l 308 1050 l 194 1289 l 326 1349 m 532 1349 l 603 1093 l 504 1057 l 399 1292 l 532 1349 z "},"Ë":{"ha":654,"x_min":44,"x_max":696,"o":"m 683 960 l 644 828 l 336 828 l 297 553 l 568 553 l 550 422 l 279 422 l 239 133 l 571 133 l 551 0 l 44 0 l 181 960 l 683 960 m 315 1076 q 255 1099 278 1076 q 232 1157 232 1121 q 262 1231 232 1201 q 335 1260 292 1260 q 395 1238 372 1260 q 418 1179 418 1215 q 388 1106 418 1135 q 315 1076 358 1076 m 593 1076 q 533 1099 556 1076 q 510 1157 510 1121 q 540 1231 510 1201 q 613 1260 569 1260 q 673 1238 650 1260 q 696 1179 696 1215 q 666 1106 696 1135 q 593 1076 636 1076 z "},"Ė":{"ha":654,"x_min":44,"x_max":683,"o":"m 683 960 l 644 828 l 336 828 l 297 553 l 568 553 l 550 422 l 279 422 l 239 133 l 571 133 l 551 0 l 44 0 l 181 960 l 683 960 m 457 1069 q 388 1095 413 1069 q 363 1161 363 1121 q 395 1245 363 1213 q 478 1278 428 1278 q 547 1252 521 1278 q 572 1186 572 1226 q 539 1103 572 1136 q 457 1069 506 1069 z "},"Ẹ":{"ha":654,"x_min":44,"x_max":683,"o":"m 683 960 l 644 828 l 336 828 l 297 553 l 568 553 l 550 422 l 279 422 l 239 133 l 571 133 l 551 0 l 44 0 l 181 960 l 683 960 m 279 -94 q 349 -120 324 -94 q 374 -186 374 -146 q 340 -270 374 -237 q 258 -303 307 -303 q 190 -277 215 -303 q 164 -211 164 -251 q 197 -128 164 -161 q 279 -94 231 -94 z "},"È":{"ha":654,"x_min":44,"x_max":683,"o":"m 683 960 l 644 828 l 336 828 l 297 553 l 568 553 l 550 422 l 279 422 l 239 133 l 571 133 l 551 0 l 44 0 l 181 960 l 683 960 m 386 1282 l 629 1126 l 578 1044 l 311 1154 l 386 1282 z "},"Ẻ":{"ha":654,"x_min":44,"x_max":683,"o":"m 683 960 l 644 828 l 336 828 l 297 553 l 568 553 l 550 422 l 279 422 l 239 133 l 571 133 l 551 0 l 44 0 l 181 960 l 683 960 m 411 1181 q 485 1201 461 1186 q 510 1247 510 1215 q 499 1275 510 1265 q 467 1285 488 1285 q 392 1265 431 1285 l 368 1349 q 494 1381 428 1381 q 596 1346 560 1381 q 632 1256 632 1311 q 511 1124 632 1146 l 503 1061 l 397 1061 l 411 1181 z "},"Ȇ":{"ha":654,"x_min":44,"x_max":683,"o":"m 683 960 l 644 828 l 336 828 l 297 553 l 568 553 l 550 422 l 279 422 l 239 133 l 571 133 l 551 0 l 44 0 l 181 960 l 683 960 m 246 1092 q 331 1244 269 1188 q 479 1300 392 1300 q 615 1241 568 1300 q 657 1086 663 1182 l 558 1072 q 468 1176 550 1176 q 342 1067 381 1176 l 246 1092 z "},"Ē":{"ha":654,"x_min":44,"x_max":683,"o":"m 683 960 l 644 828 l 336 828 l 297 553 l 568 553 l 550 422 l 279 422 l 239 133 l 571 133 l 551 0 l 44 0 l 181 960 l 683 960 m 635 1093 l 272 1093 l 290 1215 l 653 1215 l 635 1093 z "},"Ę":{"ha":654,"x_min":44,"x_max":683,"o":"m 336 828 l 297 553 l 568 553 l 550 422 l 279 422 l 239 133 l 571 133 l 551 0 l 503 0 q 366 -85 401 -44 q 331 -167 331 -126 q 389 -215 331 -215 q 464 -207 425 -215 l 439 -321 q 357 -329 401 -329 q 244 -292 286 -329 q 201 -190 201 -254 q 335 0 201 -75 l 44 0 l 181 960 l 683 960 l 644 828 l 336 828 z "},"Ɛ":{"ha":664,"x_min":25,"x_max":713,"o":"m 444 979 q 597 948 532 979 q 713 856 661 917 l 614 765 q 451 846 538 846 q 340 800 381 846 q 300 686 300 754 q 333 602 300 631 q 425 574 365 574 l 508 574 l 469 440 l 407 440 q 260 391 313 440 q 207 249 207 342 q 339 118 207 118 q 536 206 442 118 l 621 110 q 315 -19 497 -19 q 104 50 183 -19 q 25 235 25 119 q 94 427 25 354 q 283 513 164 500 q 165 578 206 531 q 125 696 125 625 q 168 844 125 779 q 285 944 211 908 q 444 979 358 979 z "},"Ǝ":{"ha":651,"x_min":-4,"x_max":636,"o":"m 136 960 l 636 960 l 503 0 l -4 0 l 14 133 l 346 133 l 388 422 l 115 422 l 133 553 l 406 553 l 444 828 l 117 828 l 136 960 z "},"Ʃ":{"ha":631,"x_min":-11,"x_max":674,"o":"m 674 960 l 656 825 l 289 825 l 471 510 l 461 424 l 201 136 l 560 136 l 540 0 l -11 0 l 7 135 l 310 476 l 104 826 l 122 960 l 674 960 z "},"Ɇ":{"ha":654,"x_min":44,"x_max":683,"o":"m 644 828 l 586 828 l 481 553 l 568 553 l 550 422 l 431 422 l 321 133 l 571 133 l 551 0 l 269 0 l 232 -100 l 167 -82 l 197 0 l 44 0 l 181 960 l 564 960 l 596 1044 l 661 1026 l 636 960 l 683 960 l 644 828 m 408 553 l 514 828 l 336 828 l 297 553 l 408 553 m 249 133 l 358 422 l 279 422 l 239 133 l 249 133 z "},"Ẽ":{"ha":654,"x_min":44,"x_max":693,"o":"m 683 960 l 644 828 l 336 828 l 297 553 l 568 553 l 550 422 l 279 422 l 239 133 l 571 133 l 551 0 l 44 0 l 181 960 l 683 960 m 531 1072 q 487 1081 506 1072 q 442 1110 468 1090 q 413 1130 424 1124 q 390 1136 403 1136 q 353 1121 369 1136 q 314 1074 336 1106 l 233 1122 q 308 1223 265 1185 q 397 1261 350 1261 q 445 1251 425 1261 q 488 1222 465 1240 q 538 1197 518 1197 q 574 1212 557 1197 q 611 1257 590 1226 l 693 1210 q 618 1108 660 1144 q 531 1072 576 1072 z "},"Ʒ":{"ha":664,"x_min":-24,"x_max":669,"o":"m 650 828 l 376 556 q 557 490 496 550 q 618 325 618 429 q 569 143 618 221 q 438 23 521 65 q 251 -19 354 -19 q 87 15 153 -19 q -24 115 21 49 l 81 201 q 156 136 118 156 q 250 117 194 117 q 386 172 335 117 q 438 318 438 226 q 401 415 438 386 q 290 443 364 443 l 169 443 l 171 444 l 186 553 l 453 825 l 119 825 l 139 960 l 669 960 l 650 828 z "},"Ǯ":{"ha":664,"x_min":-24,"x_max":669,"o":"m 650 828 l 376 556 q 557 490 496 550 q 618 325 618 429 q 569 143 618 221 q 438 23 521 65 q 251 -19 354 -19 q 87 15 153 -19 q -24 115 21 49 l 81 201 q 156 136 118 156 q 250 117 194 117 q 386 172 335 117 q 438 318 438 226 q 401 415 438 386 q 290 443 364 443 l 169 443 l 171 444 l 186 553 l 453 825 l 119 825 l 139 960 l 669 960 l 650 828 m 603 1285 l 664 1213 l 468 1044 l 364 1044 l 213 1217 l 282 1285 l 428 1169 l 603 1285 z "},"Ƹ":{"ha":667,"x_min":22,"x_max":689,"o":"m 669 825 l 322 825 l 528 550 l 513 443 l 510 444 l 511 443 l 399 443 q 254 390 306 443 q 203 246 203 338 q 235 150 203 183 q 329 117 267 117 q 437 138 389 117 q 533 204 485 160 l 618 111 q 483 13 557 46 q 311 -19 410 -19 q 99 51 176 -19 q 22 242 22 122 q 65 406 22 335 q 182 516 107 476 q 353 556 257 556 l 142 828 l 161 960 l 689 960 l 669 825 z "},"F":{"ha":603,"x_min":44,"x_max":669,"o":"m 669 960 l 632 828 l 336 828 l 294 535 l 554 535 l 535 403 l 276 403 l 219 0 l 44 0 l 181 960 l 669 960 z "},"Ḟ":{"ha":603,"x_min":44,"x_max":669,"o":"m 669 960 l 632 828 l 336 828 l 294 535 l 554 535 l 535 403 l 276 403 l 219 0 l 44 0 l 181 960 l 669 960 m 447 1069 q 378 1095 403 1069 q 353 1161 353 1121 q 385 1245 353 1213 q 468 1278 418 1278 q 537 1252 511 1278 q 563 1186 563 1226 q 529 1103 563 1136 q 447 1069 496 1069 z "},"Ƒ":{"ha":603,"x_min":-206,"x_max":669,"o":"m 336 828 l 294 535 l 554 535 l 535 403 l 276 403 l 219 0 l 208 -74 q 124 -243 192 -185 q -44 -301 57 -301 q -137 -285 -99 -301 q -206 -244 -175 -269 l -135 -140 q -94 -162 -111 -156 q -53 -168 -78 -168 q 6 -144 -17 -168 q 35 -78 29 -121 l 44 0 l 181 960 l 669 960 l 632 828 l 336 828 z "},"G":{"ha":800,"x_min":60,"x_max":803,"o":"m 538 979 q 803 865 699 979 l 701 775 q 623 830 660 814 q 535 846 586 846 q 366 767 432 846 q 269 567 300 688 q 239 321 239 447 q 277 165 239 214 q 390 115 315 115 q 532 154 464 115 l 568 410 l 444 410 l 446 542 l 756 542 l 692 76 q 378 -19 544 -19 q 141 72 222 -19 q 60 340 60 163 q 113 647 60 500 q 273 886 165 793 q 538 979 381 979 z "},"Ǵ":{"ha":800,"x_min":60,"x_max":803,"o":"m 538 979 q 803 865 699 979 l 701 775 q 623 830 660 814 q 535 846 586 846 q 366 767 432 846 q 269 567 300 688 q 239 321 239 447 q 277 165 239 214 q 390 115 315 115 q 532 154 464 115 l 568 410 l 444 410 l 446 542 l 756 542 l 692 76 q 378 -19 544 -19 q 141 72 222 -19 q 60 340 60 163 q 113 647 60 500 q 273 886 165 793 q 538 979 381 979 m 672 1285 l 731 1154 l 433 1043 l 394 1128 l 672 1285 z "},"Ɣ":{"ha":708,"x_min":79,"x_max":796,"o":"m 410 107 q 449 -12 436 36 q 461 -108 461 -60 q 409 -251 461 -201 q 265 -301 357 -301 q 150 -262 190 -301 q 110 -160 110 -224 q 138 -40 110 -101 q 228 111 165 21 l 79 960 l 260 960 l 336 229 l 615 960 l 796 960 l 410 107 m 325 -112 q 307 13 325 -62 q 246 -144 246 -89 q 276 -181 246 -181 q 313 -162 300 -181 q 325 -112 325 -144 z "},"Ğ":{"ha":800,"x_min":60,"x_max":803,"o":"m 538 979 q 803 865 699 979 l 701 775 q 623 830 660 814 q 535 846 586 846 q 366 767 432 846 q 269 567 300 688 q 239 321 239 447 q 277 165 239 214 q 390 115 315 115 q 532 154 464 115 l 568 410 l 444 410 l 446 542 l 756 542 l 692 76 q 378 -19 544 -19 q 141 72 222 -19 q 60 340 60 163 q 113 647 60 500 q 273 886 165 793 q 538 979 381 979 m 543 1049 q 407 1106 454 1049 q 364 1247 360 1163 l 460 1261 q 550 1171 471 1171 q 624 1197 593 1171 q 672 1267 654 1224 l 769 1240 q 690 1102 750 1156 q 543 1049 631 1049 z "},"Ǧ":{"ha":800,"x_min":60,"x_max":803,"o":"m 538 979 q 803 865 699 979 l 701 775 q 623 830 660 814 q 535 846 586 846 q 366 767 432 846 q 269 567 300 688 q 239 321 239 447 q 277 165 239 214 q 390 115 315 115 q 532 154 464 115 l 568 410 l 444 410 l 446 542 l 756 542 l 692 76 q 378 -19 544 -19 q 141 72 222 -19 q 60 340 60 163 q 113 647 60 500 q 273 886 165 793 q 538 979 381 979 m 729 1285 l 790 1213 l 594 1044 l 490 1044 l 339 1217 l 408 1285 l 554 1169 l 729 1285 z "},"Ĝ":{"ha":800,"x_min":60,"x_max":803,"o":"m 538 979 q 803 865 699 979 l 701 775 q 623 830 660 814 q 535 846 586 846 q 366 767 432 846 q 269 567 300 688 q 239 321 239 447 q 277 165 239 214 q 390 115 315 115 q 532 154 464 115 l 568 410 l 444 410 l 446 542 l 756 542 l 692 76 q 378 -19 544 -19 q 141 72 222 -19 q 60 340 60 163 q 113 647 60 500 q 273 886 165 793 q 538 979 381 979 m 381 1051 l 319 1125 l 517 1292 l 621 1292 l 771 1121 l 703 1051 l 556 1167 l 381 1051 z "},"Ģ":{"ha":800,"x_min":60,"x_max":803,"o":"m 538 979 q 803 865 699 979 l 701 775 q 623 830 660 814 q 535 846 586 846 q 366 767 432 846 q 269 567 300 688 q 239 321 239 447 q 277 165 239 214 q 390 115 315 115 q 532 154 464 115 l 568 410 l 444 410 l 446 542 l 756 542 l 692 76 q 378 -19 544 -19 q 141 72 222 -19 q 60 340 60 163 q 113 647 60 500 q 273 886 165 793 q 538 979 381 979 m 361 -101 q 422 -125 399 -101 q 444 -182 444 -149 q 434 -235 444 -211 q 394 -308 424 -260 l 322 -429 l 236 -429 l 296 -267 q 264 -201 264 -240 q 292 -130 264 -158 q 361 -101 321 -101 z "},"Ġ":{"ha":800,"x_min":60,"x_max":803,"o":"m 538 979 q 803 865 699 979 l 701 775 q 623 830 660 814 q 535 846 586 846 q 366 767 432 846 q 269 567 300 688 q 239 321 239 447 q 277 165 239 214 q 390 115 315 115 q 532 154 464 115 l 568 410 l 444 410 l 446 542 l 756 542 l 692 76 q 378 -19 544 -19 q 141 72 222 -19 q 60 340 60 163 q 113 647 60 500 q 273 886 165 793 q 538 979 381 979 m 553 1069 q 483 1095 508 1069 q 458 1161 458 1121 q 491 1245 458 1213 q 574 1278 524 1278 q 642 1252 617 1278 q 668 1186 668 1226 q 635 1103 668 1136 q 553 1069 601 1069 z "},"Ɠ":{"ha":754,"x_min":60,"x_max":1043,"o":"m 888 1168 q 1043 1114 975 1168 l 978 1013 q 938 1031 957 1025 q 896 1038 919 1038 q 813 946 825 1038 l 803 865 l 713 783 q 627 831 669 815 q 535 846 585 846 q 366 767 432 846 q 269 567 300 688 q 239 321 239 447 q 277 165 239 214 q 392 115 315 115 q 532 154 464 115 l 568 410 l 444 410 l 446 542 l 756 542 l 692 76 q 378 -19 544 -19 q 141 72 222 -19 q 60 340 60 163 q 113 645 60 499 q 270 885 165 792 q 525 979 375 979 q 661 949 606 979 l 664 969 q 735 1115 678 1063 q 888 1168 792 1168 z "},"Ɂ":{"ha":619,"x_min":81,"x_max":642,"o":"m 200 450 l 276 475 q 413 560 367 503 q 458 713 458 618 q 430 811 458 776 q 344 846 401 846 q 252 824 297 846 q 156 761 207 803 l 81 860 q 367 979 211 979 q 567 910 493 979 q 642 722 642 840 q 580 514 642 593 q 400 396 518 435 l 365 385 l 311 0 l 138 0 l 200 450 z "},"Ǥ":{"ha":822,"x_min":60,"x_max":817,"o":"m 801 240 l 714 240 l 692 76 q 378 -19 544 -19 q 141 72 222 -19 q 60 340 60 163 q 113 647 60 500 q 273 886 165 793 q 538 979 381 979 q 803 865 699 979 l 700 775 q 623 830 660 814 q 535 846 586 846 q 366 767 432 846 q 269 567 300 688 q 239 321 239 447 q 277 165 239 214 q 390 115 315 115 q 536 156 468 115 l 549 240 l 422 240 l 439 357 l 564 357 l 575 432 l 446 432 l 446 551 l 757 551 l 731 357 l 817 357 l 801 240 z "},"Ȝ":{"ha":632,"x_min":1,"x_max":622,"o":"m 371 979 q 556 917 489 979 q 622 754 622 856 q 565 588 622 653 q 397 497 507 524 q 532 442 483 489 q 581 313 581 396 q 418 17 581 132 q 1 -149 256 -99 l 6 -15 q 296 111 194 36 q 397 311 397 186 q 362 399 397 371 q 253 426 326 426 l 167 426 l 206 560 l 274 560 q 395 608 349 560 q 442 736 442 656 q 342 846 442 846 q 247 825 294 846 q 146 763 200 804 l 75 860 q 371 979 211 979 z "},"H":{"ha":832,"x_min":44,"x_max":818,"o":"m 219 0 l 44 0 l 181 960 l 354 960 l 300 572 l 589 572 l 644 960 l 818 960 l 683 0 l 510 0 l 569 431 l 281 431 l 219 0 z "},"Ħ":{"ha":844,"x_min":50,"x_max":878,"o":"m 878 811 l 861 700 l 788 700 l 689 0 l 515 0 l 575 431 l 286 431 l 225 0 l 50 0 l 149 700 l 75 700 l 90 811 l 165 811 l 186 960 l 360 960 l 339 811 l 629 811 l 650 960 l 824 960 l 803 811 l 878 811 m 594 572 l 613 700 l 324 700 l 306 572 l 594 572 z "},"Ȟ":{"ha":832,"x_min":44,"x_max":818,"o":"m 219 0 l 44 0 l 181 960 l 354 960 l 300 572 l 589 572 l 644 960 l 818 960 l 683 0 l 510 0 l 569 431 l 281 431 l 219 0 m 697 1285 l 758 1213 l 563 1044 l 458 1044 l 307 1217 l 376 1285 l 522 1169 l 697 1285 z "},"Ĥ":{"ha":832,"x_min":44,"x_max":818,"o":"m 219 0 l 44 0 l 181 960 l 354 960 l 300 572 l 589 572 l 644 960 l 818 960 l 683 0 l 510 0 l 569 431 l 281 431 l 219 0 m 349 1051 l 288 1125 l 485 1292 l 589 1292 l 739 1121 l 671 1051 l 524 1167 l 349 1051 z "},"Ḥ":{"ha":832,"x_min":44,"x_max":818,"o":"m 219 0 l 44 0 l 181 960 l 354 960 l 300 572 l 589 572 l 644 960 l 818 960 l 683 0 l 510 0 l 569 431 l 281 431 l 219 0 m 350 -94 q 419 -120 394 -94 q 444 -186 444 -146 q 411 -270 444 -237 q 329 -303 378 -303 q 260 -277 286 -303 q 235 -211 235 -251 q 268 -128 235 -161 q 350 -94 301 -94 z "},"Ɦ":{"ha":983,"x_min":65,"x_max":969,"o":"m 969 960 l 835 0 l 661 0 l 721 431 l 432 431 l 371 0 l 196 0 l 314 829 l 279 829 q 224 807 243 829 q 206 743 206 785 q 218 664 206 711 l 99 617 q 65 749 65 683 q 126 903 65 846 q 292 960 186 960 l 506 960 l 451 572 l 740 572 l 796 960 l 969 960 z "},"Ɥ":{"ha":768,"x_min":65,"x_max":754,"o":"m 754 960 l 619 0 l 446 0 l 497 368 q 397 311 446 329 q 290 293 349 293 q 125 358 185 293 q 65 531 65 422 q 69 586 65 557 l 122 960 l 293 960 l 242 585 q 239 544 239 557 q 350 431 239 431 q 517 503 444 431 l 581 960 l 754 960 z "},"Ƕ":{"ha":1186,"x_min":44,"x_max":1135,"o":"m 769 -19 q 597 41 654 -19 q 539 190 539 101 q 542 225 539 203 l 569 431 l 281 431 l 219 0 l 44 0 l 181 960 l 354 960 l 300 572 l 589 572 l 644 960 l 818 960 l 715 225 q 713 193 713 203 q 783 110 713 110 q 931 260 890 110 q 971 596 971 410 q 965 735 971 679 l 1125 735 q 1135 583 1135 650 q 1053 144 1135 308 q 769 -19 971 -19 z "},"I":{"ha":368,"x_min":44,"x_max":354,"o":"m 354 960 l 219 0 l 44 0 l 181 960 l 354 960 z "},"Ĳ":{"ha":760,"x_min":44,"x_max":750,"o":"m 354 960 l 219 0 l 44 0 l 181 960 l 354 960 m 635 132 q 578 -40 619 26 q 476 -145 536 -107 q 329 -212 415 -183 l 296 -87 q 388 -31 356 -61 q 437 40 421 -1 q 461 147 453 81 l 576 960 l 750 960 l 635 132 z "},"Í":{"ha":368,"x_min":44,"x_max":467,"o":"m 354 960 l 219 0 l 44 0 l 181 960 l 354 960 m 408 1285 l 467 1154 l 169 1043 l 131 1128 l 408 1285 z "},"Ĭ":{"ha":368,"x_min":44,"x_max":506,"o":"m 354 960 l 219 0 l 44 0 l 181 960 l 354 960 m 279 1049 q 143 1106 190 1049 q 100 1247 96 1163 l 196 1261 q 286 1171 207 1171 q 360 1197 329 1171 q 408 1267 390 1224 l 506 1240 q 426 1102 486 1156 q 279 1049 367 1049 z "},"Ǐ":{"ha":368,"x_min":44,"x_max":526,"o":"m 354 960 l 219 0 l 44 0 l 181 960 l 354 960 m 465 1285 l 526 1213 l 331 1044 l 226 1044 l 75 1217 l 144 1285 l 290 1169 l 465 1285 z "},"Î":{"ha":368,"x_min":44,"x_max":507,"o":"m 354 960 l 219 0 l 44 0 l 181 960 l 354 960 m 117 1051 l 56 1125 l 253 1292 l 357 1292 l 507 1121 l 439 1051 l 292 1167 l 117 1051 z "},"Ȉ":{"ha":368,"x_min":26,"x_max":435,"o":"m 354 960 l 219 0 l 44 0 l 181 960 l 354 960 m 158 1349 l 240 1090 l 140 1050 l 26 1289 l 158 1349 m 364 1349 l 435 1093 l 336 1057 l 231 1292 l 364 1349 z "},"Ï":{"ha":368,"x_min":44,"x_max":528,"o":"m 354 960 l 219 0 l 44 0 l 181 960 l 354 960 m 147 1076 q 87 1099 110 1076 q 64 1157 64 1121 q 94 1231 64 1201 q 167 1260 124 1260 q 227 1238 204 1260 q 250 1179 250 1215 q 220 1106 250 1135 q 147 1076 190 1076 m 425 1076 q 365 1099 388 1076 q 342 1157 342 1121 q 372 1231 342 1201 q 444 1260 401 1260 q 505 1238 482 1260 q 528 1179 528 1215 q 498 1106 528 1135 q 425 1076 468 1076 z "},"Ḯ":{"ha":368,"x_min":44,"x_max":525,"o":"m 354 960 l 219 0 l 44 0 l 181 960 l 354 960 m 425 1463 l 510 1372 l 297 1183 l 236 1240 l 425 1463 m 136 1039 q 76 1062 99 1039 q 53 1121 53 1085 q 83 1194 53 1165 q 156 1224 113 1224 q 216 1201 193 1224 q 239 1143 239 1179 q 209 1069 239 1099 q 136 1039 179 1039 m 422 1039 q 362 1062 385 1039 q 339 1121 339 1085 q 369 1194 339 1165 q 442 1224 399 1224 q 502 1201 479 1224 q 525 1143 525 1179 q 495 1069 525 1099 q 422 1039 465 1039 z "},"İ":{"ha":368,"x_min":44,"x_max":404,"o":"m 354 960 l 219 0 l 44 0 l 181 960 l 354 960 m 289 1069 q 219 1095 244 1069 q 194 1161 194 1121 q 227 1245 194 1213 q 310 1278 260 1278 q 378 1252 353 1278 q 404 1186 404 1226 q 371 1103 404 1136 q 289 1069 338 1069 z "},"Ị":{"ha":368,"x_min":-3,"x_max":354,"o":"m 354 960 l 219 0 l 44 0 l 181 960 l 354 960 m 113 -94 q 182 -120 157 -94 q 207 -186 207 -146 q 174 -270 207 -237 q 92 -303 140 -303 q 23 -277 49 -303 q -3 -211 -3 -251 q 31 -128 -3 -161 q 113 -94 64 -94 z "},"Ì":{"ha":368,"x_min":44,"x_max":461,"o":"m 354 960 l 219 0 l 44 0 l 181 960 l 354 960 m 218 1282 l 461 1126 l 410 1044 l 143 1154 l 218 1282 z "},"Ỉ":{"ha":368,"x_min":44,"x_max":464,"o":"m 354 960 l 219 0 l 44 0 l 181 960 l 354 960 m 243 1181 q 317 1201 293 1186 q 342 1247 342 1215 q 331 1275 342 1265 q 299 1285 319 1285 q 224 1265 263 1285 l 200 1349 q 326 1381 260 1381 q 428 1346 392 1381 q 464 1256 464 1311 q 343 1124 464 1146 l 335 1061 l 229 1061 l 243 1181 z "},"Ȋ":{"ha":368,"x_min":44,"x_max":489,"o":"m 354 960 l 219 0 l 44 0 l 181 960 l 354 960 m 78 1092 q 163 1244 101 1188 q 311 1300 224 1300 q 447 1241 400 1300 q 489 1086 494 1182 l 390 1072 q 300 1176 382 1176 q 174 1067 213 1176 l 78 1092 z "},"Ī":{"ha":368,"x_min":44,"x_max":485,"o":"m 354 960 l 219 0 l 44 0 l 181 960 l 354 960 m 467 1093 l 104 1093 l 122 1215 l 485 1215 l 467 1093 z "},"Į":{"ha":368,"x_min":-122,"x_max":354,"o":"m 354 960 l 219 0 l 179 0 q 42 -85 78 -44 q 7 -167 7 -126 q 65 -215 7 -215 q 140 -207 101 -215 l 115 -321 q 33 -329 78 -329 q -80 -292 -37 -329 q -122 -190 -122 -254 q 47 18 -122 -60 l 181 960 l 354 960 z "},"Ɩ":{"ha":467,"x_min":60,"x_max":428,"o":"m 428 33 q 260 -19 356 -19 q 113 28 165 -19 q 60 168 60 76 q 63 214 60 197 l 71 282 l 168 960 l 342 960 l 246 282 l 235 197 q 233 175 233 189 q 289 114 233 114 q 333 120 315 114 q 381 142 351 126 l 428 33 z "},"Ɨ":{"ha":406,"x_min":22,"x_max":419,"o":"m 419 565 l 401 433 l 301 433 l 240 0 l 65 0 l 126 433 l 22 433 l 40 565 l 146 565 l 201 960 l 375 960 l 319 565 l 419 565 z "},"Ĩ":{"ha":368,"x_min":44,"x_max":525,"o":"m 354 960 l 219 0 l 44 0 l 181 960 l 354 960 m 363 1072 q 319 1081 338 1072 q 274 1110 300 1090 q 245 1130 256 1124 q 222 1136 235 1136 q 185 1121 201 1136 q 146 1074 168 1106 l 65 1122 q 140 1223 97 1185 q 229 1261 182 1261 q 277 1251 257 1261 q 319 1222 297 1240 q 369 1197 350 1197 q 406 1212 389 1197 q 443 1257 422 1226 l 525 1210 q 450 1108 492 1144 q 363 1072 408 1072 z "},"J":{"ha":392,"x_min":-72,"x_max":382,"o":"m 267 132 q 210 -40 251 26 q 108 -145 168 -107 q -39 -212 47 -183 l -72 -87 q 20 -31 -12 -61 q 69 40 53 -1 q 93 147 85 81 l 208 960 l 382 960 l 267 132 z "},"Ĵ":{"ha":392,"x_min":-72,"x_max":536,"o":"m 267 132 q 210 -40 251 26 q 108 -145 168 -107 q -39 -212 47 -183 l -72 -87 q 20 -31 -12 -61 q 69 40 53 -1 q 93 147 85 81 l 208 960 l 382 960 l 267 132 m 146 1051 l 85 1125 l 282 1292 l 386 1292 l 536 1121 l 468 1051 l 321 1167 l 146 1051 z "},"Ʝ":{"ha":442,"x_min":-167,"x_max":429,"o":"m 293 -12 q 415 -67 347 -28 l 371 -144 q 275 -106 335 -125 q 181 -252 246 -203 q 8 -301 117 -301 q -121 -262 -75 -301 q -167 -154 -167 -224 q -107 -24 -167 -72 q 43 24 -47 24 q 122 19 96 24 l 254 960 l 429 960 l 293 -12 m 4 -201 q 74 -171 51 -201 q 110 -72 97 -140 q 40 -68 82 -68 q -28 -90 -4 -68 q -51 -147 -51 -112 q 4 -201 -51 -201 z "},"Ɉ":{"ha":411,"x_min":-69,"x_max":426,"o":"m 408 408 l 308 408 l 269 132 q 213 -40 254 26 q 110 -145 171 -107 q -36 -212 50 -183 l -69 -87 q 23 -31 -10 -61 q 72 40 56 -1 q 96 147 88 81 l 133 408 l 29 408 l 47 544 l 153 544 l 211 960 l 385 960 l 326 544 l 426 544 l 408 408 z "},"K":{"ha":771,"x_min":44,"x_max":836,"o":"m 44 0 l 181 960 l 356 960 l 219 0 l 44 0 m 528 0 l 299 513 l 650 960 l 836 960 l 482 513 l 724 0 l 528 0 z "},"Ǩ":{"ha":771,"x_min":44,"x_max":836,"o":"m 44 0 l 181 960 l 356 960 l 219 0 l 44 0 m 528 0 l 299 513 l 650 960 l 836 960 l 482 513 l 724 0 l 528 0 m 689 1285 l 750 1213 l 554 1044 l 450 1044 l 299 1217 l 368 1285 l 514 1169 l 689 1285 z "},"Ķ":{"ha":771,"x_min":44,"x_max":836,"o":"m 44 0 l 181 960 l 356 960 l 219 0 l 44 0 m 528 0 l 299 513 l 650 960 l 836 960 l 482 513 l 724 0 l 528 0 m 333 -101 q 394 -125 371 -101 q 417 -182 417 -149 q 406 -235 417 -211 q 367 -308 396 -260 l 294 -429 l 208 -429 l 268 -267 q 236 -201 236 -240 q 265 -130 236 -158 q 333 -101 293 -101 z "},"Ƙ":{"ha":806,"x_min":44,"x_max":889,"o":"m 299 513 l 543 850 q 639 950 593 921 q 753 979 685 979 q 829 965 797 979 q 889 924 861 950 l 817 829 q 764 847 790 847 q 722 833 740 847 q 674 781 703 819 l 482 514 l 724 0 l 526 0 l 299 513 m 44 0 l 181 960 l 356 960 l 219 0 l 44 0 z "},"L":{"ha":624,"x_min":44,"x_max":579,"o":"m 354 960 l 240 146 l 579 146 l 540 0 l 44 0 l 181 960 l 354 960 z "},"Ǉ":{"ha":986,"x_min":44,"x_max":976,"o":"m 354 960 l 240 146 l 579 146 l 540 0 l 44 0 l 181 960 l 354 960 m 861 132 q 804 -40 846 26 q 702 -145 763 -107 q 556 -212 642 -183 l 522 -87 q 615 -31 582 -61 q 663 40 647 -1 q 688 147 679 81 l 803 960 l 976 960 l 861 132 z "},"Ĺ":{"ha":624,"x_min":44,"x_max":579,"o":"m 354 960 l 240 146 l 579 146 l 540 0 l 44 0 l 181 960 l 354 960 m 408 1285 l 467 1154 l 169 1043 l 131 1128 l 408 1285 z "},"Ƚ":{"ha":638,"x_min":24,"x_max":594,"o":"m 256 146 l 594 146 l 556 0 l 60 0 l 122 436 l 24 436 l 42 572 l 140 572 l 196 960 l 369 960 l 315 572 l 421 572 l 403 436 l 296 436 l 256 146 z "},"Ɬ":{"ha":731,"x_min":26,"x_max":686,"o":"m 686 146 l 647 0 l 151 0 l 201 356 q 71 400 115 360 q 26 510 26 440 q 75 632 26 586 q 199 678 124 678 q 247 672 231 678 l 288 960 l 461 960 l 392 465 q 474 473 433 467 q 528 481 514 479 l 533 379 q 378 360 444 363 l 347 146 l 686 146 m 147 517 q 217 464 147 464 l 233 575 q 203 579 221 579 q 162 563 176 579 q 147 517 147 546 z "},"Ľ":{"ha":624,"x_min":44,"x_max":579,"o":"m 354 960 l 240 146 l 579 146 l 540 0 l 44 0 l 181 960 l 354 960 m 435 976 l 565 960 l 468 683 l 379 694 l 435 976 z "},"Ḽ":{"ha":624,"x_min":29,"x_max":579,"o":"m 354 960 l 240 146 l 579 146 l 540 0 l 44 0 l 181 960 l 354 960 m 90 -337 l 29 -264 l 228 -92 l 332 -92 l 482 -268 l 410 -337 l 267 -217 l 90 -337 z "},"Ļ":{"ha":624,"x_min":44,"x_max":579,"o":"m 354 960 l 240 146 l 579 146 l 540 0 l 44 0 l 181 960 l 354 960 m 279 -101 q 340 -125 317 -101 q 363 -182 363 -149 q 352 -235 363 -211 q 313 -308 342 -260 l 240 -429 l 154 -429 l 214 -267 q 182 -201 182 -240 q 210 -130 182 -158 q 279 -101 239 -101 z "},"Ŀ":{"ha":624,"x_min":44,"x_max":618,"o":"m 354 960 l 240 146 l 579 146 l 540 0 l 44 0 l 181 960 l 354 960 m 503 440 q 433 466 458 440 q 408 532 408 492 q 441 616 408 583 q 524 649 474 649 q 592 623 567 649 q 618 557 618 597 q 585 474 618 507 q 503 440 551 440 z "},"Ḷ":{"ha":624,"x_min":44,"x_max":579,"o":"m 354 960 l 240 146 l 579 146 l 540 0 l 44 0 l 181 960 l 354 960 m 274 -94 q 343 -120 318 -94 q 368 -186 368 -146 q 335 -270 368 -237 q 253 -303 301 -303 q 184 -277 210 -303 q 158 -211 158 -251 q 192 -128 158 -161 q 274 -94 225 -94 z "},"ǈ":{"ha":954,"x_min":44,"x_max":972,"o":"m 354 960 l 240 146 l 579 146 l 540 0 l 44 0 l 181 960 l 354 960 m 485 -178 q 569 -129 538 -154 q 621 -60 600 -104 q 651 56 642 -17 l 747 735 l 915 735 l 819 54 q 766 -121 804 -54 q 672 -226 728 -187 q 526 -301 615 -265 l 485 -178 m 857 894 q 788 920 813 894 q 763 986 763 946 q 795 1070 763 1038 q 878 1103 828 1103 q 947 1077 921 1103 q 972 1011 972 1051 q 939 928 972 961 q 857 894 906 894 z "},"Ł":{"ha":658,"x_min":18,"x_max":614,"o":"m 275 146 l 614 146 l 575 0 l 79 0 l 126 332 l 67 294 l 18 390 l 146 469 l 215 960 l 389 960 l 338 588 l 525 704 l 574 610 l 318 451 l 275 146 z "},"M":{"ha":985,"x_min":8,"x_max":939,"o":"m 872 0 l 703 0 l 738 404 q 783 806 754 608 l 539 106 l 371 106 l 308 804 q 251 397 293 626 l 178 0 l 8 0 l 211 960 l 425 960 l 479 276 l 707 960 l 939 960 l 872 0 z "},"Ḿ":{"ha":985,"x_min":8,"x_max":939,"o":"m 872 0 l 703 0 l 738 404 q 783 806 754 608 l 539 106 l 371 106 l 308 804 q 251 397 293 626 l 178 0 l 8 0 l 211 960 l 425 960 l 479 276 l 707 960 l 939 960 l 872 0 m 708 1285 l 767 1154 l 469 1043 l 431 1128 l 708 1285 z "},"Ṁ":{"ha":985,"x_min":8,"x_max":939,"o":"m 872 0 l 703 0 l 738 404 q 783 806 754 608 l 539 106 l 371 106 l 308 804 q 251 397 293 626 l 178 0 l 8 0 l 211 960 l 425 960 l 479 276 l 707 960 l 939 960 l 872 0 m 589 1069 q 519 1095 544 1069 q 494 1161 494 1121 q 527 1245 494 1213 q 610 1278 560 1278 q 678 1252 653 1278 q 704 1186 704 1226 q 671 1103 704 1136 q 589 1069 638 1069 z "},"Ɯ":{"ha":1140,"x_min":61,"x_max":1126,"o":"m 1126 960 l 992 0 l 839 0 l 840 94 q 741 8 792 35 q 633 -19 690 -19 q 526 14 569 -19 q 465 106 483 47 q 242 -19 368 -19 q 108 38 156 -19 q 61 186 61 96 q 65 236 61 211 l 167 960 l 342 960 l 239 236 q 236 204 236 214 q 253 140 236 163 q 304 117 271 117 q 380 143 346 117 q 457 228 414 169 l 458 242 l 560 960 l 733 960 l 633 242 q 631 204 631 214 q 647 140 631 163 q 697 117 664 117 q 773 144 738 117 q 849 231 808 171 l 951 960 l 1126 960 z "},"N":{"ha":832,"x_min":46,"x_max":818,"o":"m 683 0 l 463 0 l 283 811 q 279 615 285 711 q 256 393 274 519 l 203 0 l 46 0 l 181 960 l 400 960 l 581 149 l 581 213 q 585 363 581 296 q 600 508 589 429 l 661 960 l 818 960 l 683 0 z "},"Ǌ":{"ha":1224,"x_min":46,"x_max":1214,"o":"m 683 0 l 463 0 l 283 811 q 279 615 285 711 q 256 393 274 519 l 203 0 l 46 0 l 181 960 l 400 960 l 581 149 l 581 213 q 585 363 581 296 q 600 508 589 429 l 661 960 l 818 960 l 683 0 m 1099 132 q 1042 -40 1083 26 q 940 -145 1000 -107 q 793 -212 879 -183 l 760 -87 q 852 -31 819 -61 q 901 40 885 -1 q 925 147 917 81 l 1040 960 l 1214 960 l 1099 132 z "},"Ń":{"ha":832,"x_min":46,"x_max":818,"o":"m 683 0 l 463 0 l 283 811 q 279 615 285 711 q 256 393 274 519 l 203 0 l 46 0 l 181 960 l 400 960 l 581 149 l 581 213 q 585 363 581 296 q 600 508 589 429 l 661 960 l 818 960 l 683 0 m 649 1285 l 707 1154 l 410 1043 l 371 1128 l 649 1285 z "},"Ň":{"ha":832,"x_min":46,"x_max":818,"o":"m 683 0 l 463 0 l 283 811 q 279 615 285 711 q 256 393 274 519 l 203 0 l 46 0 l 181 960 l 400 960 l 581 149 l 581 213 q 585 363 581 296 q 600 508 589 429 l 661 960 l 818 960 l 683 0 m 706 1285 l 767 1213 l 571 1044 l 467 1044 l 315 1217 l 385 1285 l 531 1169 l 706 1285 z "},"Ṋ":{"ha":832,"x_min":46,"x_max":818,"o":"m 683 0 l 463 0 l 283 811 q 279 615 285 711 q 256 393 274 519 l 203 0 l 46 0 l 181 960 l 400 960 l 581 149 l 581 213 q 585 363 581 296 q 600 508 589 429 l 661 960 l 818 960 l 683 0 m 163 -337 l 101 -264 l 300 -92 l 404 -92 l 554 -268 l 482 -337 l 339 -217 l 163 -337 z "},"Ņ":{"ha":832,"x_min":46,"x_max":818,"o":"m 683 0 l 463 0 l 283 811 q 279 615 285 711 q 256 393 274 519 l 203 0 l 46 0 l 181 960 l 400 960 l 581 149 l 581 213 q 585 363 581 296 q 600 508 589 429 l 661 960 l 818 960 l 683 0 m 351 -101 q 412 -125 389 -101 q 435 -182 435 -149 q 424 -235 435 -211 q 385 -308 414 -260 l 313 -429 l 226 -429 l 286 -267 q 254 -201 254 -240 q 283 -130 254 -158 q 351 -101 311 -101 z "},"Ṅ":{"ha":832,"x_min":46,"x_max":818,"o":"m 683 0 l 463 0 l 283 811 q 279 615 285 711 q 256 393 274 519 l 203 0 l 46 0 l 181 960 l 400 960 l 581 149 l 581 213 q 585 363 581 296 q 600 508 589 429 l 661 960 l 818 960 l 683 0 m 529 1069 q 460 1095 485 1069 q 435 1161 435 1121 q 467 1245 435 1213 q 550 1278 500 1278 q 619 1252 593 1278 q 644 1186 644 1226 q 611 1103 644 1136 q 529 1069 578 1069 z "},"Ṇ":{"ha":832,"x_min":46,"x_max":818,"o":"m 683 0 l 463 0 l 283 811 q 279 615 285 711 q 256 393 274 519 l 203 0 l 46 0 l 181 960 l 400 960 l 581 149 l 581 213 q 585 363 581 296 q 600 508 589 429 l 661 960 l 818 960 l 683 0 m 346 -94 q 415 -120 390 -94 q 440 -186 440 -146 q 407 -270 440 -237 q 325 -303 374 -303 q 256 -277 282 -303 q 231 -211 231 -251 q 264 -128 231 -161 q 346 -94 297 -94 z "},"Ǹ":{"ha":832,"x_min":46,"x_max":818,"o":"m 683 0 l 463 0 l 283 811 q 279 615 285 711 q 256 393 274 519 l 203 0 l 46 0 l 181 960 l 400 960 l 581 149 l 581 213 q 585 363 581 296 q 600 508 589 429 l 661 960 l 818 960 l 683 0 m 458 1282 l 701 1126 l 650 1044 l 383 1154 l 458 1282 z "},"Ŋ":{"ha":832,"x_min":46,"x_max":818,"o":"m 818 960 l 683 0 l 672 -74 q 588 -243 656 -185 q 419 -301 521 -301 q 327 -285 365 -301 q 258 -244 289 -269 l 329 -140 q 369 -162 353 -156 q 411 -168 386 -168 q 470 -144 447 -168 q 499 -78 493 -121 l 508 0 l 463 0 l 283 811 q 279 615 285 711 q 256 393 274 519 l 203 0 l 46 0 l 181 960 l 400 960 l 581 149 l 581 213 q 585 363 581 296 q 600 508 589 429 l 661 960 l 818 960 z "},"Ɲ":{"ha":832,"x_min":-206,"x_max":818,"o":"m 818 960 l 683 0 l 463 0 l 283 811 q 279 615 285 711 q 256 393 274 519 l 203 0 l 190 -79 q 112 -245 174 -189 q -47 -301 50 -301 q -206 -243 -139 -301 l -135 -146 q -94 -166 -111 -160 q -53 -172 -76 -172 q 6 -149 -17 -172 q 35 -78 29 -125 l 46 0 l 181 960 l 400 960 l 581 149 l 581 213 q 585 363 581 296 q 600 508 589 429 l 661 960 l 818 960 z "},"ǋ":{"ha":1183,"x_min":46,"x_max":1201,"o":"m 683 0 l 463 0 l 283 811 q 279 615 285 711 q 256 393 274 519 l 203 0 l 46 0 l 181 960 l 400 960 l 581 149 l 581 213 q 585 363 581 296 q 600 508 589 429 l 661 960 l 818 960 l 683 0 m 714 -178 q 798 -129 767 -154 q 850 -60 829 -104 q 881 56 871 -17 l 976 735 l 1144 735 l 1049 54 q 995 -121 1033 -54 q 901 -226 957 -187 q 756 -301 844 -265 l 714 -178 m 1086 894 q 1017 920 1042 894 q 992 986 992 946 q 1024 1070 992 1038 q 1107 1103 1057 1103 q 1176 1077 1150 1103 q 1201 1011 1201 1051 q 1168 928 1201 961 q 1086 894 1135 894 z "},"Ƞ":{"ha":818,"x_min":44,"x_max":781,"o":"m 576 979 q 728 921 675 979 q 781 771 781 863 q 778 724 781 739 l 638 -286 l 464 -286 l 603 711 q 606 747 606 736 q 519 843 606 843 q 424 817 469 843 q 325 740 379 792 l 219 0 l 44 0 l 181 960 l 332 960 l 332 869 q 449 951 390 924 q 576 979 508 979 z "},"Ñ":{"ha":832,"x_min":46,"x_max":818,"o":"m 683 0 l 463 0 l 283 811 q 279 615 285 711 q 256 393 274 519 l 203 0 l 46 0 l 181 960 l 400 960 l 581 149 l 581 213 q 585 363 581 296 q 600 508 589 429 l 661 960 l 818 960 l 683 0 m 603 1072 q 559 1081 578 1072 q 514 1110 540 1090 q 485 1130 496 1124 q 463 1136 475 1136 q 425 1121 442 1136 q 386 1074 408 1106 l 306 1122 q 380 1223 338 1185 q 469 1261 422 1261 q 517 1251 497 1261 q 560 1222 538 1240 q 610 1197 590 1197 q 646 1212 629 1197 q 683 1257 663 1226 l 765 1210 q 690 1108 732 1144 q 603 1072 649 1072 z "},"O":{"ha":867,"x_min":61,"x_max":836,"o":"m 519 979 q 753 883 671 979 q 836 610 836 788 q 790 313 836 457 q 640 74 743 168 q 379 -21 538 -21 q 144 75 228 -21 q 61 349 61 171 q 108 643 61 499 q 258 883 156 788 q 519 979 361 979 m 508 844 q 351 761 411 844 q 266 560 292 678 q 240 332 240 442 q 278 167 240 219 q 389 115 317 115 q 547 199 488 115 q 632 400 607 282 q 657 629 657 518 q 620 792 657 740 q 508 844 583 844 z "},"Ȣ":{"ha":813,"x_min":42,"x_max":790,"o":"m 760 742 q 608 542 740 597 q 713 460 676 514 q 750 332 750 406 q 701 153 750 233 q 562 27 651 74 q 357 -19 472 -19 q 187 16 258 -19 q 78 113 115 51 q 42 253 42 175 q 99 431 42 356 q 254 542 156 506 q 157 704 157 589 q 160 749 157 718 l 189 960 l 364 960 l 332 740 q 329 700 329 726 q 355 626 329 650 q 436 601 381 601 q 585 747 565 601 l 615 960 l 790 960 l 760 742 m 368 115 q 513 173 460 115 q 567 328 567 231 q 531 431 567 394 q 422 468 494 468 q 278 411 332 468 q 224 257 224 354 q 368 115 224 115 z "},"Ó":{"ha":867,"x_min":61,"x_max":836,"o":"m 519 979 q 753 883 671 979 q 836 610 836 788 q 790 313 836 457 q 640 74 743 168 q 379 -21 538 -21 q 144 75 228 -21 q 61 349 61 171 q 108 643 61 499 q 258 883 156 788 q 519 979 361 979 m 508 844 q 351 761 411 844 q 266 560 292 678 q 240 332 240 442 q 278 167 240 219 q 389 115 317 115 q 547 199 488 115 q 632 400 607 282 q 657 629 657 518 q 620 792 657 740 q 508 844 583 844 m 663 1285 l 721 1154 l 424 1043 l 385 1128 l 663 1285 z "},"Ŏ":{"ha":867,"x_min":61,"x_max":836,"o":"m 519 979 q 753 883 671 979 q 836 610 836 788 q 790 313 836 457 q 640 74 743 168 q 379 -21 538 -21 q 144 75 228 -21 q 61 349 61 171 q 108 643 61 499 q 258 883 156 788 q 519 979 361 979 m 508 844 q 351 761 411 844 q 266 560 292 678 q 240 332 240 442 q 278 167 240 219 q 389 115 317 115 q 547 199 488 115 q 632 400 607 282 q 657 629 657 518 q 620 792 657 740 q 508 844 583 844 m 533 1049 q 397 1106 444 1049 q 354 1247 350 1163 l 450 1261 q 540 1171 461 1171 q 614 1197 583 1171 q 663 1267 644 1224 l 760 1240 q 681 1102 740 1156 q 533 1049 621 1049 z "},"Ǒ":{"ha":867,"x_min":61,"x_max":836,"o":"m 519 979 q 753 883 671 979 q 836 610 836 788 q 790 313 836 457 q 640 74 743 168 q 379 -21 538 -21 q 144 75 228 -21 q 61 349 61 171 q 108 643 61 499 q 258 883 156 788 q 519 979 361 979 m 508 844 q 351 761 411 844 q 266 560 292 678 q 240 332 240 442 q 278 167 240 219 q 389 115 317 115 q 547 199 488 115 q 632 400 607 282 q 657 629 657 518 q 620 792 657 740 q 508 844 583 844 m 719 1285 l 781 1213 l 585 1044 l 481 1044 l 329 1217 l 399 1285 l 544 1169 l 719 1285 z "},"Ɵ":{"ha":867,"x_min":61,"x_max":836,"o":"m 519 979 q 753 883 671 979 q 836 610 836 788 q 790 313 836 457 q 640 74 743 168 q 379 -21 538 -21 q 144 75 228 -21 q 61 349 61 171 q 108 643 61 499 q 258 883 154 788 q 519 979 361 979 m 510 847 q 346 761 408 847 q 256 543 283 675 l 660 543 q 664 628 664 589 q 626 794 664 742 q 510 847 588 847 m 388 113 q 557 203 494 113 q 646 432 619 293 l 239 432 q 233 333 233 386 q 272 165 233 218 q 388 113 311 113 z "},"Ô":{"ha":867,"x_min":61,"x_max":836,"o":"m 519 979 q 753 883 671 979 q 836 610 836 788 q 790 313 836 457 q 640 74 743 168 q 379 -21 538 -21 q 144 75 228 -21 q 61 349 61 171 q 108 643 61 499 q 258 883 156 788 q 519 979 361 979 m 508 844 q 351 761 411 844 q 266 560 292 678 q 240 332 240 442 q 278 167 240 219 q 389 115 317 115 q 547 199 488 115 q 632 400 607 282 q 657 629 657 518 q 620 792 657 740 q 508 844 583 844 m 371 1051 l 310 1125 l 507 1292 l 611 1292 l 761 1121 l 693 1051 l 546 1167 l 371 1051 z "},"Ố":{"ha":867,"x_min":61,"x_max":940,"o":"m 856 1464 l 940 1374 l 728 1185 l 667 1242 l 856 1464 m 365 999 l 304 1072 l 501 1239 l 606 1239 l 756 1068 l 688 999 l 540 1114 l 365 999 m 519 979 q 753 883 671 979 q 836 610 836 788 q 790 313 836 457 q 640 74 743 168 q 379 -21 538 -21 q 144 75 228 -21 q 61 349 61 171 q 108 643 61 499 q 258 883 156 788 q 519 979 361 979 m 508 844 q 351 761 411 844 q 266 560 292 678 q 240 332 240 442 q 278 167 240 219 q 389 115 317 115 q 547 199 488 115 q 632 400 607 282 q 657 629 657 518 q 620 792 657 740 q 508 844 583 844 z "},"Ộ":{"ha":867,"x_min":61,"x_max":836,"o":"m 519 979 q 753 883 671 979 q 836 610 836 788 q 790 313 836 457 q 640 74 743 168 q 379 -21 538 -21 q 144 75 228 -21 q 61 349 61 171 q 108 643 61 499 q 258 883 156 788 q 519 979 361 979 m 508 844 q 351 761 411 844 q 266 560 292 678 q 240 332 240 442 q 278 167 240 219 q 389 115 317 115 q 547 199 488 115 q 632 400 607 282 q 657 629 657 518 q 620 792 657 740 q 508 844 583 844 m 371 1051 l 310 1125 l 507 1292 l 611 1292 l 761 1121 l 693 1051 l 546 1167 l 371 1051 m 358 -94 q 428 -120 403 -94 q 453 -186 453 -146 q 419 -270 453 -237 q 338 -303 386 -303 q 269 -277 294 -303 q 243 -211 243 -251 q 276 -128 243 -161 q 358 -94 310 -94 z "},"Ồ":{"ha":867,"x_min":61,"x_max":836,"o":"m 304 1461 l 431 1236 l 361 1185 l 199 1379 l 304 1461 m 363 999 l 301 1072 l 499 1239 l 603 1239 l 753 1068 l 685 999 l 538 1114 l 363 999 m 519 979 q 753 883 671 979 q 836 610 836 788 q 790 313 836 457 q 640 74 743 168 q 379 -21 538 -21 q 144 75 228 -21 q 61 349 61 171 q 108 643 61 499 q 258 883 156 788 q 519 979 361 979 m 508 844 q 351 761 411 844 q 266 560 292 678 q 240 332 240 442 q 278 167 240 219 q 389 115 317 115 q 547 199 488 115 q 632 400 607 282 q 657 629 657 518 q 620 792 657 740 q 508 844 583 844 z "},"Ổ":{"ha":867,"x_min":61,"x_max":925,"o":"m 519 979 q 753 883 671 979 q 836 610 836 788 q 790 313 836 457 q 640 74 743 168 q 379 -21 538 -21 q 144 75 228 -21 q 61 349 61 171 q 108 643 61 499 q 258 883 156 788 q 519 979 361 979 m 508 844 q 351 761 411 844 q 266 560 292 678 q 240 332 240 442 q 278 167 240 219 q 389 115 317 115 q 547 199 488 115 q 632 400 607 282 q 657 629 657 518 q 620 792 657 740 q 508 844 583 844 m 363 999 l 301 1072 l 499 1239 l 603 1239 l 753 1068 l 685 999 l 538 1114 l 363 999 m 704 1281 q 778 1301 754 1286 q 803 1347 803 1315 q 792 1375 803 1365 q 760 1385 781 1385 q 685 1365 724 1385 l 661 1449 q 788 1481 721 1481 q 889 1446 853 1481 q 925 1356 925 1411 q 804 1224 925 1246 l 796 1161 l 690 1161 l 704 1281 z "},"Ỗ":{"ha":867,"x_min":61,"x_max":836,"o":"m 640 1279 q 594 1289 614 1279 q 553 1317 575 1299 q 539 1327 550 1319 q 519 1338 528 1335 q 501 1342 510 1342 q 464 1327 481 1342 q 425 1281 447 1313 l 344 1328 q 419 1426 378 1389 q 508 1463 461 1463 q 555 1453 536 1463 q 597 1426 574 1444 q 647 1401 628 1401 q 683 1415 667 1401 q 721 1458 700 1429 l 801 1413 q 727 1314 768 1349 q 640 1279 686 1279 m 364 999 l 303 1072 l 500 1239 l 604 1239 l 754 1068 l 686 999 l 539 1114 l 364 999 m 519 979 q 753 883 671 979 q 836 610 836 788 q 790 313 836 457 q 640 74 743 168 q 379 -21 538 -21 q 144 75 228 -21 q 61 349 61 171 q 108 643 61 499 q 258 883 156 788 q 519 979 361 979 m 508 844 q 351 761 411 844 q 266 560 292 678 q 240 332 240 442 q 278 167 240 219 q 389 115 317 115 q 547 199 488 115 q 632 400 607 282 q 657 629 657 518 q 620 792 657 740 q 508 844 583 844 z "},"Ȍ":{"ha":867,"x_min":61,"x_max":836,"o":"m 519 979 q 753 883 671 979 q 836 610 836 788 q 790 313 836 457 q 640 74 743 168 q 379 -21 538 -21 q 144 75 228 -21 q 61 349 61 171 q 108 643 61 499 q 258 883 156 788 q 519 979 361 979 m 508 844 q 351 761 411 844 q 266 560 292 678 q 240 332 240 442 q 278 167 240 219 q 389 115 317 115 q 547 199 488 115 q 632 400 607 282 q 657 629 657 518 q 620 792 657 740 q 508 844 583 844 m 413 1349 l 494 1090 l 394 1050 l 281 1289 l 413 1349 m 618 1349 l 689 1093 l 590 1057 l 485 1292 l 618 1349 z "},"Ö":{"ha":867,"x_min":61,"x_max":836,"o":"m 519 979 q 753 883 671 979 q 836 610 836 788 q 790 313 836 457 q 640 74 743 168 q 379 -21 538 -21 q 144 75 228 -21 q 61 349 61 171 q 108 643 61 499 q 258 883 156 788 q 519 979 361 979 m 508 844 q 351 761 411 844 q 266 560 292 678 q 240 332 240 442 q 278 167 240 219 q 389 115 317 115 q 547 199 488 115 q 632 400 607 282 q 657 629 657 518 q 620 792 657 740 q 508 844 583 844 m 401 1076 q 341 1099 364 1076 q 318 1157 318 1121 q 348 1231 318 1201 q 421 1260 378 1260 q 481 1238 458 1260 q 504 1179 504 1215 q 474 1106 504 1135 q 401 1076 444 1076 m 679 1076 q 619 1099 642 1076 q 596 1157 596 1121 q 626 1231 596 1201 q 699 1260 656 1260 q 759 1238 736 1260 q 782 1179 782 1215 q 752 1106 782 1135 q 679 1076 722 1076 z "},"Ȫ":{"ha":867,"x_min":61,"x_max":836,"o":"m 519 979 q 753 883 671 979 q 836 610 836 788 q 790 313 836 457 q 640 74 743 168 q 379 -21 538 -21 q 144 75 228 -21 q 61 349 61 171 q 108 643 61 499 q 258 883 156 788 q 519 979 361 979 m 508 844 q 351 761 411 844 q 266 560 292 678 q 240 332 240 442 q 278 167 240 219 q 389 115 317 115 q 547 199 488 115 q 632 400 607 282 q 657 629 657 518 q 620 792 657 740 q 508 844 583 844 m 389 1038 q 328 1060 351 1038 q 306 1118 306 1082 q 335 1192 306 1163 q 408 1221 365 1221 q 469 1199 446 1221 q 492 1140 492 1176 q 462 1067 492 1096 q 389 1038 432 1038 m 667 1038 q 606 1060 629 1038 q 583 1118 583 1082 q 613 1192 583 1163 q 686 1221 643 1221 q 747 1199 724 1221 q 769 1140 769 1176 q 740 1067 769 1096 q 667 1038 710 1038 m 735 1281 l 372 1281 l 390 1403 l 753 1403 l 735 1281 z "},"Ȯ":{"ha":867,"x_min":61,"x_max":836,"o":"m 519 979 q 753 883 671 979 q 836 610 836 788 q 790 313 836 457 q 640 74 743 168 q 379 -21 538 -21 q 144 75 228 -21 q 61 349 61 171 q 108 643 61 499 q 258 883 156 788 q 519 979 361 979 m 508 844 q 351 761 411 844 q 266 560 292 678 q 240 332 240 442 q 278 167 240 219 q 389 115 317 115 q 547 199 488 115 q 632 400 607 282 q 657 629 657 518 q 620 792 657 740 q 508 844 583 844 m 543 1069 q 474 1095 499 1069 q 449 1161 449 1121 q 481 1245 449 1213 q 564 1278 514 1278 q 633 1252 607 1278 q 658 1186 658 1226 q 625 1103 658 1136 q 543 1069 592 1069 z "},"Ȱ":{"ha":867,"x_min":61,"x_max":836,"o":"m 519 979 q 753 883 671 979 q 836 610 836 788 q 790 313 836 457 q 640 74 743 168 q 379 -21 538 -21 q 144 75 228 -21 q 61 349 61 171 q 108 643 61 499 q 258 883 156 788 q 519 979 361 979 m 508 844 q 351 761 411 844 q 266 560 292 678 q 240 332 240 442 q 278 167 240 219 q 389 115 317 115 q 547 199 488 115 q 632 400 607 282 q 657 629 657 518 q 620 792 657 740 q 508 844 583 844 m 531 1026 q 461 1052 486 1026 q 436 1118 436 1078 q 469 1202 436 1169 q 551 1235 501 1235 q 620 1209 594 1235 q 646 1143 646 1183 q 613 1060 646 1093 q 531 1026 579 1026 m 742 1282 l 379 1282 l 397 1404 l 760 1404 l 742 1282 z "},"Ọ":{"ha":867,"x_min":61,"x_max":836,"o":"m 519 979 q 753 883 671 979 q 836 610 836 788 q 790 313 836 457 q 640 74 743 168 q 379 -21 538 -21 q 144 75 228 -21 q 61 349 61 171 q 108 643 61 499 q 258 883 156 788 q 519 979 361 979 m 508 844 q 351 761 411 844 q 266 560 292 678 q 240 332 240 442 q 278 167 240 219 q 389 115 317 115 q 547 199 488 115 q 632 400 607 282 q 657 629 657 518 q 620 792 657 740 q 508 844 583 844 m 358 -94 q 428 -120 403 -94 q 453 -186 453 -146 q 419 -270 453 -237 q 338 -303 386 -303 q 269 -277 294 -303 q 243 -211 243 -251 q 276 -128 243 -161 q 358 -94 310 -94 z "},"Ò":{"ha":867,"x_min":61,"x_max":836,"o":"m 519 979 q 753 883 671 979 q 836 610 836 788 q 790 313 836 457 q 640 74 743 168 q 379 -21 538 -21 q 144 75 228 -21 q 61 349 61 171 q 108 643 61 499 q 258 883 156 788 q 519 979 361 979 m 508 844 q 351 761 411 844 q 266 560 292 678 q 240 332 240 442 q 278 167 240 219 q 389 115 317 115 q 547 199 488 115 q 632 400 607 282 q 657 629 657 518 q 620 792 657 740 q 508 844 583 844 m 472 1282 l 715 1126 l 664 1044 l 397 1154 l 472 1282 z "},"Ỏ":{"ha":867,"x_min":61,"x_max":836,"o":"m 519 979 q 753 883 671 979 q 836 610 836 788 q 790 313 836 457 q 640 74 743 168 q 379 -21 538 -21 q 144 75 228 -21 q 61 349 61 171 q 108 643 61 499 q 258 883 156 788 q 519 979 361 979 m 508 844 q 351 761 411 844 q 266 560 292 678 q 240 332 240 442 q 278 167 240 219 q 389 115 317 115 q 547 199 488 115 q 632 400 607 282 q 657 629 657 518 q 620 792 657 740 q 508 844 583 844 m 497 1181 q 572 1201 547 1186 q 596 1247 596 1215 q 585 1275 596 1265 q 553 1285 574 1285 q 478 1265 517 1285 l 454 1349 q 581 1381 514 1381 q 682 1346 646 1381 q 718 1256 718 1311 q 597 1124 718 1146 l 589 1061 l 483 1061 l 497 1181 z "},"Ơ":{"ha":897,"x_min":61,"x_max":950,"o":"m 950 992 q 804 799 950 831 q 836 610 836 719 q 790 313 836 457 q 640 74 743 168 q 379 -21 538 -21 q 144 75 228 -21 q 61 349 61 171 q 108 643 61 499 q 258 883 156 788 q 519 979 361 979 q 751 885 669 979 q 812 917 793 890 q 831 992 831 943 q 824 1056 831 1025 l 940 1071 q 950 992 950 1038 m 389 115 q 547 199 488 115 q 632 400 607 282 q 657 629 657 518 q 620 792 657 740 q 508 844 583 844 q 351 761 411 844 q 266 560 292 678 q 240 332 240 442 q 278 167 240 219 q 389 115 317 115 z "},"Ớ":{"ha":897,"x_min":61,"x_max":950,"o":"m 721 1154 l 424 1043 l 385 1128 l 663 1285 l 721 1154 m 950 992 q 804 799 950 831 q 836 610 836 719 q 790 313 836 457 q 640 74 743 168 q 379 -21 538 -21 q 144 75 228 -21 q 61 349 61 171 q 108 643 61 499 q 258 883 156 788 q 519 979 361 979 q 751 885 669 979 q 812 917 793 890 q 831 992 831 943 q 824 1056 831 1025 l 940 1071 q 950 992 950 1038 m 389 115 q 547 199 488 115 q 632 400 607 282 q 657 629 657 518 q 620 792 657 740 q 508 844 583 844 q 351 761 411 844 q 266 560 292 678 q 240 332 240 442 q 278 167 240 219 q 389 115 317 115 z "},"Ợ":{"ha":897,"x_min":61,"x_max":950,"o":"m 950 992 q 804 799 950 831 q 836 610 836 719 q 790 313 836 457 q 640 74 743 168 q 379 -21 538 -21 q 144 75 228 -21 q 61 349 61 171 q 108 643 61 499 q 258 883 156 788 q 519 979 361 979 q 751 885 669 979 q 812 917 793 890 q 831 992 831 943 q 824 1056 831 1025 l 940 1071 q 950 992 950 1038 m 389 115 q 547 199 488 115 q 632 400 607 282 q 657 629 657 518 q 620 792 657 740 q 508 844 583 844 q 351 761 411 844 q 266 560 292 678 q 240 332 240 442 q 278 167 240 219 q 389 115 317 115 m 358 -94 q 428 -120 403 -94 q 453 -186 453 -146 q 420 -270 453 -237 q 338 -303 388 -303 q 269 -277 294 -303 q 243 -211 243 -251 q 276 -128 243 -161 q 358 -94 310 -94 z "},"Ờ":{"ha":897,"x_min":61,"x_max":950,"o":"m 715 1126 l 664 1044 l 397 1154 l 472 1282 l 715 1126 m 950 992 q 804 799 950 831 q 836 610 836 719 q 790 313 836 457 q 640 74 743 168 q 379 -21 538 -21 q 144 75 228 -21 q 61 349 61 171 q 108 643 61 499 q 258 883 156 788 q 519 979 361 979 q 751 885 669 979 q 812 917 793 890 q 831 992 831 943 q 824 1056 831 1025 l 940 1071 q 950 992 950 1038 m 389 115 q 547 199 488 115 q 632 400 607 282 q 657 629 657 518 q 620 792 657 740 q 508 844 583 844 q 351 761 411 844 q 266 560 292 678 q 240 332 240 442 q 278 167 240 219 q 389 115 317 115 z "},"Ở":{"ha":897,"x_min":61,"x_max":950,"o":"m 553 1285 q 478 1265 517 1285 l 454 1349 q 581 1381 514 1381 q 682 1346 646 1381 q 718 1256 718 1311 q 597 1124 718 1146 l 589 1061 l 483 1061 l 497 1181 q 572 1201 547 1186 q 596 1247 596 1215 q 585 1275 596 1265 q 553 1285 574 1285 m 950 992 q 804 799 950 831 q 836 610 836 719 q 790 313 836 457 q 640 74 743 168 q 379 -21 538 -21 q 144 75 228 -21 q 61 349 61 171 q 108 643 61 499 q 258 883 156 788 q 519 979 361 979 q 751 885 669 979 q 812 917 793 890 q 831 992 831 943 q 824 1056 831 1025 l 940 1071 q 950 992 950 1038 m 389 115 q 547 199 488 115 q 632 400 607 282 q 657 629 657 518 q 620 792 657 740 q 508 844 583 844 q 351 761 411 844 q 266 560 292 678 q 240 332 240 442 q 278 167 240 219 q 389 115 317 115 z "},"Ỡ":{"ha":897,"x_min":61,"x_max":950,"o":"m 476 1136 q 439 1121 456 1136 q 400 1074 422 1106 l 319 1122 q 394 1223 351 1185 q 483 1261 436 1261 q 531 1251 511 1261 q 574 1222 551 1240 q 624 1197 604 1197 q 660 1212 643 1197 q 697 1257 676 1226 l 779 1210 q 704 1108 746 1144 q 617 1072 663 1072 q 573 1081 592 1072 q 528 1110 554 1090 q 499 1130 510 1124 q 476 1136 489 1136 m 950 992 q 804 799 950 831 q 836 610 836 719 q 790 313 836 457 q 640 74 743 168 q 379 -21 538 -21 q 144 75 228 -21 q 61 349 61 171 q 108 643 61 499 q 258 883 156 788 q 519 979 361 979 q 751 885 669 979 q 812 917 793 890 q 831 992 831 943 q 824 1056 831 1025 l 940 1071 q 950 992 950 1038 m 389 115 q 547 199 488 115 q 632 400 607 282 q 657 629 657 518 q 620 792 657 740 q 508 844 583 844 q 351 761 411 844 q 266 560 292 678 q 240 332 240 442 q 278 167 240 219 q 389 115 317 115 z "},"Ő":{"ha":867,"x_min":61,"x_max":836,"o":"m 519 979 q 753 883 671 979 q 836 610 836 788 q 790 313 836 457 q 640 74 743 168 q 379 -21 538 -21 q 144 75 228 -21 q 61 349 61 171 q 108 643 61 499 q 258 883 156 788 q 519 979 361 979 m 508 844 q 351 761 411 844 q 266 560 292 678 q 240 332 240 442 q 278 167 240 219 q 389 115 317 115 q 547 199 488 115 q 632 400 607 282 q 657 629 657 518 q 620 792 657 740 q 508 844 583 844 m 519 1349 l 631 1286 l 467 1057 l 379 1097 l 519 1349 m 725 1349 l 836 1283 l 661 1050 l 575 1093 l 725 1349 z "},"Ƣ":{"ha":1179,"x_min":61,"x_max":1140,"o":"m 932 982 q 1087 932 1033 982 q 1140 793 1140 882 q 1136 747 1140 772 l 990 -286 l 817 -286 l 963 754 q 965 785 965 776 q 897 853 965 853 q 792 819 844 853 q 836 610 836 735 q 790 313 836 457 q 640 74 743 168 q 379 -21 538 -21 q 144 75 228 -21 q 61 349 61 171 q 108 643 61 499 q 258 883 156 788 q 519 979 361 979 q 722 911 642 979 q 932 982 821 982 m 389 115 q 547 199 488 115 q 632 400 607 282 q 657 629 657 518 q 620 792 657 740 q 508 844 583 844 q 351 761 411 844 q 266 560 292 678 q 240 332 240 442 q 278 167 240 219 q 389 115 317 115 z "},"Ȏ":{"ha":867,"x_min":61,"x_max":836,"o":"m 519 979 q 753 883 671 979 q 836 610 836 788 q 790 313 836 457 q 640 74 743 168 q 379 -21 538 -21 q 144 75 228 -21 q 61 349 61 171 q 108 643 61 499 q 258 883 156 788 q 519 979 361 979 m 508 844 q 351 761 411 844 q 266 560 292 678 q 240 332 240 442 q 278 167 240 219 q 389 115 317 115 q 547 199 488 115 q 632 400 607 282 q 657 629 657 518 q 620 792 657 740 q 508 844 583 844 m 332 1092 q 417 1244 356 1188 q 565 1300 478 1300 q 701 1241 654 1300 q 743 1086 749 1182 l 644 1072 q 554 1176 636 1176 q 428 1067 467 1176 l 332 1092 z "},"Ō":{"ha":867,"x_min":61,"x_max":836,"o":"m 519 979 q 753 883 671 979 q 836 610 836 788 q 790 313 836 457 q 640 74 743 168 q 379 -21 538 -21 q 144 75 228 -21 q 61 349 61 171 q 108 643 61 499 q 258 883 156 788 q 519 979 361 979 m 508 844 q 351 761 411 844 q 266 560 292 678 q 240 332 240 442 q 278 167 240 219 q 389 115 317 115 q 547 199 488 115 q 632 400 607 282 q 657 629 657 518 q 620 792 657 740 q 508 844 583 844 m 721 1093 l 358 1093 l 376 1215 l 739 1215 l 721 1093 z "},"Ṓ":{"ha":867,"x_min":61,"x_max":836,"o":"m 519 979 q 753 883 671 979 q 836 610 836 788 q 790 313 836 457 q 640 74 743 168 q 379 -21 538 -21 q 144 75 228 -21 q 61 349 61 171 q 108 643 61 499 q 258 883 156 788 q 519 979 361 979 m 508 844 q 351 761 411 844 q 266 560 292 678 q 240 332 240 442 q 278 167 240 219 q 389 115 317 115 q 547 199 488 115 q 632 400 607 282 q 657 629 657 518 q 620 792 657 740 q 508 844 583 844 m 719 1054 l 357 1054 l 375 1176 l 738 1176 l 719 1054 m 678 1472 l 736 1342 l 439 1231 l 400 1315 l 678 1472 z "},"Ṑ":{"ha":867,"x_min":61,"x_max":836,"o":"m 519 979 q 753 883 671 979 q 836 610 836 788 q 790 313 836 457 q 640 74 743 168 q 379 -21 538 -21 q 144 75 228 -21 q 61 349 61 171 q 108 643 61 499 q 258 883 156 788 q 519 979 361 979 m 508 844 q 351 761 411 844 q 266 560 292 678 q 240 332 240 442 q 278 167 240 219 q 389 115 317 115 q 547 199 488 115 q 632 400 607 282 q 657 629 657 518 q 620 792 657 740 q 508 844 583 844 m 718 1054 l 356 1054 l 374 1176 l 736 1176 l 718 1054 m 490 1469 l 733 1314 l 682 1232 l 415 1342 l 490 1469 z "},"Ꞷ":{"ha":1086,"x_min":65,"x_max":1040,"o":"m 294 -19 q 65 271 65 -19 q 115 619 65 438 q 249 960 164 800 l 413 960 q 286 607 335 793 q 238 265 238 421 q 258 150 238 185 q 324 115 279 115 q 439 249 419 115 l 482 553 l 653 553 l 610 242 q 607 203 607 214 q 683 114 607 114 q 826 279 785 114 q 868 653 868 444 q 860 808 868 736 q 836 960 851 879 l 1003 960 q 1040 649 1040 815 q 960 168 1040 356 q 692 -19 879 -19 q 564 22 610 -19 q 510 143 518 64 q 424 22 479 63 q 294 -19 368 -19 z "},"Ǫ":{"ha":867,"x_min":61,"x_max":836,"o":"m 499 -4 q 369 -87 403 -47 q 336 -167 336 -128 q 394 -215 336 -215 q 469 -207 429 -215 l 444 -321 q 363 -329 407 -329 q 249 -292 292 -329 q 207 -190 207 -254 q 314 -15 207 -86 q 127 99 193 4 q 61 349 61 193 q 108 643 61 499 q 258 883 156 788 q 519 979 361 979 q 753 883 671 979 q 836 610 836 788 q 801 351 836 478 q 691 127 767 224 q 499 -4 615 31 m 240 332 q 278 167 240 219 q 389 115 317 115 q 547 199 488 115 q 632 400 607 282 q 657 629 657 518 q 620 792 657 740 q 508 844 583 844 q 351 761 411 844 q 266 560 292 678 q 240 332 240 442 z "},"Ǭ":{"ha":867,"x_min":61,"x_max":836,"o":"m 739 1215 l 721 1093 l 358 1093 l 376 1215 l 739 1215 m 499 -4 q 369 -87 403 -47 q 336 -167 336 -128 q 394 -215 336 -215 q 469 -207 429 -215 l 444 -321 q 363 -329 407 -329 q 249 -292 292 -329 q 207 -190 207 -254 q 314 -15 207 -86 q 127 99 193 4 q 61 349 61 193 q 108 643 61 499 q 258 883 156 788 q 519 979 361 979 q 753 883 671 979 q 836 610 836 788 q 801 351 836 478 q 691 127 767 224 q 499 -4 615 31 m 240 332 q 278 167 240 219 q 389 115 317 115 q 547 199 488 115 q 632 400 607 282 q 657 629 657 518 q 620 792 657 740 q 508 844 583 844 q 351 761 411 844 q 266 560 292 678 q 240 332 240 442 z "},"Ɔ":{"ha":714,"x_min":-25,"x_max":683,"o":"m 378 979 q 603 883 522 979 q 683 608 683 788 q 629 293 683 436 q 472 65 575 150 q 226 -19 368 -19 q -25 97 75 -19 l 68 196 q 146 140 111 158 q 229 121 181 121 q 383 194 321 121 q 474 380 444 267 q 504 613 504 493 q 466 789 504 735 q 358 843 428 843 q 269 826 311 843 q 178 776 226 810 l 104 882 q 232 955 167 931 q 378 979 297 979 z "},"Ø":{"ha":867,"x_min":61,"x_max":836,"o":"m 706 925 q 802 799 768 879 q 836 610 836 719 q 790 313 836 457 q 640 74 743 168 q 379 -21 538 -21 q 314 -15 342 -21 l 247 -181 l 117 -144 l 190 35 q 94 160 128 81 q 61 349 61 240 q 108 643 61 499 q 258 883 156 788 q 519 979 361 979 q 582 975 553 979 l 651 1143 l 781 1106 l 706 925 m 508 846 q 350 762 411 846 q 263 558 289 678 q 238 328 238 439 q 276 161 238 213 l 544 843 q 508 846 522 846 m 389 115 q 549 199 488 115 q 635 402 610 283 q 660 633 660 521 q 624 797 660 746 l 354 118 q 389 115 376 115 z "},"Ǿ":{"ha":867,"x_min":61,"x_max":836,"o":"m 706 925 q 802 799 768 879 q 836 610 836 719 q 790 313 836 457 q 640 74 743 168 q 379 -21 538 -21 q 314 -15 342 -21 l 247 -181 l 117 -144 l 190 35 q 94 160 128 81 q 61 349 61 240 q 108 643 61 499 q 258 883 156 788 q 519 979 361 979 q 582 975 553 979 l 651 1143 l 781 1106 l 706 925 m 508 846 q 350 762 411 846 q 263 558 289 678 q 238 328 238 439 q 276 161 238 213 l 544 843 q 508 846 522 846 m 389 115 q 549 199 488 115 q 635 402 610 283 q 660 633 660 521 q 624 797 660 746 l 354 118 q 389 115 376 115 m 653 1318 l 711 1188 l 414 1076 l 375 1161 l 653 1318 z "},"Õ":{"ha":867,"x_min":61,"x_max":836,"o":"m 519 979 q 753 883 671 979 q 836 610 836 788 q 790 313 836 457 q 640 74 743 168 q 379 -21 538 -21 q 144 75 228 -21 q 61 349 61 171 q 108 643 61 499 q 258 883 156 788 q 519 979 361 979 m 508 844 q 351 761 411 844 q 266 560 292 678 q 240 332 240 442 q 278 167 240 219 q 389 115 317 115 q 547 199 488 115 q 632 400 607 282 q 657 629 657 518 q 620 792 657 740 q 508 844 583 844 m 617 1072 q 573 1081 592 1072 q 528 1110 554 1090 q 499 1130 510 1124 q 476 1136 489 1136 q 439 1121 456 1136 q 400 1074 422 1106 l 319 1122 q 394 1223 351 1185 q 483 1261 436 1261 q 531 1251 511 1261 q 574 1222 551 1240 q 624 1197 604 1197 q 660 1212 643 1197 q 697 1257 676 1226 l 779 1210 q 704 1108 746 1144 q 617 1072 663 1072 z "},"Ṍ":{"ha":867,"x_min":61,"x_max":836,"o":"m 519 979 q 753 883 671 979 q 836 610 836 788 q 790 313 836 457 q 640 74 743 168 q 379 -21 538 -21 q 144 75 228 -21 q 61 349 61 171 q 108 643 61 499 q 258 883 156 788 q 519 979 361 979 m 508 844 q 351 761 411 844 q 266 560 292 678 q 240 332 240 442 q 278 167 240 219 q 389 115 317 115 q 547 199 488 115 q 632 400 607 282 q 657 629 657 518 q 620 792 657 740 q 508 844 583 844 m 614 1051 q 570 1060 589 1051 q 525 1089 551 1069 q 497 1109 507 1103 q 474 1115 486 1115 q 436 1100 453 1115 q 397 1053 419 1085 l 317 1101 q 391 1202 349 1164 q 481 1240 433 1240 q 528 1230 508 1240 q 571 1201 549 1219 q 621 1176 601 1176 q 657 1191 640 1176 q 694 1236 674 1206 l 776 1189 q 701 1088 743 1124 q 614 1051 660 1051 m 678 1513 l 736 1382 l 439 1271 l 400 1356 l 678 1513 z "},"Ȭ":{"ha":867,"x_min":61,"x_max":836,"o":"m 739 1288 l 376 1288 l 394 1410 l 757 1410 l 739 1288 m 608 1051 q 565 1060 583 1051 q 519 1089 546 1069 q 491 1109 501 1103 q 468 1115 481 1115 q 431 1100 447 1115 q 392 1053 414 1085 l 311 1101 q 385 1202 343 1164 q 475 1240 428 1240 q 523 1230 503 1240 q 565 1201 543 1219 q 615 1176 596 1176 q 651 1191 635 1176 q 689 1236 668 1206 l 771 1189 q 696 1088 738 1124 q 608 1051 654 1051 m 519 979 q 753 883 671 979 q 836 610 836 788 q 790 313 836 457 q 640 74 743 168 q 379 -21 538 -21 q 144 75 228 -21 q 61 349 61 171 q 108 643 61 499 q 258 883 156 788 q 519 979 361 979 m 508 844 q 351 761 411 844 q 266 560 292 678 q 240 332 240 442 q 278 167 240 219 q 389 115 317 115 q 547 199 488 115 q 632 400 607 282 q 657 629 657 518 q 620 792 657 740 q 508 844 583 844 z "},"Œ":{"ha":1117,"x_min":61,"x_max":1146,"o":"m 1107 828 l 751 828 q 807 601 807 742 q 806 553 807 569 l 1031 553 l 1013 422 l 789 422 q 654 133 754 244 l 1035 133 l 1014 0 l 475 0 q 361 -21 424 -21 q 142 76 222 -21 q 61 349 61 172 q 108 642 61 497 q 253 883 154 788 q 499 979 351 979 q 607 960 560 979 l 1146 960 l 1107 828 m 240 328 q 376 115 240 115 q 524 198 467 115 q 605 400 581 281 q 629 635 629 519 q 493 844 629 844 q 347 761 404 844 q 265 559 290 678 q 240 328 240 440 z "},"P":{"ha":728,"x_min":44,"x_max":746,"o":"m 431 960 q 664 894 582 960 q 746 701 746 828 q 705 522 746 604 q 576 388 664 439 q 354 338 489 338 l 267 338 l 219 0 l 44 0 l 181 960 l 431 960 m 357 469 q 519 535 472 469 q 565 699 565 601 q 528 799 565 768 q 414 829 490 829 l 336 829 l 286 469 l 357 469 z "},"Ṕ":{"ha":728,"x_min":44,"x_max":746,"o":"m 431 960 q 664 894 582 960 q 746 701 746 828 q 705 522 746 604 q 576 388 664 439 q 354 338 489 338 l 267 338 l 219 0 l 44 0 l 181 960 l 431 960 m 357 469 q 519 535 472 469 q 565 699 565 601 q 528 799 565 768 q 414 829 490 829 l 336 829 l 286 469 l 357 469 m 593 1285 l 651 1154 l 354 1043 l 315 1128 l 593 1285 z "},"Ṗ":{"ha":728,"x_min":44,"x_max":746,"o":"m 431 960 q 664 894 582 960 q 746 701 746 828 q 705 522 746 604 q 576 388 664 439 q 354 338 489 338 l 267 338 l 219 0 l 44 0 l 181 960 l 431 960 m 357 469 q 519 535 472 469 q 565 699 565 601 q 528 799 565 768 q 414 829 490 829 l 336 829 l 286 469 l 357 469 m 474 1069 q 404 1095 429 1069 q 379 1161 379 1121 q 412 1245 379 1213 q 494 1278 444 1278 q 563 1252 538 1278 q 589 1186 589 1226 q 556 1103 589 1136 q 474 1069 522 1069 z "},"Ƥ":{"ha":878,"x_min":65,"x_max":896,"o":"m 581 960 q 814 894 732 960 q 896 701 896 828 q 855 522 896 604 q 726 388 814 439 q 504 338 639 338 l 417 338 l 369 0 l 194 0 l 313 829 l 279 829 q 224 807 243 829 q 206 743 206 785 q 218 664 206 711 l 99 617 q 65 749 65 683 q 126 903 65 846 q 292 960 186 960 l 581 960 m 507 469 q 669 535 622 469 q 715 699 715 601 q 678 799 715 768 q 564 829 640 829 l 486 829 l 436 469 l 507 469 z "},"Þ":{"ha":732,"x_min":46,"x_max":726,"o":"m 411 801 q 645 735 564 801 q 726 536 726 668 q 687 356 726 440 q 559 220 647 272 q 335 168 471 168 l 243 168 l 219 0 l 46 0 l 181 960 l 354 960 l 332 801 l 411 801 m 338 300 q 499 368 451 300 q 546 535 546 436 q 508 639 546 607 q 394 671 471 671 l 314 671 l 261 300 l 338 300 z "},"Q":{"ha":865,"x_min":61,"x_max":836,"o":"m 836 610 q 771 275 836 431 q 568 54 706 119 q 702 28 646 51 q 804 -39 758 4 l 676 -172 q 554 -56 621 -93 q 379 -19 488 -19 q 144 76 228 -19 q 61 349 61 172 q 108 643 61 499 q 258 883 156 788 q 519 979 361 979 q 753 883 671 979 q 836 610 836 788 m 240 328 q 389 115 240 115 q 547 199 488 115 q 632 401 607 283 q 657 633 657 519 q 619 793 657 742 q 508 844 582 844 q 351 760 411 844 q 266 558 292 676 q 240 328 240 439 z "},"Ɋ":{"ha":850,"x_min":61,"x_max":878,"o":"m 878 -249 q 710 -301 806 -301 q 563 -253 615 -301 q 510 -114 510 -206 q 513 -68 510 -85 l 521 0 l 522 0 l 531 60 q 346 -19 451 -19 q 138 76 215 -19 q 61 343 61 171 q 113 658 61 513 q 260 892 165 804 q 478 979 356 979 q 580 956 538 979 q 656 888 622 932 l 678 960 l 829 960 l 696 0 l 685 -85 q 683 -107 683 -93 q 739 -168 683 -168 q 783 -162 765 -168 q 831 -140 801 -156 l 878 -249 m 388 114 q 550 199 478 114 l 628 767 q 569 825 600 806 q 496 844 539 844 q 358 772 415 844 q 271 583 300 699 q 242 339 242 467 q 388 114 242 114 z "},"R":{"ha":761,"x_min":44,"x_max":744,"o":"m 744 718 q 694 541 744 619 q 539 419 644 463 l 700 0 l 514 0 l 376 388 l 274 388 l 219 0 l 44 0 l 181 960 l 429 960 q 665 897 585 960 q 744 718 744 833 m 292 515 l 378 515 q 521 573 478 515 q 564 711 564 631 q 529 802 564 774 q 419 831 494 831 l 336 831 l 292 515 z "},"Ŕ":{"ha":761,"x_min":44,"x_max":744,"o":"m 744 718 q 694 541 744 619 q 539 419 644 463 l 700 0 l 514 0 l 376 388 l 274 388 l 219 0 l 44 0 l 181 960 l 429 960 q 665 897 585 960 q 744 718 744 833 m 292 515 l 378 515 q 521 573 478 515 q 564 711 564 631 q 529 802 564 774 q 419 831 494 831 l 336 831 l 292 515 m 594 1285 l 653 1154 l 356 1043 l 317 1128 l 594 1285 z "},"Ř":{"ha":761,"x_min":44,"x_max":744,"o":"m 744 718 q 694 541 744 619 q 539 419 644 463 l 700 0 l 514 0 l 376 388 l 274 388 l 219 0 l 44 0 l 181 960 l 429 960 q 665 897 585 960 q 744 718 744 833 m 292 515 l 378 515 q 521 573 478 515 q 564 711 564 631 q 529 802 564 774 q 419 831 494 831 l 336 831 l 292 515 m 651 1285 l 713 1213 l 517 1044 l 413 1044 l 261 1217 l 331 1285 l 476 1169 l 651 1285 z "},"Ŗ":{"ha":761,"x_min":44,"x_max":744,"o":"m 744 718 q 694 541 744 619 q 539 419 644 463 l 700 0 l 514 0 l 376 388 l 274 388 l 219 0 l 44 0 l 181 960 l 429 960 q 665 897 585 960 q 744 718 744 833 m 292 515 l 378 515 q 521 573 478 515 q 564 711 564 631 q 529 802 564 774 q 419 831 494 831 l 336 831 l 292 515 m 335 -101 q 395 -125 372 -101 q 418 -182 418 -149 q 408 -235 418 -211 q 368 -308 397 -260 l 296 -429 l 210 -429 l 269 -267 q 238 -201 238 -240 q 266 -130 238 -158 q 335 -101 294 -101 z "},"Ȑ":{"ha":761,"x_min":44,"x_max":744,"o":"m 744 718 q 694 541 744 619 q 539 419 644 463 l 700 0 l 514 0 l 376 388 l 274 388 l 219 0 l 44 0 l 181 960 l 429 960 q 665 897 585 960 q 744 718 744 833 m 292 515 l 378 515 q 521 573 478 515 q 564 711 564 631 q 529 802 564 774 q 419 831 494 831 l 336 831 l 292 515 m 344 1349 l 426 1090 l 326 1050 l 213 1289 l 344 1349 m 550 1349 l 621 1093 l 522 1057 l 417 1292 l 550 1349 z "},"Ṛ":{"ha":761,"x_min":44,"x_max":744,"o":"m 744 718 q 694 541 744 619 q 539 419 644 463 l 700 0 l 514 0 l 376 388 l 274 388 l 219 0 l 44 0 l 181 960 l 429 960 q 665 897 585 960 q 744 718 744 833 m 292 515 l 378 515 q 521 573 478 515 q 564 711 564 631 q 529 802 564 774 q 419 831 494 831 l 336 831 l 292 515 m 329 -94 q 399 -120 374 -94 q 424 -186 424 -146 q 390 -270 424 -237 q 308 -303 357 -303 q 240 -277 265 -303 q 214 -211 214 -251 q 247 -128 214 -161 q 329 -94 281 -94 z "},"Ȓ":{"ha":761,"x_min":44,"x_max":744,"o":"m 744 718 q 694 541 744 619 q 539 419 644 463 l 700 0 l 514 0 l 376 388 l 274 388 l 219 0 l 44 0 l 181 960 l 429 960 q 665 897 585 960 q 744 718 744 833 m 292 515 l 378 515 q 521 573 478 515 q 564 711 564 631 q 529 802 564 774 q 419 831 494 831 l 336 831 l 292 515 m 264 1092 q 349 1244 288 1188 q 497 1300 410 1300 q 633 1241 586 1300 q 675 1086 681 1182 l 576 1072 q 486 1176 568 1176 q 360 1067 399 1176 l 264 1092 z "},"Ɍ":{"ha":775,"x_min":21,"x_max":758,"o":"m 758 718 q 708 541 758 619 q 553 419 658 463 l 714 0 l 528 0 l 390 388 l 288 388 l 233 0 l 58 0 l 114 388 l 21 388 l 40 515 l 132 515 l 194 960 l 443 960 q 678 897 599 960 q 758 718 758 833 m 392 515 q 535 573 492 515 q 578 711 578 631 q 543 802 578 774 q 433 831 508 831 l 350 831 l 306 515 l 392 515 z "},"Ɽ":{"ha":761,"x_min":33,"x_max":744,"o":"m 744 718 q 694 541 744 619 q 539 419 644 463 l 700 0 l 514 0 l 376 388 l 274 388 l 219 0 l 208 -85 q 207 -107 207 -93 q 263 -168 207 -168 q 307 -162 289 -168 q 354 -140 325 -156 l 401 -249 q 233 -301 329 -301 q 86 -253 139 -301 q 33 -114 33 -206 q 36 -68 33 -85 l 44 0 l 181 960 l 429 960 q 665 897 585 960 q 744 718 744 833 m 292 515 l 378 515 q 521 573 478 515 q 564 711 564 631 q 529 802 564 774 q 419 831 494 831 l 336 831 l 292 515 z "},"S":{"ha":696,"x_min":-22,"x_max":708,"o":"m 433 979 q 708 860 604 979 l 613 765 q 529 826 571 807 q 436 844 488 844 q 324 807 367 844 q 282 708 282 769 q 313 632 282 661 q 432 567 344 603 q 593 464 539 522 q 647 306 647 406 q 604 144 647 219 q 478 24 561 69 q 279 -21 394 -21 q -22 114 93 -21 l 81 210 q 172 141 124 164 q 283 118 219 118 q 415 163 365 118 q 465 285 465 207 q 433 372 465 339 q 317 440 401 404 q 153 543 203 488 q 103 689 103 599 q 143 831 103 764 q 258 938 183 897 q 433 979 333 979 z "},"Ś":{"ha":696,"x_min":-22,"x_max":708,"o":"m 433 979 q 708 860 604 979 l 613 765 q 529 826 571 807 q 436 844 488 844 q 324 807 367 844 q 282 708 282 769 q 313 632 282 661 q 432 567 344 603 q 593 464 539 522 q 647 306 647 406 q 604 144 647 219 q 478 24 561 69 q 279 -21 394 -21 q -22 114 93 -21 l 81 210 q 172 141 124 164 q 283 118 219 118 q 415 163 365 118 q 465 285 465 207 q 433 372 465 339 q 317 440 401 404 q 153 543 203 488 q 103 689 103 599 q 143 831 103 764 q 258 938 183 897 q 433 979 333 979 m 581 1285 l 639 1154 l 342 1043 l 303 1128 l 581 1285 z "},"Ꞌ":{"ha":301,"x_min":104,"x_max":318,"o":"m 104 474 l 150 960 l 318 960 l 225 474 l 104 474 z "},"Š":{"ha":696,"x_min":-22,"x_max":708,"o":"m 433 979 q 708 860 604 979 l 613 765 q 529 826 571 807 q 436 844 488 844 q 324 807 367 844 q 282 708 282 769 q 313 632 282 661 q 432 567 344 603 q 593 464 539 522 q 647 306 647 406 q 604 144 647 219 q 478 24 561 69 q 279 -21 394 -21 q -22 114 93 -21 l 81 210 q 172 141 124 164 q 283 118 219 118 q 415 163 365 118 q 465 285 465 207 q 433 372 465 339 q 317 440 401 404 q 153 543 203 488 q 103 689 103 599 q 143 831 103 764 q 258 938 183 897 q 433 979 333 979 m 638 1285 l 699 1213 l 503 1044 l 399 1044 l 247 1217 l 317 1285 l 463 1169 l 638 1285 z "},"Ş":{"ha":696,"x_min":-22,"x_max":708,"o":"m 432 567 q 593 464 539 522 q 647 306 647 406 q 613 159 647 228 q 510 43 578 90 q 346 -17 442 -4 l 336 -75 q 417 -111 389 -81 q 444 -189 444 -142 q 396 -301 444 -253 q 254 -349 347 -349 q 126 -308 176 -349 l 178 -228 q 251 -249 213 -249 q 301 -235 282 -249 q 319 -194 319 -221 q 297 -156 319 -167 q 214 -146 274 -146 l 244 -19 q -22 114 83 -8 l 81 210 q 172 141 124 164 q 283 118 219 118 q 415 163 365 118 q 465 285 465 207 q 433 372 465 339 q 317 440 401 404 q 153 543 203 488 q 103 689 103 599 q 143 831 103 764 q 258 938 183 897 q 433 979 333 979 q 708 860 604 979 l 613 765 q 529 826 571 807 q 436 844 488 844 q 324 807 367 844 q 282 708 282 769 q 313 632 282 661 q 432 567 344 603 z "},"Ŝ":{"ha":696,"x_min":-22,"x_max":708,"o":"m 433 979 q 708 860 604 979 l 613 765 q 529 826 571 807 q 436 844 488 844 q 324 807 367 844 q 282 708 282 769 q 313 632 282 661 q 432 567 344 603 q 593 464 539 522 q 647 306 647 406 q 604 144 647 219 q 478 24 561 69 q 279 -21 394 -21 q -22 114 93 -21 l 81 210 q 172 141 124 164 q 283 118 219 118 q 415 163 365 118 q 465 285 465 207 q 433 372 465 339 q 317 440 401 404 q 153 543 203 488 q 103 689 103 599 q 143 831 103 764 q 258 938 183 897 q 433 979 333 979 m 289 1051 l 228 1125 l 425 1292 l 529 1292 l 679 1121 l 611 1051 l 464 1167 l 289 1051 z "},"Ș":{"ha":696,"x_min":-22,"x_max":708,"o":"m 433 979 q 708 860 604 979 l 613 765 q 529 826 571 807 q 436 844 488 844 q 324 807 367 844 q 282 708 282 769 q 313 632 282 661 q 432 567 344 603 q 593 464 539 522 q 647 306 647 406 q 604 144 647 219 q 478 24 561 69 q 279 -21 394 -21 q -22 114 93 -21 l 81 210 q 172 141 124 164 q 283 118 219 118 q 415 163 365 118 q 465 285 465 207 q 433 372 465 339 q 317 440 401 404 q 153 543 203 488 q 103 689 103 599 q 143 831 103 764 q 258 938 183 897 q 433 979 333 979 m 282 -101 q 342 -125 319 -101 q 365 -182 365 -149 q 355 -235 365 -211 q 315 -308 344 -260 l 243 -429 l 157 -429 l 217 -267 q 185 -201 185 -240 q 213 -130 185 -158 q 282 -101 242 -101 z "},"Ṡ":{"ha":696,"x_min":-22,"x_max":708,"o":"m 433 979 q 708 860 604 979 l 613 765 q 529 826 571 807 q 436 844 488 844 q 324 807 367 844 q 282 708 282 769 q 313 632 282 661 q 432 567 344 603 q 593 464 539 522 q 647 306 647 406 q 604 144 647 219 q 478 24 561 69 q 279 -21 394 -21 q -22 114 93 -21 l 81 210 q 172 141 124 164 q 283 118 219 118 q 415 163 365 118 q 465 285 465 207 q 433 372 465 339 q 317 440 401 404 q 153 543 203 488 q 103 689 103 599 q 143 831 103 764 q 258 938 183 897 q 433 979 333 979 m 461 1069 q 392 1095 417 1069 q 367 1161 367 1121 q 399 1245 367 1213 q 482 1278 432 1278 q 551 1252 525 1278 q 576 1186 576 1226 q 543 1103 576 1136 q 461 1069 510 1069 z "},"Ṣ":{"ha":696,"x_min":-22,"x_max":708,"o":"m 433 979 q 708 860 604 979 l 613 765 q 529 826 571 807 q 436 844 488 844 q 324 807 367 844 q 282 708 282 769 q 313 632 282 661 q 432 567 344 603 q 593 464 539 522 q 647 306 647 406 q 604 144 647 219 q 478 24 561 69 q 279 -21 394 -21 q -22 114 93 -21 l 81 210 q 172 141 124 164 q 283 118 219 118 q 415 163 365 118 q 465 285 465 207 q 433 372 465 339 q 317 440 401 404 q 153 543 203 488 q 103 689 103 599 q 143 831 103 764 q 258 938 183 897 q 433 979 333 979 m 276 -94 q 346 -120 321 -94 q 371 -186 371 -146 q 338 -270 371 -237 q 256 -303 304 -303 q 187 -277 213 -303 q 161 -211 161 -251 q 194 -128 161 -161 q 276 -94 228 -94 z "},"ẞ":{"ha":825,"x_min":46,"x_max":803,"o":"m 469 979 q 803 879 635 979 l 793 786 l 556 536 q 716 465 658 521 q 774 310 774 408 q 731 137 774 211 q 613 22 688 63 q 442 -19 538 -19 q 289 15 344 -19 l 354 132 q 435 118 389 118 q 549 170 507 118 q 590 306 590 222 q 542 408 590 375 q 393 446 494 442 l 407 556 l 642 811 q 468 844 556 844 q 317 692 338 844 l 219 0 l 46 0 l 143 693 q 245 906 163 832 q 469 979 328 979 z "},"Ə":{"ha":804,"x_min":43,"x_max":776,"o":"m 474 979 q 697 894 617 979 q 776 638 776 808 q 727 310 776 460 q 578 71 678 161 q 335 -19 479 -19 q 118 69 193 -19 q 43 321 43 158 q 74 551 43 440 l 597 550 q 603 649 603 601 q 565 799 603 754 q 451 844 526 844 q 340 822 392 844 q 235 760 288 799 l 164 863 q 311 951 236 922 q 474 979 386 979 m 340 114 q 485 183 426 114 q 578 417 544 251 l 214 417 q 206 308 206 358 q 239 161 206 208 q 340 114 272 114 z "},"T":{"ha":658,"x_min":75,"x_max":736,"o":"m 736 960 l 699 818 l 479 818 l 364 0 l 190 0 l 304 818 l 75 818 l 96 960 l 736 960 z "},"Ŧ":{"ha":658,"x_min":75,"x_max":736,"o":"m 699 818 l 479 818 l 440 542 l 585 542 l 569 429 l 425 429 l 364 0 l 190 0 l 250 429 l 106 429 l 121 542 l 265 542 l 304 818 l 75 818 l 96 960 l 736 960 l 699 818 z "},"Ť":{"ha":658,"x_min":75,"x_max":736,"o":"m 736 960 l 699 818 l 479 818 l 364 0 l 190 0 l 304 818 l 75 818 l 96 960 l 736 960 m 611 1285 l 672 1213 l 476 1044 l 372 1044 l 221 1217 l 290 1285 l 436 1169 l 611 1285 z "},"Ţ":{"ha":658,"x_min":75,"x_max":736,"o":"m 736 960 l 699 818 l 479 818 l 364 0 l 353 -72 q 433 -108 406 -78 q 461 -185 461 -139 q 413 -299 461 -249 q 269 -349 365 -349 q 142 -308 192 -349 l 193 -226 q 265 -249 229 -249 q 314 -235 294 -249 q 335 -194 333 -221 q 313 -157 336 -168 q 231 -146 290 -146 l 265 0 l 190 0 l 304 818 l 75 818 l 96 960 l 736 960 z "},"Ṱ":{"ha":658,"x_min":14,"x_max":736,"o":"m 736 960 l 699 818 l 479 818 l 364 0 l 190 0 l 304 818 l 75 818 l 96 960 l 736 960 m 75 -337 l 14 -264 l 213 -92 l 317 -92 l 467 -268 l 394 -337 l 251 -217 l 75 -337 z "},"Ț":{"ha":658,"x_min":75,"x_max":736,"o":"m 736 960 l 699 818 l 479 818 l 364 0 l 190 0 l 304 818 l 75 818 l 96 960 l 736 960 m 264 -101 q 324 -125 301 -101 q 347 -182 347 -149 q 337 -235 347 -211 q 297 -308 326 -260 l 225 -429 l 139 -429 l 199 -267 q 167 -201 167 -240 q 195 -130 167 -158 q 264 -101 224 -101 z "},"Ⱦ":{"ha":660,"x_min":74,"x_max":738,"o":"m 700 822 l 590 822 l 428 497 l 358 0 l 199 0 l 207 57 l 128 -100 l 74 -74 l 233 243 l 314 822 l 76 822 l 96 960 l 592 960 l 635 1044 l 689 1019 l 658 960 l 738 960 l 700 822 m 453 682 l 524 822 l 472 822 l 453 682 z "},"Ṫ":{"ha":658,"x_min":75,"x_max":736,"o":"m 736 960 l 699 818 l 479 818 l 364 0 l 190 0 l 304 818 l 75 818 l 96 960 l 736 960 m 435 1069 q 365 1095 390 1069 q 340 1161 340 1121 q 373 1245 340 1213 q 456 1278 406 1278 q 524 1252 499 1278 q 550 1186 550 1226 q 517 1103 550 1136 q 435 1069 483 1069 z "},"Ṭ":{"ha":658,"x_min":75,"x_max":736,"o":"m 736 960 l 699 818 l 479 818 l 364 0 l 190 0 l 304 818 l 75 818 l 96 960 l 736 960 m 258 -94 q 328 -120 303 -94 q 353 -186 353 -146 q 319 -270 353 -237 q 238 -303 286 -303 q 169 -277 194 -303 q 143 -211 143 -251 q 176 -128 143 -161 q 258 -94 210 -94 z "},"Ƭ":{"ha":721,"x_min":65,"x_max":799,"o":"m 761 818 l 542 818 l 426 0 l 253 0 l 367 818 l 278 818 q 224 798 242 818 q 206 742 206 778 q 218 664 206 711 l 99 617 q 65 749 65 683 q 125 902 65 844 q 289 960 185 960 l 799 960 l 761 818 z "},"Ṯ":{"ha":658,"x_min":71,"x_max":736,"o":"m 736 960 l 699 818 l 479 818 l 364 0 l 190 0 l 304 818 l 75 818 l 96 960 l 736 960 m 89 -129 l 451 -129 l 433 -251 l 71 -251 l 89 -129 z "},"Ƽ":{"ha":663,"x_min":-12,"x_max":660,"o":"m 240 -21 q -12 111 76 -21 l 92 197 q 249 113 153 113 q 394 192 349 113 q 440 374 440 272 q 338 494 440 494 q 213 461 283 494 l 90 463 l 161 960 l 660 960 l 621 833 l 303 833 l 267 581 q 408 618 335 618 q 558 556 503 618 q 613 378 613 493 q 574 187 613 278 q 451 38 535 96 q 240 -21 367 -21 z "},"Ƅ":{"ha":740,"x_min":58,"x_max":715,"o":"m 407 618 q 635 551 554 618 q 715 354 715 483 q 677 181 715 261 q 553 51 639 101 q 333 0 468 0 l 58 0 l 157 707 l 76 771 q 221 960 154 844 l 368 960 l 319 618 l 407 618 m 342 133 q 489 195 446 133 q 532 349 532 257 q 497 456 532 422 q 390 490 461 490 l 301 490 l 251 133 l 342 133 z "},"Ƨ":{"ha":679,"x_min":21,"x_max":704,"o":"m 450 979 q 635 921 565 979 q 704 761 704 863 q 631 562 704 633 q 399 436 557 490 q 244 353 286 399 q 201 229 201 307 q 233 147 201 175 q 324 118 265 118 q 550 210 432 118 l 629 108 q 301 -19 492 -19 q 97 48 172 -19 q 21 224 21 115 q 95 436 21 356 q 319 565 169 517 q 440 614 397 590 q 505 670 483 638 q 526 753 526 703 q 422 844 525 844 q 317 825 367 844 q 214 764 267 806 l 143 865 q 288 951 214 922 q 450 979 361 979 z "},"Ʈ":{"ha":658,"x_min":75,"x_max":736,"o":"m 353 -85 q 351 -107 351 -93 q 407 -168 351 -168 q 451 -162 433 -168 q 499 -140 469 -156 l 546 -249 q 378 -301 474 -301 q 231 -253 283 -301 q 178 -114 178 -206 q 181 -68 178 -85 l 189 0 l 190 0 l 304 818 l 75 818 l 96 960 l 736 960 l 699 818 l 479 818 l 364 0 l 353 -85 z "},"U":{"ha":810,"x_min":68,"x_max":810,"o":"m 715 283 q 656 128 703 197 q 533 20 610 60 q 354 -19 456 -19 q 142 52 215 -19 q 68 238 68 124 q 72 292 68 265 l 167 960 l 340 960 l 246 285 q 243 243 243 257 q 367 118 243 118 q 485 164 442 118 q 542 292 529 210 l 635 960 l 810 960 l 715 283 z "},"Ú":{"ha":810,"x_min":68,"x_max":810,"o":"m 715 283 q 656 128 703 197 q 533 20 610 60 q 354 -19 456 -19 q 142 52 215 -19 q 68 238 68 124 q 72 292 68 265 l 167 960 l 340 960 l 246 285 q 243 243 243 257 q 367 118 243 118 q 485 164 442 118 q 542 292 529 210 l 635 960 l 810 960 l 715 283 m 629 1285 l 688 1154 l 390 1043 l 351 1128 l 629 1285 z "},"Ʉ":{"ha":849,"x_min":75,"x_max":883,"o":"m 867 700 l 793 700 l 735 283 q 676 128 722 197 q 552 20 629 60 q 374 -19 475 -19 q 161 52 235 -19 q 88 238 88 124 q 92 292 88 265 l 150 700 l 75 700 l 90 811 l 165 811 l 186 960 l 360 960 l 339 811 l 633 811 l 654 960 l 829 960 l 808 811 l 883 811 l 867 700 m 618 700 l 324 700 l 265 285 q 263 243 263 257 q 386 118 263 118 q 505 164 461 118 q 561 292 549 210 l 618 700 z "},"Ŭ":{"ha":810,"x_min":68,"x_max":810,"o":"m 715 283 q 656 128 703 197 q 533 20 610 60 q 354 -19 456 -19 q 142 52 215 -19 q 68 238 68 124 q 72 292 68 265 l 167 960 l 340 960 l 246 285 q 243 243 243 257 q 367 118 243 118 q 485 164 442 118 q 542 292 529 210 l 635 960 l 810 960 l 715 283 m 500 1049 q 364 1106 411 1049 q 321 1247 317 1163 l 417 1261 q 507 1171 428 1171 q 581 1197 550 1171 q 629 1267 611 1224 l 726 1240 q 647 1102 707 1156 q 500 1049 588 1049 z "},"Ǔ":{"ha":810,"x_min":68,"x_max":810,"o":"m 715 283 q 656 128 703 197 q 533 20 610 60 q 354 -19 456 -19 q 142 52 215 -19 q 68 238 68 124 q 72 292 68 265 l 167 960 l 340 960 l 246 285 q 243 243 243 257 q 367 118 243 118 q 485 164 442 118 q 542 292 529 210 l 635 960 l 810 960 l 715 283 m 686 1285 l 747 1213 l 551 1044 l 447 1044 l 296 1217 l 365 1285 l 511 1169 l 686 1285 z "},"Û":{"ha":810,"x_min":68,"x_max":810,"o":"m 715 283 q 656 128 703 197 q 533 20 610 60 q 354 -19 456 -19 q 142 52 215 -19 q 68 238 68 124 q 72 292 68 265 l 167 960 l 340 960 l 246 285 q 243 243 243 257 q 367 118 243 118 q 485 164 442 118 q 542 292 529 210 l 635 960 l 810 960 l 715 283 m 338 1051 l 276 1125 l 474 1292 l 578 1292 l 728 1121 l 660 1051 l 513 1167 l 338 1051 z "},"Ȕ":{"ha":810,"x_min":68,"x_max":810,"o":"m 715 283 q 656 128 703 197 q 533 20 610 60 q 354 -19 456 -19 q 142 52 215 -19 q 68 238 68 124 q 72 292 68 265 l 167 960 l 340 960 l 246 285 q 243 243 243 257 q 367 118 243 118 q 485 164 442 118 q 542 292 529 210 l 635 960 l 810 960 l 715 283 m 379 1349 l 461 1090 l 361 1050 l 247 1289 l 379 1349 m 585 1349 l 656 1093 l 557 1057 l 451 1292 l 585 1349 z "},"Ü":{"ha":810,"x_min":68,"x_max":810,"o":"m 715 283 q 656 128 703 197 q 533 20 610 60 q 354 -19 456 -19 q 142 52 215 -19 q 68 238 68 124 q 72 292 68 265 l 167 960 l 340 960 l 246 285 q 243 243 243 257 q 367 118 243 118 q 485 164 442 118 q 542 292 529 210 l 635 960 l 810 960 l 715 283 m 368 1076 q 308 1099 331 1076 q 285 1157 285 1121 q 315 1231 285 1201 q 388 1260 344 1260 q 448 1238 425 1260 q 471 1179 471 1215 q 441 1106 471 1135 q 368 1076 411 1076 m 646 1076 q 585 1099 608 1076 q 563 1157 563 1121 q 592 1231 563 1201 q 665 1260 622 1260 q 726 1238 703 1260 q 749 1179 749 1215 q 719 1106 749 1135 q 646 1076 689 1076 z "},"Ǘ":{"ha":810,"x_min":68,"x_max":810,"o":"m 715 283 q 656 128 703 197 q 533 20 610 60 q 354 -19 456 -19 q 142 52 215 -19 q 68 238 68 124 q 72 292 68 265 l 167 960 l 340 960 l 246 285 q 243 243 243 257 q 367 118 243 118 q 485 164 442 118 q 542 292 529 210 l 635 960 l 810 960 l 715 283 m 646 1463 l 731 1372 l 518 1183 l 457 1240 l 646 1463 m 357 1039 q 297 1062 319 1039 q 274 1121 274 1085 q 303 1194 274 1165 q 376 1224 333 1224 q 437 1201 414 1224 q 460 1143 460 1179 q 430 1069 460 1099 q 357 1039 400 1039 m 643 1039 q 583 1062 606 1039 q 560 1121 560 1085 q 590 1194 560 1165 q 663 1224 619 1224 q 723 1201 700 1224 q 746 1143 746 1179 q 716 1069 746 1099 q 643 1039 686 1039 z "},"Ǚ":{"ha":810,"x_min":68,"x_max":810,"o":"m 715 283 q 656 128 703 197 q 533 20 610 60 q 354 -19 456 -19 q 142 52 215 -19 q 68 238 68 124 q 72 292 68 265 l 167 960 l 340 960 l 246 285 q 243 243 243 257 q 367 118 243 118 q 485 164 442 118 q 542 292 529 210 l 635 960 l 810 960 l 715 283 m 703 1468 l 764 1396 l 568 1228 l 464 1228 l 313 1400 l 382 1468 l 528 1353 l 703 1468 m 354 1039 q 294 1062 317 1039 q 271 1121 271 1085 q 301 1194 271 1165 q 374 1224 331 1224 q 434 1201 411 1224 q 457 1143 457 1179 q 427 1068 457 1097 q 354 1039 397 1039 m 640 1039 q 581 1062 603 1039 q 558 1121 558 1085 q 588 1194 558 1165 q 661 1224 618 1224 q 721 1201 699 1224 q 743 1143 743 1179 q 713 1069 743 1099 q 640 1039 683 1039 z "},"Ǜ":{"ha":810,"x_min":68,"x_max":810,"o":"m 715 283 q 656 128 703 197 q 533 20 610 60 q 354 -19 456 -19 q 142 52 215 -19 q 68 238 68 124 q 72 292 68 265 l 167 960 l 340 960 l 246 285 q 243 243 243 257 q 367 118 243 118 q 485 164 442 118 q 542 292 529 210 l 635 960 l 810 960 l 715 283 m 453 1460 l 579 1235 l 510 1183 l 347 1378 l 453 1460 m 354 1039 q 294 1062 317 1039 q 271 1121 271 1085 q 301 1194 271 1165 q 374 1224 331 1224 q 434 1201 411 1224 q 457 1143 457 1179 q 427 1069 457 1099 q 354 1039 397 1039 m 640 1039 q 580 1062 603 1039 q 557 1121 557 1085 q 587 1194 557 1165 q 660 1224 617 1224 q 720 1201 697 1224 q 743 1143 743 1179 q 713 1069 743 1099 q 640 1039 683 1039 z "},"Ǖ":{"ha":810,"x_min":68,"x_max":810,"o":"m 715 283 q 656 128 703 197 q 533 20 610 60 q 354 -19 456 -19 q 142 52 215 -19 q 68 238 68 124 q 72 292 68 265 l 167 960 l 340 960 l 246 285 q 243 243 243 257 q 367 118 243 118 q 485 164 442 118 q 542 292 529 210 l 635 960 l 810 960 l 715 283 m 356 1038 q 295 1060 318 1038 q 272 1118 272 1082 q 302 1192 272 1163 q 375 1221 332 1221 q 435 1199 413 1221 q 458 1140 458 1176 q 428 1067 458 1096 q 356 1038 399 1038 m 633 1038 q 573 1060 596 1038 q 550 1118 550 1082 q 580 1192 550 1163 q 653 1221 610 1221 q 713 1199 690 1221 q 736 1140 736 1176 q 706 1067 736 1096 q 633 1038 676 1038 m 701 1281 l 339 1281 l 357 1403 l 719 1403 l 701 1281 z "},"Ụ":{"ha":810,"x_min":68,"x_max":810,"o":"m 715 283 q 656 128 703 197 q 533 20 610 60 q 354 -19 456 -19 q 142 52 215 -19 q 68 238 68 124 q 72 292 68 265 l 167 960 l 340 960 l 246 285 q 243 243 243 257 q 367 118 243 118 q 485 164 442 118 q 542 292 529 210 l 635 960 l 810 960 l 715 283 m 333 -94 q 403 -120 378 -94 q 428 -186 428 -146 q 394 -270 428 -237 q 313 -303 361 -303 q 244 -277 269 -303 q 218 -211 218 -251 q 251 -128 218 -161 q 333 -94 285 -94 z "},"Ù":{"ha":810,"x_min":68,"x_max":810,"o":"m 715 283 q 656 128 703 197 q 533 20 610 60 q 354 -19 456 -19 q 142 52 215 -19 q 68 238 68 124 q 72 292 68 265 l 167 960 l 340 960 l 246 285 q 243 243 243 257 q 367 118 243 118 q 485 164 442 118 q 542 292 529 210 l 635 960 l 810 960 l 715 283 m 439 1282 l 682 1126 l 631 1044 l 364 1154 l 439 1282 z "},"Ủ":{"ha":810,"x_min":68,"x_max":810,"o":"m 715 283 q 656 128 703 197 q 533 20 610 60 q 354 -19 456 -19 q 142 52 215 -19 q 68 238 68 124 q 72 292 68 265 l 167 960 l 340 960 l 246 285 q 243 243 243 257 q 367 118 243 118 q 485 164 442 118 q 542 292 529 210 l 635 960 l 810 960 l 715 283 m 464 1181 q 538 1201 514 1186 q 563 1247 563 1215 q 551 1275 563 1265 q 519 1285 540 1285 q 444 1265 483 1285 l 421 1349 q 547 1381 481 1381 q 649 1346 613 1381 q 685 1256 685 1311 q 564 1124 685 1146 l 556 1061 l 450 1061 l 464 1181 z "},"Ư":{"ha":875,"x_min":68,"x_max":981,"o":"m 981 992 q 931 849 981 899 q 786 793 881 799 l 715 283 q 656 128 703 197 q 533 20 610 60 q 354 -19 456 -19 q 142 52 215 -19 q 68 238 68 124 q 72 292 68 265 l 167 960 l 340 960 l 246 285 q 243 243 243 257 q 367 118 243 118 q 485 164 442 118 q 542 292 529 210 l 635 960 l 810 960 l 800 889 q 861 992 861 904 q 854 1056 861 1025 l 971 1071 q 981 992 981 1038 z "},"Ứ":{"ha":875,"x_min":68,"x_max":981,"o":"m 688 1154 l 390 1043 l 351 1128 l 629 1285 l 688 1154 m 981 992 q 931 849 981 899 q 786 793 881 799 l 715 283 q 656 128 703 197 q 533 20 610 60 q 354 -19 456 -19 q 142 52 215 -19 q 68 238 68 124 q 72 292 68 265 l 167 960 l 340 960 l 246 285 q 243 243 243 257 q 367 118 243 118 q 485 164 442 118 q 542 292 529 210 l 635 960 l 810 960 l 800 889 q 861 992 861 904 q 854 1056 861 1025 l 971 1071 q 981 992 981 1038 z "},"Ự":{"ha":875,"x_min":68,"x_max":981,"o":"m 981 992 q 931 849 981 899 q 786 793 881 799 l 715 283 q 656 128 703 197 q 533 20 610 60 q 354 -19 456 -19 q 142 52 215 -19 q 68 238 68 124 q 72 292 68 265 l 167 960 l 340 960 l 246 285 q 243 243 243 257 q 367 118 243 118 q 485 164 442 118 q 542 292 529 210 l 635 960 l 810 960 l 800 889 q 861 992 861 904 q 854 1056 861 1025 l 971 1071 q 981 992 981 1038 m 333 -94 q 403 -120 378 -94 q 428 -186 428 -146 q 395 -270 428 -237 q 313 -303 363 -303 q 244 -277 269 -303 q 218 -211 218 -251 q 251 -128 218 -161 q 333 -94 285 -94 z "},"Ừ":{"ha":875,"x_min":68,"x_max":981,"o":"m 682 1126 l 631 1044 l 364 1154 l 439 1282 l 682 1126 m 981 992 q 931 849 981 899 q 786 793 881 799 l 715 283 q 656 128 703 197 q 533 20 610 60 q 354 -19 456 -19 q 142 52 215 -19 q 68 238 68 124 q 72 292 68 265 l 167 960 l 340 960 l 246 285 q 243 243 243 257 q 367 118 243 118 q 485 164 442 118 q 542 292 529 210 l 635 960 l 810 960 l 800 889 q 861 992 861 904 q 854 1056 861 1025 l 971 1071 q 981 992 981 1038 z "},"Ử":{"ha":875,"x_min":68,"x_max":981,"o":"m 519 1285 q 444 1265 483 1285 l 421 1349 q 547 1381 481 1381 q 649 1346 613 1381 q 685 1256 685 1311 q 564 1124 685 1146 l 556 1061 l 450 1061 l 464 1181 q 538 1201 514 1186 q 563 1247 563 1215 q 551 1275 563 1265 q 519 1285 540 1285 m 981 992 q 931 849 981 899 q 786 793 881 799 l 715 283 q 656 128 703 197 q 533 20 610 60 q 354 -19 456 -19 q 142 52 215 -19 q 68 238 68 124 q 72 292 68 265 l 167 960 l 340 960 l 246 285 q 243 243 243 257 q 367 118 243 118 q 485 164 442 118 q 542 292 529 210 l 635 960 l 810 960 l 800 889 q 861 992 861 904 q 854 1056 861 1025 l 971 1071 q 981 992 981 1038 z "},"Ữ":{"ha":875,"x_min":68,"x_max":981,"o":"m 443 1136 q 406 1121 422 1136 q 367 1074 389 1106 l 286 1122 q 360 1223 318 1185 q 450 1261 403 1261 q 498 1251 478 1261 q 540 1222 518 1240 q 590 1197 571 1197 q 626 1212 610 1197 q 664 1257 643 1226 l 746 1210 q 671 1108 713 1144 q 583 1072 629 1072 q 540 1081 558 1072 q 494 1110 521 1090 q 466 1130 476 1124 q 443 1136 456 1136 m 981 992 q 931 849 981 899 q 786 793 881 799 l 715 283 q 656 128 703 197 q 533 20 610 60 q 354 -19 456 -19 q 142 52 215 -19 q 68 238 68 124 q 72 292 68 265 l 167 960 l 340 960 l 246 285 q 243 243 243 257 q 367 118 243 118 q 485 164 442 118 q 542 292 529 210 l 635 960 l 810 960 l 800 889 q 861 992 861 904 q 854 1056 861 1025 l 971 1071 q 981 992 981 1038 z "},"Ű":{"ha":810,"x_min":68,"x_max":810,"o":"m 715 283 q 656 128 703 197 q 533 20 610 60 q 354 -19 456 -19 q 142 52 215 -19 q 68 238 68 124 q 72 292 68 265 l 167 960 l 340 960 l 246 285 q 243 243 243 257 q 367 118 243 118 q 485 164 442 118 q 542 292 529 210 l 635 960 l 810 960 l 715 283 m 486 1349 l 597 1286 l 433 1057 l 346 1097 l 486 1349 m 692 1349 l 803 1283 l 628 1050 l 542 1093 l 692 1349 z "},"Ȗ":{"ha":810,"x_min":68,"x_max":810,"o":"m 715 283 q 656 128 703 197 q 533 20 610 60 q 354 -19 456 -19 q 142 52 215 -19 q 68 238 68 124 q 72 292 68 265 l 167 960 l 340 960 l 246 285 q 243 243 243 257 q 367 118 243 118 q 485 164 442 118 q 542 292 529 210 l 635 960 l 810 960 l 715 283 m 299 1092 q 383 1244 322 1188 q 532 1300 444 1300 q 668 1241 621 1300 q 710 1086 715 1182 l 611 1072 q 521 1176 603 1176 q 394 1067 433 1176 l 299 1092 z "},"Ū":{"ha":810,"x_min":68,"x_max":810,"o":"m 715 283 q 656 128 703 197 q 533 20 610 60 q 354 -19 456 -19 q 142 52 215 -19 q 68 238 68 124 q 72 292 68 265 l 167 960 l 340 960 l 246 285 q 243 243 243 257 q 367 118 243 118 q 485 164 442 118 q 542 292 529 210 l 635 960 l 810 960 l 715 283 m 688 1093 l 325 1093 l 343 1215 l 706 1215 l 688 1093 z "},"Ų":{"ha":810,"x_min":68,"x_max":810,"o":"m 810 960 l 715 283 q 638 103 700 179 q 474 -3 575 26 q 353 -80 386 -43 q 321 -158 321 -117 q 383 -215 321 -215 q 461 -206 421 -215 l 439 -321 q 354 -331 393 -331 q 235 -292 281 -331 q 190 -192 190 -254 q 322 -18 190 -81 q 133 60 199 -10 q 68 238 68 131 q 72 292 68 265 l 167 960 l 340 960 l 246 285 q 243 243 243 257 q 367 118 243 118 q 485 164 442 118 q 542 292 529 210 l 635 960 l 810 960 z "},"Ʊ":{"ha":871,"x_min":61,"x_max":871,"o":"m 381 -19 q 146 77 231 -19 q 61 336 61 174 q 297 828 61 678 l 153 828 l 171 960 l 458 960 l 442 829 q 288 622 336 763 q 240 328 240 482 q 392 115 240 115 q 543 187 483 115 q 630 367 603 258 q 657 592 657 476 q 635 736 657 682 q 567 833 614 790 l 585 960 l 871 960 l 853 825 l 708 825 q 801 715 769 779 q 833 557 833 651 q 780 275 833 407 q 624 62 726 143 q 381 -19 522 -19 z "},"Ů":{"ha":810,"x_min":68,"x_max":810,"o":"m 715 283 q 656 128 703 197 q 533 20 610 60 q 354 -19 456 -19 q 142 52 215 -19 q 68 238 68 124 q 72 292 68 265 l 167 960 l 340 960 l 246 285 q 243 243 243 257 q 367 118 243 118 q 485 164 442 118 q 542 292 529 210 l 635 960 l 810 960 l 715 283 m 539 1356 q 644 1315 606 1356 q 683 1210 683 1274 q 633 1082 683 1133 q 503 1031 582 1031 q 398 1072 438 1031 q 358 1176 358 1113 q 410 1303 358 1250 q 539 1356 461 1356 m 532 1268 q 479 1242 499 1268 q 460 1179 460 1215 q 473 1134 460 1150 q 510 1118 486 1118 q 564 1144 544 1118 q 583 1207 583 1169 q 570 1252 583 1236 q 532 1268 557 1268 z "},"Ũ":{"ha":810,"x_min":68,"x_max":810,"o":"m 715 283 q 656 128 703 197 q 533 20 610 60 q 354 -19 456 -19 q 142 52 215 -19 q 68 238 68 124 q 72 292 68 265 l 167 960 l 340 960 l 246 285 q 243 243 243 257 q 367 118 243 118 q 485 164 442 118 q 542 292 529 210 l 635 960 l 810 960 l 715 283 m 583 1072 q 540 1081 558 1072 q 494 1110 521 1090 q 466 1130 476 1124 q 443 1136 456 1136 q 406 1121 422 1136 q 367 1074 389 1106 l 286 1122 q 360 1223 318 1185 q 450 1261 403 1261 q 498 1251 478 1261 q 540 1222 518 1240 q 590 1197 571 1197 q 626 1212 610 1197 q 664 1257 643 1226 l 746 1210 q 671 1108 713 1144 q 583 1072 629 1072 z "},"Ṹ":{"ha":810,"x_min":68,"x_max":810,"o":"m 715 283 q 656 128 703 197 q 533 20 610 60 q 354 -19 456 -19 q 142 52 215 -19 q 68 238 68 124 q 72 292 68 265 l 167 960 l 340 960 l 246 285 q 243 243 243 257 q 367 118 243 118 q 485 164 442 118 q 542 292 529 210 l 635 960 l 810 960 l 715 283 m 581 1051 q 537 1060 556 1051 q 492 1089 518 1069 q 463 1109 474 1103 q 440 1115 453 1115 q 403 1100 419 1115 q 364 1053 386 1085 l 283 1101 q 358 1202 315 1164 q 447 1240 400 1240 q 495 1230 475 1240 q 538 1201 515 1219 q 588 1176 568 1176 q 624 1191 607 1176 q 661 1236 640 1206 l 743 1189 q 668 1088 710 1124 q 581 1051 626 1051 m 644 1513 l 703 1382 l 406 1271 l 367 1356 l 644 1513 z "},"V":{"ha":708,"x_min":79,"x_max":794,"o":"m 794 960 l 413 0 l 200 0 l 79 960 l 260 960 l 328 157 l 614 960 l 794 960 z "},"Ʋ":{"ha":800,"x_min":67,"x_max":786,"o":"m 633 979 q 747 940 708 979 q 786 824 786 900 q 783 776 786 793 l 729 385 q 597 88 703 194 q 332 -19 492 -19 q 138 51 208 -19 q 67 233 67 121 q 71 283 67 258 l 167 960 l 342 960 l 246 278 q 243 236 243 247 q 269 149 243 179 q 346 118 294 118 q 481 188 426 118 q 556 394 536 257 l 610 797 l 611 813 q 581 847 611 847 q 542 840 563 847 l 524 956 q 633 979 575 979 z "},"Ʌ":{"ha":732,"x_min":-56,"x_max":683,"o":"m 557 960 l 683 0 l 506 0 l 431 826 l 128 0 l -56 0 l 343 960 l 557 960 z "},"W":{"ha":1046,"x_min":106,"x_max":1106,"o":"m 1106 960 l 818 0 l 593 0 l 578 774 l 346 0 l 122 0 l 106 960 l 275 960 l 265 143 l 513 960 l 697 960 l 713 143 l 942 960 l 1106 960 z "},"Ẃ":{"ha":1046,"x_min":106,"x_max":1106,"o":"m 1106 960 l 818 0 l 593 0 l 578 774 l 346 0 l 122 0 l 106 960 l 275 960 l 265 143 l 513 960 l 697 960 l 713 143 l 942 960 l 1106 960 m 749 1285 l 807 1154 l 510 1043 l 471 1128 l 749 1285 z "},"Ŵ":{"ha":1046,"x_min":106,"x_max":1106,"o":"m 1106 960 l 818 0 l 593 0 l 578 774 l 346 0 l 122 0 l 106 960 l 275 960 l 265 143 l 513 960 l 697 960 l 713 143 l 942 960 l 1106 960 m 457 1051 l 396 1125 l 593 1292 l 697 1292 l 847 1121 l 779 1051 l 632 1167 l 457 1051 z "},"Ẅ":{"ha":1046,"x_min":106,"x_max":1106,"o":"m 1106 960 l 818 0 l 593 0 l 578 774 l 346 0 l 122 0 l 106 960 l 275 960 l 265 143 l 513 960 l 697 960 l 713 143 l 942 960 l 1106 960 m 488 1076 q 427 1099 450 1076 q 404 1157 404 1121 q 434 1231 404 1201 q 507 1260 464 1260 q 567 1238 544 1260 q 590 1179 590 1215 q 560 1106 590 1135 q 488 1076 531 1076 m 765 1076 q 705 1099 728 1076 q 682 1157 682 1121 q 712 1231 682 1201 q 785 1260 742 1260 q 845 1238 822 1260 q 868 1179 868 1215 q 838 1106 868 1135 q 765 1076 808 1076 z "},"Ẁ":{"ha":1046,"x_min":106,"x_max":1106,"o":"m 1106 960 l 818 0 l 593 0 l 578 774 l 346 0 l 122 0 l 106 960 l 275 960 l 265 143 l 513 960 l 697 960 l 713 143 l 942 960 l 1106 960 m 558 1282 l 801 1126 l 750 1044 l 483 1154 l 558 1282 z "},"Ⱳ":{"ha":1097,"x_min":106,"x_max":1235,"o":"m 346 0 l 578 774 l 593 0 l 817 0 l 1032 781 q 1060 833 1042 817 q 1104 850 1078 850 q 1167 826 1133 850 l 1235 922 q 1090 979 1175 979 q 958 938 1010 979 q 883 799 907 896 l 713 142 l 697 960 l 513 960 l 265 143 l 275 960 l 106 960 l 122 0 l 346 0 z "},"Ƿ":{"ha":731,"x_min":44,"x_max":756,"o":"m 544 979 q 697 918 638 979 q 756 750 756 857 q 706 560 756 640 q 572 426 656 481 q 365 324 488 372 l 258 281 l 219 0 l 44 0 l 181 960 l 354 960 l 346 901 q 544 979 432 979 m 351 450 q 574 738 574 556 q 481 847 574 847 q 329 778 401 847 l 278 415 l 351 450 z "},"X":{"ha":699,"x_min":-54,"x_max":760,"o":"m 760 960 l 469 517 l 649 0 l 463 0 l 354 401 l 136 0 l -54 0 l 263 511 l 101 960 l 288 960 l 378 617 l 571 960 l 760 960 z "},"Y":{"ha":714,"x_min":79,"x_max":801,"o":"m 801 960 l 444 364 l 393 0 l 217 0 l 268 364 l 79 960 l 264 960 l 375 507 l 613 960 l 801 960 z "},"Ý":{"ha":714,"x_min":79,"x_max":801,"o":"m 801 960 l 444 364 l 393 0 l 217 0 l 268 364 l 79 960 l 264 960 l 375 507 l 613 960 l 801 960 m 581 1285 l 639 1154 l 342 1043 l 303 1128 l 581 1285 z "},"Ŷ":{"ha":714,"x_min":79,"x_max":801,"o":"m 801 960 l 444 364 l 393 0 l 217 0 l 268 364 l 79 960 l 264 960 l 375 507 l 613 960 l 801 960 m 289 1051 l 228 1125 l 425 1292 l 529 1292 l 679 1121 l 611 1051 l 464 1167 l 289 1051 z "},"Ÿ":{"ha":714,"x_min":79,"x_max":801,"o":"m 801 960 l 444 364 l 393 0 l 217 0 l 268 364 l 79 960 l 264 960 l 375 507 l 613 960 l 801 960 m 319 1076 q 259 1099 282 1076 q 236 1157 236 1121 q 266 1231 236 1201 q 339 1260 296 1260 q 399 1238 376 1260 q 422 1179 422 1215 q 392 1106 422 1135 q 319 1076 363 1076 m 597 1076 q 537 1099 560 1076 q 514 1157 514 1121 q 544 1231 514 1201 q 617 1260 574 1260 q 677 1238 654 1260 q 700 1179 700 1215 q 670 1106 700 1135 q 597 1076 640 1076 z "},"Ỵ":{"ha":714,"x_min":79,"x_max":801,"o":"m 801 960 l 444 364 l 393 0 l 217 0 l 268 364 l 79 960 l 264 960 l 375 507 l 613 960 l 801 960 m 286 -94 q 356 -120 331 -94 q 381 -186 381 -146 q 347 -270 381 -237 q 265 -303 314 -303 q 197 -277 222 -303 q 171 -211 171 -251 q 204 -128 171 -161 q 286 -94 238 -94 z "},"Ỳ":{"ha":714,"x_min":79,"x_max":801,"o":"m 801 960 l 444 364 l 393 0 l 217 0 l 268 364 l 79 960 l 264 960 l 375 507 l 613 960 l 801 960 m 390 1282 l 633 1126 l 582 1044 l 315 1154 l 390 1282 z "},"Ƴ":{"ha":750,"x_min":79,"x_max":888,"o":"m 268 364 l 79 960 l 264 960 l 375 507 l 529 819 q 619 943 571 907 q 743 979 667 979 q 888 922 828 979 l 819 828 q 757 850 789 850 q 714 835 732 850 q 675 782 696 821 l 444 365 l 393 0 l 217 0 l 268 364 z "},"Ỷ":{"ha":714,"x_min":79,"x_max":801,"o":"m 801 960 l 444 364 l 393 0 l 217 0 l 268 364 l 79 960 l 264 960 l 375 507 l 613 960 l 801 960 m 415 1181 q 490 1201 465 1186 q 514 1247 514 1215 q 503 1275 514 1265 q 471 1285 492 1285 q 396 1265 435 1285 l 372 1349 q 499 1381 432 1381 q 600 1346 564 1381 q 636 1256 636 1311 q 515 1124 636 1146 l 507 1061 l 401 1061 l 415 1181 z "},"Ȳ":{"ha":714,"x_min":79,"x_max":801,"o":"m 801 960 l 444 364 l 393 0 l 217 0 l 268 364 l 79 960 l 264 960 l 375 507 l 613 960 l 801 960 m 639 1093 l 276 1093 l 294 1215 l 657 1215 l 639 1093 z "},"Ʀ":{"ha":765,"x_min":46,"x_max":725,"o":"m 725 557 q 675 378 725 457 q 519 256 625 299 l 681 -165 l 496 -165 l 357 222 l 250 222 l 219 0 l 46 0 l 181 960 l 354 960 l 331 796 l 410 796 q 646 734 567 796 q 725 557 725 672 m 268 350 l 358 350 q 501 408 458 350 q 544 549 544 467 q 510 638 544 610 q 400 665 475 665 l 313 665 l 268 350 z "},"Ɏ":{"ha":714,"x_min":50,"x_max":803,"o":"m 735 846 l 785 846 l 769 736 l 668 736 l 444 364 l 394 0 l 218 0 l 269 364 l 151 736 l 50 736 l 67 846 l 117 846 l 81 960 l 254 960 l 285 846 l 564 846 l 625 960 l 803 960 l 735 846 m 376 497 l 504 736 l 314 736 l 376 497 z "},"Ỹ":{"ha":714,"x_min":79,"x_max":801,"o":"m 801 960 l 444 364 l 393 0 l 217 0 l 268 364 l 79 960 l 264 960 l 375 507 l 613 960 l 801 960 m 535 1072 q 491 1081 510 1072 q 446 1110 472 1090 q 417 1130 428 1124 q 394 1136 407 1136 q 357 1121 374 1136 q 318 1074 340 1106 l 238 1122 q 312 1223 269 1185 q 401 1261 354 1261 q 449 1251 429 1261 q 492 1222 469 1240 q 542 1197 522 1197 q 578 1212 561 1197 q 615 1257 594 1226 l 697 1210 q 622 1108 664 1144 q 535 1072 581 1072 z "},"Z":{"ha":660,"x_min":-25,"x_max":700,"o":"m -25 0 l -7 136 l 486 818 l 129 818 l 150 960 l 700 960 l 681 822 l 190 144 l 592 144 l 551 0 l -25 0 z "},"Ź":{"ha":660,"x_min":-25,"x_max":700,"o":"m -25 0 l -7 136 l 486 818 l 129 818 l 150 960 l 700 960 l 681 822 l 190 144 l 592 144 l 551 0 l -25 0 m 564 1285 l 622 1154 l 325 1043 l 286 1128 l 564 1285 z "},"Ž":{"ha":660,"x_min":-25,"x_max":700,"o":"m -25 0 l -7 136 l 486 818 l 129 818 l 150 960 l 700 960 l 681 822 l 190 144 l 592 144 l 551 0 l -25 0 m 621 1285 l 682 1213 l 486 1044 l 382 1044 l 231 1217 l 300 1285 l 446 1169 l 621 1285 z "},"Ż":{"ha":660,"x_min":-25,"x_max":700,"o":"m -25 0 l -7 136 l 486 818 l 129 818 l 150 960 l 700 960 l 681 822 l 190 144 l 592 144 l 551 0 l -25 0 m 444 1069 q 375 1095 400 1069 q 350 1161 350 1121 q 383 1245 350 1213 q 465 1278 415 1278 q 534 1252 508 1278 q 560 1186 560 1226 q 526 1103 560 1136 q 444 1069 493 1069 z "},"Ẓ":{"ha":660,"x_min":-25,"x_max":700,"o":"m -25 0 l -7 136 l 486 818 l 129 818 l 150 960 l 700 960 l 681 822 l 190 144 l 592 144 l 551 0 l -25 0 m 244 -94 q 314 -120 289 -94 q 339 -186 339 -146 q 306 -270 339 -237 q 224 -303 272 -303 q 155 -277 181 -303 q 129 -211 129 -251 q 163 -128 129 -161 q 244 -94 196 -94 z "},"Ȥ":{"ha":654,"x_min":-25,"x_max":700,"o":"m 681 822 l 190 144 l 581 144 l 560 0 l 547 -78 q 465 -244 531 -187 q 303 -301 400 -301 q 140 -244 208 -301 l 211 -143 q 252 -164 235 -157 q 294 -171 269 -171 q 353 -147 331 -171 q 381 -78 375 -124 l 392 0 l -25 0 l -7 136 l 486 818 l 129 818 l 150 960 l 700 960 l 681 822 z "},"Ƶ":{"ha":660,"x_min":-25,"x_max":700,"o":"m 700 960 l 681 822 l 474 540 l 578 540 l 560 421 l 385 421 l 182 144 l 592 144 l 551 0 l -25 0 l -7 136 l 203 421 l 90 421 l 108 540 l 292 540 l 496 818 l 129 818 l 150 960 l 700 960 z "},"ʙ":{"ha":672,"x_min":40,"x_max":639,"o":"m 639 578 q 471 400 639 435 q 622 256 622 383 q 533 65 622 129 q 297 0 444 0 l 40 0 l 142 726 q 383 754 265 754 q 571 708 503 754 q 639 578 639 661 m 344 442 q 438 473 404 442 q 471 563 471 504 q 447 619 471 601 q 375 638 424 638 q 296 631 338 638 l 269 442 l 344 442 m 294 119 q 408 153 363 119 q 453 261 453 186 q 426 321 453 304 q 343 338 399 338 l 254 338 l 224 119 l 294 119 z "},"ɢ":{"ha":700,"x_min":46,"x_max":665,"o":"m 431 756 q 564 730 508 756 q 665 658 619 704 l 571 567 q 503 612 536 597 q 428 626 471 626 q 274 519 326 626 q 221 263 221 413 q 249 144 221 181 q 335 108 278 108 q 442 133 388 108 l 464 303 l 367 303 l 367 422 l 639 422 l 589 61 q 463 3 532 25 q 319 -18 394 -18 q 115 55 185 -18 q 46 269 46 128 q 96 520 47 410 q 232 693 144 631 q 431 756 319 756 z "},"ʛ":{"ha":700,"x_min":46,"x_max":917,"o":"m 761 1047 q 917 993 851 1047 l 851 890 q 812 910 831 904 q 771 917 793 917 q 688 824 700 917 l 665 658 l 582 578 q 506 615 542 603 q 428 626 469 626 q 273 520 325 626 q 221 263 221 414 q 249 144 221 181 q 333 108 278 108 q 440 133 389 108 l 464 303 l 367 303 l 367 422 l 638 422 l 588 61 q 463 3 531 25 q 319 -18 394 -18 q 115 55 185 -18 q 46 269 46 128 q 95 520 46 410 q 229 693 144 631 q 419 756 314 756 q 524 736 476 756 l 539 838 q 610 994 554 940 q 761 1047 667 1047 z "},"ʜ":{"ha":729,"x_min":40,"x_max":689,"o":"m 418 0 l 461 310 l 251 310 l 208 0 l 40 0 l 143 735 l 311 735 l 269 439 l 479 439 l 521 735 l 689 735 l 586 0 l 418 0 z "},"ɪ":{"ha":408,"x_min":-32,"x_max":439,"o":"m 422 611 l 322 611 l 253 124 l 354 124 l 336 0 l -32 0 l -14 124 l 85 124 l 154 611 l 54 611 l 71 735 l 439 735 l 422 611 z "},"ʟ":{"ha":549,"x_min":40,"x_max":507,"o":"m 311 735 l 229 136 l 507 136 l 468 0 l 40 0 l 143 735 l 311 735 z "},"ɴ":{"ha":731,"x_min":40,"x_max":690,"o":"m 588 0 l 385 0 l 246 576 q 240 417 244 488 q 222 250 236 346 l 188 0 l 40 0 l 143 735 l 344 735 l 485 157 q 487 293 485 239 q 500 419 489 347 l 543 735 l 690 735 l 588 0 z "},"ɶ":{"ha":939,"x_min":47,"x_max":963,"o":"m 928 611 l 636 611 q 678 442 681 539 l 678 433 l 871 433 l 854 313 l 661 313 q 564 124 632 199 l 878 124 l 861 0 l 419 0 q 308 -21 364 -21 q 116 57 185 -21 q 47 274 47 135 q 85 499 47 389 q 207 682 124 610 q 418 754 290 754 q 524 735 481 754 l 963 735 l 928 611 m 219 256 q 245 145 219 181 q 322 110 271 110 q 433 170 390 110 q 492 315 475 231 q 511 479 510 399 q 408 625 511 625 q 297 565 339 625 q 237 420 254 504 q 219 256 219 336 z "},"ʀ":{"ha":663,"x_min":40,"x_max":611,"o":"m 611 529 q 457 299 611 364 l 585 0 l 415 0 l 310 269 l 240 269 l 203 0 l 40 0 l 143 735 l 350 735 q 544 683 478 735 q 611 529 611 631 m 257 388 l 314 388 q 413 424 379 388 q 446 524 446 460 q 420 592 446 572 q 340 613 394 613 l 288 613 l 257 388 z "},"ʁ":{"ha":664,"x_min":40,"x_max":689,"o":"m 476 433 q 575 267 575 382 q 490 67 575 135 q 260 0 404 0 l 40 0 l 143 735 l 306 735 l 268 465 l 340 465 l 518 735 l 689 735 l 476 433 m 267 122 q 371 157 333 122 q 408 260 408 192 q 383 326 408 306 q 308 346 357 346 l 251 346 l 219 122 l 267 122 z "},"ʏ":{"ha":621,"x_min":54,"x_max":671,"o":"m 671 735 l 382 272 l 343 0 l 175 0 l 214 271 l 54 735 l 231 735 l 313 392 l 490 735 l 671 735 z "},"a":{"ha":724,"x_min":43,"x_max":682,"o":"m 433 754 q 682 689 560 754 l 610 189 q 607 153 607 161 q 615 117 607 132 q 643 94 624 103 l 592 -18 q 453 97 474 -4 q 365 10 413 40 q 256 -21 317 -21 q 99 52 156 -21 q 43 250 43 125 q 83 488 43 372 q 212 678 124 603 q 433 754 300 754 m 428 628 q 309 571 357 628 q 239 427 261 514 q 217 249 217 340 q 239 142 217 175 q 304 108 261 108 q 378 138 344 108 q 449 222 413 167 l 504 614 q 428 628 468 628 z "},"á":{"ha":724,"x_min":43,"x_max":682,"o":"m 433 754 q 682 689 560 754 l 610 189 q 607 153 607 161 q 615 117 607 132 q 643 94 624 103 l 592 -18 q 453 97 474 -4 q 365 10 413 40 q 256 -21 317 -21 q 99 52 156 -21 q 43 250 43 125 q 83 488 43 372 q 212 678 124 603 q 433 754 300 754 m 428 628 q 309 571 357 628 q 239 427 261 514 q 217 249 217 340 q 239 142 217 175 q 304 108 261 108 q 378 138 344 108 q 449 222 413 167 l 504 614 q 428 628 468 628 m 588 1132 l 647 1001 l 349 876 l 307 961 l 588 1132 z "},"ă":{"ha":724,"x_min":43,"x_max":689,"o":"m 433 754 q 682 689 560 754 l 610 189 q 607 153 607 161 q 615 117 607 132 q 643 94 624 103 l 592 -18 q 453 97 474 -4 q 365 10 413 40 q 256 -21 317 -21 q 99 52 156 -21 q 43 250 43 125 q 83 488 43 372 q 212 678 124 603 q 433 754 300 754 m 428 628 q 309 571 357 628 q 239 427 261 514 q 217 249 217 340 q 239 142 217 175 q 304 108 261 108 q 378 138 344 108 q 449 222 413 167 l 504 614 q 428 628 468 628 m 463 886 q 325 946 372 886 q 283 1100 278 1006 l 382 1114 q 408 1036 386 1063 q 469 1010 429 1010 q 544 1038 513 1010 q 596 1118 576 1067 l 689 1093 q 610 942 669 999 q 463 886 550 886 z "},"ắ":{"ha":724,"x_min":43,"x_max":696,"o":"m 611 1317 l 696 1226 l 483 1038 l 422 1094 l 611 1317 m 463 833 q 326 890 374 833 q 283 1032 279 947 l 379 1046 q 469 956 390 956 q 543 982 513 956 q 592 1051 574 1008 l 689 1025 q 610 887 669 940 q 463 833 550 833 m 433 754 q 682 689 560 754 l 610 189 q 607 153 607 161 q 615 117 607 132 q 643 94 624 103 l 592 -18 q 453 97 474 -4 q 365 10 413 40 q 256 -21 317 -21 q 99 52 156 -21 q 43 250 43 125 q 83 488 43 372 q 212 678 124 603 q 433 754 300 754 m 428 628 q 309 571 357 628 q 239 427 261 514 q 217 249 217 340 q 239 142 217 175 q 304 108 261 108 q 378 138 344 108 q 449 222 413 167 l 504 614 q 428 628 468 628 z "},"ặ":{"ha":724,"x_min":43,"x_max":689,"o":"m 433 754 q 682 689 560 754 l 610 189 q 607 153 607 161 q 615 117 607 132 q 643 94 624 103 l 592 -18 q 453 97 474 -4 q 365 10 413 40 q 256 -21 317 -21 q 99 52 156 -21 q 43 250 43 125 q 83 488 43 372 q 212 678 124 603 q 433 754 300 754 m 428 628 q 309 571 357 628 q 239 427 261 514 q 217 249 217 340 q 239 142 217 175 q 304 108 261 108 q 378 138 344 108 q 449 222 413 167 l 504 614 q 428 628 468 628 m 463 886 q 325 946 372 886 q 283 1100 278 1006 l 382 1114 q 408 1036 386 1063 q 469 1010 429 1010 q 544 1038 513 1010 q 596 1118 576 1067 l 689 1093 q 610 942 669 999 q 463 886 550 886 m 322 -94 q 392 -120 367 -94 q 417 -186 417 -146 q 383 -270 417 -237 q 301 -303 350 -303 q 233 -277 258 -303 q 207 -211 207 -251 q 240 -128 207 -161 q 322 -94 274 -94 z "},"ằ":{"ha":724,"x_min":43,"x_max":689,"o":"m 415 1314 l 542 1089 l 472 1038 l 310 1232 l 415 1314 m 463 833 q 326 890 374 833 q 283 1032 279 947 l 379 1046 q 469 956 390 956 q 543 982 513 956 q 592 1051 574 1008 l 689 1025 q 610 887 669 940 q 463 833 550 833 m 433 754 q 682 689 560 754 l 610 189 q 607 153 607 161 q 615 117 607 132 q 643 94 624 103 l 592 -18 q 453 97 474 -4 q 365 10 413 40 q 256 -21 317 -21 q 99 52 156 -21 q 43 250 43 125 q 83 488 43 372 q 212 678 124 603 q 433 754 300 754 m 428 628 q 309 571 357 628 q 239 427 261 514 q 217 249 217 340 q 239 142 217 175 q 304 108 261 108 q 378 138 344 108 q 449 222 413 167 l 504 614 q 428 628 468 628 z "},"ẳ":{"ha":724,"x_min":43,"x_max":692,"o":"m 433 754 q 682 689 560 754 l 610 189 q 607 153 607 161 q 615 117 607 132 q 643 94 624 103 l 592 -18 q 453 97 474 -4 q 365 10 413 40 q 256 -21 317 -21 q 99 52 156 -21 q 43 250 43 125 q 83 488 43 372 q 212 678 124 603 q 433 754 300 754 m 428 628 q 309 571 357 628 q 239 427 261 514 q 217 249 217 340 q 239 142 217 175 q 304 108 261 108 q 378 138 344 108 q 449 222 413 167 l 504 614 q 428 628 468 628 m 465 833 q 329 890 376 833 q 286 1032 282 947 l 382 1046 q 472 956 393 956 q 546 982 515 956 q 594 1051 576 1008 l 692 1025 q 613 887 672 940 q 465 833 553 833 m 447 1163 q 520 1183 496 1168 q 544 1229 544 1197 q 501 1267 544 1267 q 428 1247 467 1267 l 404 1331 q 529 1363 460 1363 q 631 1328 594 1363 q 668 1239 668 1294 q 547 1106 668 1128 l 536 1029 l 431 1029 l 447 1163 z "},"ẵ":{"ha":724,"x_min":43,"x_max":726,"o":"m 565 1088 q 519 1097 539 1088 q 478 1125 500 1107 q 464 1135 475 1128 q 444 1147 453 1143 q 426 1150 435 1150 q 389 1135 406 1150 q 350 1089 372 1121 l 269 1136 q 344 1234 303 1197 q 433 1271 386 1271 q 480 1262 461 1271 q 522 1235 499 1253 q 572 1210 553 1210 q 608 1224 592 1210 q 646 1267 625 1238 l 726 1221 q 652 1122 693 1157 q 565 1088 611 1088 m 458 833 q 322 890 369 833 q 279 1032 275 947 l 375 1046 q 465 956 386 956 q 539 982 508 956 q 588 1051 569 1008 l 685 1025 q 606 887 665 940 q 458 833 546 833 m 433 754 q 682 689 560 754 l 610 189 q 607 153 607 161 q 615 117 607 132 q 643 94 624 103 l 592 -18 q 453 97 474 -4 q 365 10 413 40 q 256 -21 317 -21 q 99 52 156 -21 q 43 250 43 125 q 83 488 43 372 q 212 678 124 603 q 433 754 300 754 m 428 628 q 309 571 357 628 q 239 427 261 514 q 217 249 217 340 q 239 142 217 175 q 304 108 261 108 q 378 138 344 108 q 449 222 413 167 l 504 614 q 428 628 468 628 z "},"ǎ":{"ha":724,"x_min":43,"x_max":706,"o":"m 433 754 q 682 689 560 754 l 610 189 q 607 153 607 161 q 615 117 607 132 q 643 94 624 103 l 592 -18 q 453 97 474 -4 q 365 10 413 40 q 256 -21 317 -21 q 99 52 156 -21 q 43 250 43 125 q 83 488 43 372 q 212 678 124 603 q 433 754 300 754 m 428 628 q 309 571 357 628 q 239 427 261 514 q 217 249 217 340 q 239 142 217 175 q 304 108 261 108 q 378 138 344 108 q 449 222 413 167 l 504 614 q 428 628 468 628 m 649 1106 l 706 1033 l 510 861 l 406 861 l 256 1033 l 324 1106 l 467 986 l 649 1106 z "},"â":{"ha":724,"x_min":43,"x_max":697,"o":"m 433 754 q 682 689 560 754 l 610 189 q 607 153 607 161 q 615 117 607 132 q 643 94 624 103 l 592 -18 q 453 97 474 -4 q 365 10 413 40 q 256 -21 317 -21 q 99 52 156 -21 q 43 250 43 125 q 83 488 43 372 q 212 678 124 603 q 433 754 300 754 m 428 628 q 309 571 357 628 q 239 427 261 514 q 217 249 217 340 q 239 142 217 175 q 304 108 261 108 q 378 138 344 108 q 449 222 413 167 l 504 614 q 428 628 468 628 m 306 874 l 244 947 l 443 1119 l 546 1119 l 697 943 l 624 874 l 481 994 l 306 874 z "},"ấ":{"ha":724,"x_min":43,"x_max":867,"o":"m 782 1281 l 867 1190 l 654 1001 l 593 1058 l 782 1281 m 292 815 l 231 889 l 428 1056 l 532 1056 l 682 885 l 614 815 l 467 931 l 292 815 m 433 754 q 682 689 560 754 l 610 189 q 607 153 607 161 q 615 117 607 132 q 643 94 624 103 l 592 -18 q 453 97 474 -4 q 365 10 413 40 q 256 -21 317 -21 q 99 52 156 -21 q 43 250 43 125 q 83 488 43 372 q 212 678 124 603 q 433 754 300 754 m 428 628 q 309 571 357 628 q 239 427 261 514 q 217 249 217 340 q 239 142 217 175 q 304 108 261 108 q 378 138 344 108 q 449 222 413 167 l 504 614 q 428 628 468 628 z "},"ậ":{"ha":724,"x_min":43,"x_max":697,"o":"m 433 754 q 682 689 560 754 l 610 189 q 607 153 607 161 q 615 117 607 132 q 643 94 624 103 l 592 -18 q 453 97 474 -4 q 365 10 413 40 q 256 -21 317 -21 q 99 52 156 -21 q 43 250 43 125 q 83 488 43 372 q 212 678 124 603 q 433 754 300 754 m 428 628 q 309 571 357 628 q 239 427 261 514 q 217 249 217 340 q 239 142 217 175 q 304 108 261 108 q 378 138 344 108 q 449 222 413 167 l 504 614 q 428 628 468 628 m 306 874 l 244 947 l 443 1119 l 546 1119 l 697 943 l 624 874 l 481 994 l 306 874 m 322 -94 q 392 -120 367 -94 q 417 -186 417 -146 q 383 -270 417 -237 q 301 -303 350 -303 q 233 -277 258 -303 q 207 -211 207 -251 q 240 -128 207 -161 q 322 -94 274 -94 z "},"ầ":{"ha":724,"x_min":43,"x_max":682,"o":"m 232 1278 l 358 1053 l 289 1001 l 126 1196 l 232 1278 m 290 815 l 229 889 l 426 1056 l 531 1056 l 681 885 l 613 815 l 465 931 l 290 815 m 433 754 q 682 689 560 754 l 610 189 q 607 153 607 161 q 615 117 607 132 q 643 94 624 103 l 592 -18 q 453 97 474 -4 q 365 10 413 40 q 256 -21 317 -21 q 99 52 156 -21 q 43 250 43 125 q 83 488 43 372 q 212 678 124 603 q 433 754 300 754 m 428 628 q 309 571 357 628 q 239 427 261 514 q 217 249 217 340 q 239 142 217 175 q 304 108 261 108 q 378 138 344 108 q 449 222 413 167 l 504 614 q 428 628 468 628 z "},"ẩ":{"ha":724,"x_min":43,"x_max":847,"o":"m 433 754 q 682 689 560 754 l 610 189 q 607 153 607 161 q 615 117 607 132 q 643 94 624 103 l 592 -18 q 453 97 474 -4 q 365 10 413 40 q 256 -21 317 -21 q 99 52 156 -21 q 43 250 43 125 q 83 488 43 372 q 212 678 124 603 q 433 754 300 754 m 428 628 q 309 571 357 628 q 239 427 261 514 q 217 249 217 340 q 239 142 217 175 q 304 108 261 108 q 378 138 344 108 q 449 222 413 167 l 504 614 q 428 628 468 628 m 288 815 l 226 889 l 424 1056 l 528 1056 l 678 885 l 610 815 l 463 931 l 288 815 m 626 1151 q 699 1172 675 1157 q 724 1218 724 1186 q 681 1256 724 1256 q 607 1236 646 1256 l 583 1319 q 708 1351 639 1351 q 810 1317 774 1351 q 847 1228 847 1283 q 726 1094 847 1117 l 715 1018 l 610 1018 l 626 1151 z "},"ẫ":{"ha":724,"x_min":43,"x_max":731,"o":"m 569 1086 q 524 1096 543 1086 q 482 1124 504 1106 q 468 1134 479 1126 q 448 1145 457 1142 q 431 1149 439 1149 q 393 1134 410 1149 q 354 1088 376 1119 l 274 1135 q 349 1233 307 1196 q 438 1269 390 1269 q 484 1260 465 1269 q 526 1233 503 1251 q 576 1208 557 1208 q 613 1222 596 1208 q 650 1265 629 1236 l 731 1219 q 656 1121 697 1156 q 569 1086 615 1086 m 290 806 l 229 879 l 426 1046 l 531 1046 l 681 875 l 613 806 l 465 921 l 290 806 m 433 754 q 682 689 560 754 l 610 189 q 607 153 607 161 q 615 117 607 132 q 643 94 624 103 l 592 -18 q 453 97 474 -4 q 365 10 413 40 q 256 -21 317 -21 q 99 52 156 -21 q 43 250 43 125 q 83 488 43 372 q 212 678 124 603 q 433 754 300 754 m 428 628 q 309 571 357 628 q 239 427 261 514 q 217 249 217 340 q 239 142 217 175 q 304 108 261 108 q 378 138 344 108 q 449 222 413 167 l 504 614 q 428 628 468 628 z "},"ȁ":{"ha":724,"x_min":43,"x_max":682,"o":"m 433 754 q 682 689 560 754 l 610 189 q 607 153 607 161 q 615 117 607 132 q 643 94 624 103 l 592 -18 q 453 97 474 -4 q 365 10 413 40 q 256 -21 317 -21 q 99 52 156 -21 q 43 250 43 125 q 83 488 43 372 q 212 678 124 603 q 433 754 300 754 m 428 628 q 309 571 357 628 q 239 427 261 514 q 217 249 217 340 q 239 142 217 175 q 304 108 261 108 q 378 138 344 108 q 449 222 413 167 l 504 614 q 428 628 468 628 m 346 1174 l 428 915 l 328 875 l 214 1114 l 346 1174 m 551 1174 l 622 918 l 524 882 l 418 1117 l 551 1174 z "},"ä":{"ha":724,"x_min":43,"x_max":711,"o":"m 433 754 q 682 689 560 754 l 610 189 q 607 153 607 161 q 615 117 607 132 q 643 94 624 103 l 592 -18 q 453 97 474 -4 q 365 10 413 40 q 256 -21 317 -21 q 99 52 156 -21 q 43 250 43 125 q 83 488 43 372 q 212 678 124 603 q 433 754 300 754 m 428 628 q 309 571 357 628 q 239 427 261 514 q 217 249 217 340 q 239 142 217 175 q 304 108 261 108 q 378 138 344 108 q 449 222 413 167 l 504 614 q 428 628 468 628 m 331 901 q 270 924 293 901 q 247 982 247 946 q 277 1056 247 1026 q 350 1085 307 1085 q 410 1063 388 1085 q 433 1004 433 1040 q 403 931 433 960 q 331 901 374 901 m 608 901 q 548 924 571 901 q 525 982 525 946 q 555 1056 525 1026 q 628 1085 585 1085 q 688 1063 665 1085 q 711 1004 711 1040 q 681 931 711 960 q 608 901 651 901 z "},"ǟ":{"ha":724,"x_min":43,"x_max":701,"o":"m 433 754 q 682 689 560 754 l 610 189 q 607 153 607 161 q 615 117 607 132 q 643 94 624 103 l 592 -18 q 453 97 474 -4 q 365 10 413 40 q 256 -21 317 -21 q 99 52 156 -21 q 43 250 43 125 q 83 488 43 372 q 212 678 124 603 q 433 754 300 754 m 428 628 q 309 571 357 628 q 239 427 261 514 q 217 249 217 340 q 239 142 217 175 q 304 108 261 108 q 378 138 344 108 q 449 222 413 167 l 504 614 q 428 628 468 628 m 321 853 q 260 875 283 853 q 238 933 238 897 q 267 1007 238 978 q 340 1036 297 1036 q 401 1014 378 1036 q 424 956 424 992 q 394 882 424 911 q 321 853 364 853 m 599 853 q 538 875 561 853 q 515 933 515 897 q 545 1007 515 978 q 618 1036 575 1036 q 678 1014 656 1036 q 701 956 701 992 q 672 882 701 911 q 599 853 642 853 m 667 1106 l 304 1106 l 322 1228 l 685 1228 l 667 1106 z "},"ȧ":{"ha":724,"x_min":43,"x_max":682,"o":"m 433 754 q 682 689 560 754 l 610 189 q 607 153 607 161 q 615 117 607 132 q 643 94 624 103 l 592 -18 q 453 97 474 -4 q 365 10 413 40 q 256 -21 317 -21 q 99 52 156 -21 q 43 250 43 125 q 83 488 43 372 q 212 678 124 603 q 433 754 300 754 m 428 628 q 309 571 357 628 q 239 427 261 514 q 217 249 217 340 q 239 142 217 175 q 304 108 261 108 q 378 138 344 108 q 449 222 413 167 l 504 614 q 428 628 468 628 m 468 894 q 399 920 424 894 q 374 986 374 946 q 406 1070 374 1038 q 489 1103 439 1103 q 558 1077 532 1103 q 583 1011 583 1051 q 550 928 583 961 q 468 894 517 894 z "},"ạ":{"ha":724,"x_min":43,"x_max":682,"o":"m 433 754 q 682 689 560 754 l 610 189 q 607 153 607 161 q 615 117 607 132 q 643 94 624 103 l 592 -18 q 453 97 474 -4 q 365 10 413 40 q 256 -21 317 -21 q 99 52 156 -21 q 43 250 43 125 q 83 488 43 372 q 212 678 124 603 q 433 754 300 754 m 428 628 q 309 571 357 628 q 239 427 261 514 q 217 249 217 340 q 239 142 217 175 q 304 108 261 108 q 378 138 344 108 q 449 222 413 167 l 504 614 q 428 628 468 628 m 322 -94 q 392 -120 367 -94 q 417 -186 417 -146 q 383 -270 417 -237 q 301 -303 350 -303 q 233 -277 258 -303 q 207 -211 207 -251 q 240 -128 207 -161 q 322 -94 274 -94 z "},"ǡ":{"ha":724,"x_min":43,"x_max":690,"o":"m 433 754 q 682 689 560 754 l 610 189 q 607 153 607 161 q 615 117 607 132 q 643 94 624 103 l 592 -18 q 453 97 474 -4 q 365 10 413 40 q 256 -21 317 -21 q 99 52 156 -21 q 43 250 43 125 q 83 488 43 372 q 212 678 124 603 q 433 754 300 754 m 428 628 q 309 571 357 628 q 239 427 261 514 q 217 249 217 340 q 239 142 217 175 q 304 108 261 108 q 378 138 344 108 q 449 222 413 167 l 504 614 q 428 628 468 628 m 460 833 q 390 859 415 833 q 365 925 365 885 q 398 1009 365 976 q 481 1042 431 1042 q 549 1016 524 1042 q 575 950 575 990 q 542 867 575 900 q 460 833 508 833 m 672 1092 l 310 1092 l 328 1214 l 690 1214 l 672 1092 z "},"à":{"ha":724,"x_min":43,"x_max":682,"o":"m 433 754 q 682 689 560 754 l 610 189 q 607 153 607 161 q 615 117 607 132 q 643 94 624 103 l 592 -18 q 453 97 474 -4 q 365 10 413 40 q 256 -21 317 -21 q 99 52 156 -21 q 43 250 43 125 q 83 488 43 372 q 212 678 124 603 q 433 754 300 754 m 428 628 q 309 571 357 628 q 239 427 261 514 q 217 249 217 340 q 239 142 217 175 q 304 108 261 108 q 378 138 344 108 q 449 222 413 167 l 504 614 q 428 628 468 628 m 410 1131 l 651 960 l 600 878 l 332 1001 l 410 1131 z "},"ả":{"ha":724,"x_min":43,"x_max":682,"o":"m 433 754 q 682 689 560 754 l 610 189 q 607 153 607 161 q 615 117 607 132 q 643 94 624 103 l 592 -18 q 453 97 474 -4 q 365 10 413 40 q 256 -21 317 -21 q 99 52 156 -21 q 43 250 43 125 q 83 488 43 372 q 212 678 124 603 q 433 754 300 754 m 428 628 q 309 571 357 628 q 239 427 261 514 q 217 249 217 340 q 239 142 217 175 q 304 108 261 108 q 378 138 344 108 q 449 222 413 167 l 504 614 q 428 628 468 628 m 421 978 q 494 998 469 983 q 518 1044 518 1013 q 475 1082 518 1082 q 401 1063 440 1082 l 378 1146 q 503 1178 433 1178 q 605 1144 568 1178 q 642 1054 642 1110 q 521 921 642 943 l 510 844 l 404 844 l 421 978 z "},"ȃ":{"ha":724,"x_min":43,"x_max":682,"o":"m 433 754 q 682 689 560 754 l 610 189 q 607 153 607 161 q 615 117 607 132 q 643 94 624 103 l 592 -18 q 453 97 474 -4 q 365 10 413 40 q 256 -21 317 -21 q 99 52 156 -21 q 43 250 43 125 q 83 488 43 372 q 212 678 124 603 q 433 754 300 754 m 428 628 q 309 571 357 628 q 239 427 261 514 q 217 249 217 340 q 239 142 217 175 q 304 108 261 108 q 378 138 344 108 q 449 222 413 167 l 504 614 q 428 628 468 628 m 254 867 q 339 1019 278 963 q 488 1075 400 1075 q 624 1016 576 1075 q 665 861 671 957 l 567 847 q 476 951 558 951 q 350 842 389 951 l 254 867 z "},"ɑ":{"ha":724,"x_min":44,"x_max":689,"o":"m 611 189 q 608 172 610 181 q 607 151 607 163 q 615 117 607 131 q 643 94 624 103 l 592 -18 q 454 97 474 -4 q 365 10 413 40 q 256 -21 317 -21 q 100 52 156 -21 q 44 250 44 125 q 85 490 44 374 q 201 681 125 607 q 379 754 276 754 q 472 732 433 754 q 535 660 510 710 l 567 735 l 689 735 l 611 189 m 494 538 q 452 607 478 586 q 390 628 426 628 q 298 572 338 628 q 238 429 258 517 q 217 249 217 342 q 239 142 217 175 q 306 108 261 108 q 378 138 344 108 q 449 222 413 168 l 494 538 z "},"ɒ":{"ha":724,"x_min":35,"x_max":679,"o":"m 468 756 q 624 683 568 756 q 679 485 679 610 q 639 244 679 361 q 523 54 599 128 q 344 -19 447 -19 q 252 3 290 -19 q 189 75 214 25 l 157 0 l 35 0 l 113 546 q 115 563 114 554 q 117 583 117 572 q 108 618 117 604 q 81 640 100 632 l 132 753 q 269 638 250 739 q 359 725 311 694 q 468 756 407 756 m 333 107 q 426 163 386 107 q 486 306 465 218 q 507 486 507 393 q 485 593 507 560 q 418 626 463 626 q 345 597 379 626 q 275 513 311 567 l 229 197 q 272 128 246 149 q 333 107 297 107 z "},"ā":{"ha":724,"x_min":43,"x_max":682,"o":"m 433 754 q 682 689 560 754 l 610 189 q 607 153 607 161 q 615 117 607 132 q 643 94 624 103 l 592 -18 q 453 97 474 -4 q 365 10 413 40 q 256 -21 317 -21 q 99 52 156 -21 q 43 250 43 125 q 83 488 43 372 q 212 678 124 603 q 433 754 300 754 m 428 628 q 309 571 357 628 q 239 427 261 514 q 217 249 217 340 q 239 142 217 175 q 304 108 261 108 q 378 138 344 108 q 449 222 413 167 l 504 614 q 428 628 468 628 m 650 918 l 288 918 l 306 1040 l 668 1040 l 650 918 z "},"ą":{"ha":724,"x_min":43,"x_max":682,"o":"m 610 189 q 607 153 607 161 q 615 117 607 132 q 643 94 624 103 l 592 -18 l 590 -18 l 590 -18 q 453 -103 489 -62 q 418 -185 418 -144 q 476 -233 418 -233 q 551 -225 511 -233 l 526 -339 q 444 -347 489 -347 q 331 -310 374 -347 q 289 -208 289 -272 q 338 -82 289 -139 q 499 18 386 -25 q 453 97 463 47 q 365 10 413 40 q 256 -21 317 -21 q 99 52 156 -21 q 43 250 43 125 q 83 488 43 372 q 212 678 124 603 q 433 754 300 754 q 682 689 560 754 l 610 189 m 504 614 q 428 628 468 628 q 309 571 357 628 q 239 427 261 514 q 217 249 217 340 q 239 142 217 175 q 304 108 261 108 q 378 138 344 108 q 449 222 413 167 l 504 614 z "},"å":{"ha":724,"x_min":43,"x_max":682,"o":"m 433 754 q 682 689 560 754 l 610 189 q 607 153 607 161 q 615 117 607 132 q 643 94 624 103 l 592 -18 q 453 97 474 -4 q 365 10 413 40 q 256 -21 317 -21 q 99 52 156 -21 q 43 250 43 125 q 83 488 43 372 q 212 678 124 603 q 433 754 300 754 m 428 628 q 309 571 357 628 q 239 427 261 514 q 217 249 217 340 q 239 142 217 175 q 304 108 261 108 q 378 138 344 108 q 449 222 413 167 l 504 614 q 428 628 468 628 m 499 1181 q 604 1140 565 1181 q 643 1035 643 1099 q 592 907 643 958 q 463 856 542 856 q 358 897 397 856 q 318 1001 318 938 q 369 1128 318 1075 q 499 1181 421 1181 m 492 1093 q 439 1067 458 1093 q 419 1004 419 1040 q 433 959 419 975 q 469 943 446 943 q 524 969 504 943 q 543 1032 543 994 q 530 1077 543 1061 q 492 1093 517 1093 z "},"ǻ":{"ha":724,"x_min":43,"x_max":682,"o":"m 433 754 q 682 689 560 754 l 610 189 q 607 153 607 161 q 615 117 607 132 q 643 94 624 103 l 592 -18 q 453 97 474 -4 q 365 10 413 40 q 256 -21 317 -21 q 99 52 156 -21 q 43 250 43 125 q 83 488 43 372 q 212 678 124 603 q 433 754 300 754 m 428 628 q 309 571 357 628 q 239 427 261 514 q 217 249 217 340 q 239 142 217 175 q 304 108 261 108 q 378 138 344 108 q 449 222 413 167 l 504 614 q 428 628 468 628 m 493 1133 q 599 1092 560 1133 q 638 988 638 1051 q 587 860 638 911 q 457 808 536 808 q 352 849 392 808 q 313 954 313 890 q 364 1081 313 1028 q 493 1133 415 1133 m 486 1046 q 433 1019 453 1046 q 414 957 414 993 q 427 912 414 928 q 464 896 440 896 q 518 922 499 896 q 538 985 538 947 q 524 1030 538 1014 q 486 1046 511 1046 m 607 1382 l 665 1251 l 368 1140 l 329 1225 l 607 1382 z "},"ⱥ":{"ha":724,"x_min":43,"x_max":682,"o":"m 610 189 q 607 153 607 161 q 615 117 607 132 q 643 94 624 103 l 592 -18 q 453 97 474 -4 q 365 10 413 40 q 256 -21 317 -21 l 238 -21 l 207 -100 l 146 -83 l 175 -6 q 78 87 113 19 q 43 250 43 154 q 83 488 43 372 q 212 678 124 603 q 433 754 300 754 q 467 753 456 754 l 496 831 l 557 813 l 531 744 q 682 689 611 728 l 610 189 m 213 246 q 232 142 213 178 l 419 632 q 303 570 350 629 q 235 424 257 511 q 213 246 213 336 m 510 617 l 485 625 l 286 106 q 301 104 290 104 q 453 219 378 104 l 510 617 z "},"ã":{"ha":724,"x_min":43,"x_max":708,"o":"m 433 754 q 682 689 560 754 l 610 189 q 607 153 607 161 q 615 117 607 132 q 643 94 624 103 l 592 -18 q 453 97 474 -4 q 365 10 413 40 q 256 -21 317 -21 q 99 52 156 -21 q 43 250 43 125 q 83 488 43 372 q 212 678 124 603 q 433 754 300 754 m 428 628 q 309 571 357 628 q 239 427 261 514 q 217 249 217 340 q 239 142 217 175 q 304 108 261 108 q 378 138 344 108 q 449 222 413 167 l 504 614 q 428 628 468 628 m 546 897 q 502 906 521 897 q 457 935 483 915 q 428 955 439 949 q 406 961 418 961 q 368 946 385 961 q 329 899 351 931 l 249 947 q 323 1048 281 1010 q 413 1086 365 1086 q 460 1076 440 1086 q 503 1047 481 1065 q 553 1022 533 1022 q 589 1037 572 1022 q 626 1082 606 1051 l 708 1035 q 633 933 675 969 q 546 897 592 897 z "},"ɐ":{"ha":676,"x_min":65,"x_max":658,"o":"m 236 222 q 233 190 233 200 q 256 128 233 147 q 333 110 279 110 q 504 146 406 110 l 539 31 q 297 -19 422 -19 q 124 31 182 -19 q 65 174 65 81 q 68 221 65 204 l 113 546 q 115 583 115 574 q 108 617 115 604 q 81 640 100 631 l 132 753 q 264 653 242 739 q 468 754 343 754 q 607 701 556 754 q 658 560 658 649 q 565 354 658 425 q 322 283 472 283 l 244 283 l 236 222 m 414 631 q 279 539 338 631 l 258 386 l 317 386 q 442 427 397 386 q 486 547 486 468 q 467 610 486 589 q 414 631 449 631 z "},"æ":{"ha":1046,"x_min":18,"x_max":1029,"o":"m 367 754 q 487 728 440 754 q 564 653 533 703 q 665 727 606 700 q 799 754 725 754 q 969 700 908 754 q 1029 563 1029 646 q 910 358 1028 421 q 590 272 792 294 q 622 150 592 188 q 713 113 653 113 q 797 128 756 113 q 885 178 838 144 l 949 74 q 692 -21 826 -21 q 551 10 610 -21 q 461 100 493 42 q 350 8 408 36 q 222 -19 292 -19 q 73 33 128 -19 q 18 172 18 85 q 97 361 18 286 q 358 436 175 436 l 443 436 q 471 526 453 483 q 427 598 463 572 q 339 624 392 624 q 257 615 297 624 q 164 588 217 606 l 138 707 q 367 754 256 754 m 785 632 q 663 560 708 632 q 601 385 617 489 q 797 442 733 400 q 860 557 860 483 q 842 611 860 590 q 785 632 824 632 m 363 332 q 199 186 199 332 q 272 104 199 104 q 349 130 313 104 q 426 211 386 156 q 424 267 424 242 q 426 332 424 299 l 363 332 z "},"ǽ":{"ha":1046,"x_min":18,"x_max":1029,"o":"m 367 754 q 487 728 440 754 q 564 653 533 703 q 665 727 606 700 q 799 754 725 754 q 969 700 908 754 q 1029 563 1029 646 q 910 358 1028 421 q 590 272 792 294 q 622 150 592 188 q 713 113 653 113 q 797 128 756 113 q 885 178 838 144 l 949 74 q 692 -21 826 -21 q 551 10 610 -21 q 461 100 493 42 q 350 8 408 36 q 222 -19 292 -19 q 73 33 128 -19 q 18 172 18 85 q 97 361 18 286 q 358 436 175 436 l 443 436 q 471 526 453 483 q 427 598 463 572 q 339 624 392 624 q 257 615 297 624 q 164 588 217 606 l 138 707 q 367 754 256 754 m 785 632 q 663 560 708 632 q 601 385 617 489 q 797 442 733 400 q 860 557 860 483 q 842 611 860 590 q 785 632 824 632 m 363 332 q 199 186 199 332 q 272 104 199 104 q 349 130 313 104 q 426 211 386 156 q 424 267 424 242 q 426 332 424 299 l 363 332 m 722 1132 l 782 1001 l 483 876 l 442 961 l 722 1132 z "},"ǣ":{"ha":1046,"x_min":18,"x_max":1029,"o":"m 367 754 q 487 728 440 754 q 564 653 533 703 q 665 727 606 700 q 799 754 725 754 q 969 700 908 754 q 1029 563 1029 646 q 910 358 1028 421 q 590 272 792 294 q 622 150 592 188 q 713 113 653 113 q 797 128 756 113 q 885 178 838 144 l 949 74 q 692 -21 826 -21 q 551 10 610 -21 q 461 100 493 42 q 350 8 408 36 q 222 -19 292 -19 q 73 33 128 -19 q 18 172 18 85 q 97 361 18 286 q 358 436 175 436 l 443 436 q 471 526 453 483 q 427 598 463 572 q 339 624 392 624 q 257 615 297 624 q 164 588 217 606 l 138 707 q 367 754 256 754 m 785 632 q 663 560 708 632 q 601 385 617 489 q 797 442 733 400 q 860 557 860 483 q 842 611 860 590 q 785 632 824 632 m 363 332 q 199 186 199 332 q 272 104 199 104 q 349 130 313 104 q 426 211 386 156 q 424 267 424 242 q 426 332 424 299 l 363 332 m 785 918 l 422 918 l 440 1040 l 803 1040 l 785 918 z "},"b":{"ha":735,"x_min":44,"x_max":690,"o":"m 489 754 q 637 685 583 754 q 690 488 690 615 q 652 242 690 357 q 526 53 614 126 q 300 -21 439 -21 q 44 35 183 -21 l 185 1029 l 354 1047 l 301 667 q 390 731 342 708 q 489 754 438 754 m 429 625 q 282 533 357 625 l 226 125 q 318 108 269 108 q 431 166 386 108 q 497 310 476 224 q 518 486 518 397 q 495 593 518 561 q 429 625 472 625 z "},"ḃ":{"ha":735,"x_min":44,"x_max":690,"o":"m 489 754 q 637 685 583 754 q 690 488 690 615 q 652 242 690 357 q 526 53 614 126 q 300 -21 439 -21 q 44 35 183 -21 l 185 1029 l 354 1047 l 301 667 q 390 731 342 708 q 489 754 438 754 m 429 625 q 282 533 357 625 l 226 125 q 318 108 269 108 q 431 166 386 108 q 497 310 476 224 q 518 486 518 397 q 495 593 518 561 q 429 625 472 625 m 514 1139 q 444 1165 469 1139 q 419 1231 419 1190 q 452 1315 419 1282 q 535 1347 485 1347 q 603 1322 578 1347 q 629 1256 629 1296 q 596 1172 629 1206 q 514 1139 563 1139 z "},"ḅ":{"ha":735,"x_min":44,"x_max":690,"o":"m 489 754 q 637 685 583 754 q 690 488 690 615 q 652 242 690 357 q 526 53 614 126 q 300 -21 439 -21 q 44 35 183 -21 l 185 1029 l 354 1047 l 301 667 q 390 731 342 708 q 489 754 438 754 m 429 625 q 282 533 357 625 l 226 125 q 318 108 269 108 q 431 166 386 108 q 497 310 476 224 q 518 486 518 397 q 495 593 518 561 q 429 625 472 625 m 292 -94 q 361 -120 336 -94 q 386 -186 386 -146 q 353 -270 386 -237 q 271 -303 319 -303 q 202 -277 228 -303 q 176 -211 176 -251 q 210 -128 176 -161 q 292 -94 243 -94 z "},"ꞵ":{"ha":747,"x_min":-3,"x_max":703,"o":"m 146 761 q 249 972 164 896 q 460 1047 335 1047 q 636 985 569 1047 q 703 819 703 922 q 651 653 703 728 q 488 557 599 579 q 635 495 574 550 q 696 329 696 440 q 661 168 696 249 q 553 34 626 88 q 375 -19 481 -19 q 208 40 276 -19 l 164 -283 l -3 -304 l 146 761 m 350 113 q 484 180 442 113 q 526 333 526 247 q 487 452 526 413 q 372 492 447 492 l 326 492 l 356 614 l 393 614 q 475 644 442 614 q 524 721 508 675 q 540 813 540 767 q 516 895 540 868 q 449 922 492 922 q 357 880 393 922 q 310 754 321 838 l 226 160 q 350 113 274 113 z "},"ɓ":{"ha":735,"x_min":44,"x_max":690,"o":"m 489 754 q 638 685 585 754 q 690 488 690 615 q 652 242 690 357 q 526 53 614 126 q 300 -21 439 -21 q 44 35 183 -21 l 143 733 l 157 832 q 238 988 171 929 q 415 1047 306 1047 q 586 1004 510 1047 l 525 893 q 424 917 478 917 q 353 892 378 917 q 322 815 329 867 l 311 733 l 303 667 q 390 731 342 708 q 489 754 438 754 m 318 108 q 431 166 386 108 q 497 310 476 224 q 518 486 518 397 q 494 593 518 561 q 428 625 471 625 q 282 533 357 625 l 226 125 q 318 108 269 108 z "},"ʭ":{"ha":453,"x_min":-8,"x_max":465,"o":"m 435 554 l 331 554 l 346 678 l 192 678 l 174 554 l 69 554 l 100 771 l 465 771 l 435 554 m 357 -1 l 253 -1 l 268 122 l 114 122 l 96 -1 l -8 -1 l 22 215 l 388 215 l 357 -1 z "},"ʘ":{"ha":996,"x_min":64,"x_max":964,"o":"m 586 979 q 787 933 701 979 q 918 797 872 886 q 964 586 964 708 q 898 274 964 411 q 713 58 832 136 q 442 -19 594 -19 q 241 28 326 -19 q 110 164 156 75 q 64 375 64 253 q 131 688 64 550 q 316 902 197 825 q 586 979 435 979 m 576 854 q 385 790 464 854 q 267 617 307 726 q 228 371 228 508 q 287 171 228 236 q 453 106 346 106 q 643 169 564 106 q 762 341 722 232 q 801 586 801 450 q 741 788 800 722 q 576 854 682 854 m 508 381 q 443 404 467 381 q 419 467 419 428 q 451 544 419 514 q 528 575 482 575 q 592 551 568 575 q 615 490 615 528 q 585 412 615 443 q 508 381 554 381 z "},"ʬ":{"ha":588,"x_min":43,"x_max":622,"o":"m 622 925 l 493 556 l 372 556 l 363 826 l 272 556 l 151 556 l 121 925 l 215 925 l 225 642 l 321 925 l 432 925 l 444 640 l 532 925 l 622 925 m 544 369 l 415 0 l 294 0 l 285 271 l 194 0 l 74 0 l 43 369 l 138 369 l 147 86 l 243 369 l 354 369 l 367 85 l 454 369 l 544 369 z "},"ƀ":{"ha":747,"x_min":57,"x_max":703,"o":"m 501 754 q 649 685 596 754 q 703 488 703 615 q 665 242 703 357 q 539 53 626 126 q 313 -21 451 -21 q 57 35 196 -21 l 171 838 l 86 838 l 103 947 l 186 947 l 197 1029 l 367 1047 l 353 947 l 532 947 l 500 838 l 338 838 l 314 667 q 402 731 354 708 q 501 754 450 754 m 331 108 q 444 166 399 108 q 510 310 489 224 q 531 486 531 397 q 508 593 531 561 q 442 625 485 625 q 294 533 369 625 l 239 125 q 331 108 283 108 z "},"ƃ":{"ha":736,"x_min":44,"x_max":690,"o":"m 490 746 q 638 676 585 746 q 690 475 690 606 q 652 238 690 350 q 526 52 614 125 q 300 -21 439 -21 q 44 35 183 -21 l 185 1029 l 626 1029 l 588 903 l 333 903 l 300 658 q 389 723 340 700 q 490 746 438 746 m 318 108 q 431 165 386 108 q 497 307 476 222 q 518 476 518 392 q 494 585 518 553 q 428 617 471 617 q 352 591 390 617 q 281 524 314 565 l 226 125 q 318 108 269 108 z "},"c":{"ha":596,"x_min":47,"x_max":624,"o":"m 417 754 q 624 668 542 754 l 538 571 q 482 609 510 597 q 419 621 454 621 q 304 566 349 621 q 241 431 260 511 q 222 267 222 350 q 251 153 222 188 q 333 118 279 118 q 400 131 369 118 q 471 169 431 143 l 533 60 q 311 -21 429 -21 q 117 58 186 -21 q 47 274 47 136 q 88 501 47 390 q 211 683 128 611 q 417 754 294 754 z "},"ć":{"ha":596,"x_min":47,"x_max":624,"o":"m 417 754 q 624 668 542 754 l 538 571 q 482 609 510 597 q 419 621 454 621 q 304 566 349 621 q 241 431 260 511 q 222 267 222 350 q 251 153 222 188 q 333 118 279 118 q 400 131 369 118 q 471 169 431 143 l 533 60 q 311 -21 429 -21 q 117 58 186 -21 q 47 274 47 136 q 88 501 47 390 q 211 683 128 611 q 417 754 294 754 m 558 1132 l 618 1001 l 319 876 l 278 961 l 558 1132 z "},"č":{"ha":596,"x_min":47,"x_max":676,"o":"m 417 754 q 624 668 542 754 l 538 571 q 482 609 510 597 q 419 621 454 621 q 304 566 349 621 q 241 431 260 511 q 222 267 222 350 q 251 153 222 188 q 333 118 279 118 q 400 131 369 118 q 471 169 431 143 l 533 60 q 311 -21 429 -21 q 117 58 186 -21 q 47 274 47 136 q 88 501 47 390 q 211 683 128 611 q 417 754 294 754 m 619 1106 l 676 1033 l 481 861 l 376 861 l 226 1033 l 294 1106 l 438 986 l 619 1106 z "},"ç":{"ha":596,"x_min":47,"x_max":624,"o":"m 419 621 q 304 566 349 621 q 241 431 260 511 q 222 267 222 350 q 251 153 222 188 q 333 118 279 118 q 400 131 369 118 q 471 169 431 143 l 533 60 q 339 -19 443 -11 l 331 -75 q 411 -111 383 -81 q 439 -189 439 -142 q 390 -301 439 -253 q 249 -349 342 -349 q 121 -308 171 -349 l 172 -228 q 246 -249 207 -249 q 295 -235 276 -249 q 314 -194 314 -221 q 291 -156 314 -167 q 208 -146 268 -146 l 240 -14 q 97 82 147 7 q 47 274 47 157 q 88 501 47 390 q 211 683 128 611 q 417 754 294 754 q 624 668 542 754 l 538 571 q 482 609 510 597 q 419 621 454 621 z "},"ĉ":{"ha":596,"x_min":47,"x_max":668,"o":"m 417 754 q 624 668 542 754 l 538 571 q 482 609 510 597 q 419 621 454 621 q 304 566 349 621 q 241 431 260 511 q 222 267 222 350 q 251 153 222 188 q 333 118 279 118 q 400 131 369 118 q 471 169 431 143 l 533 60 q 311 -21 429 -21 q 117 58 186 -21 q 47 274 47 136 q 88 501 47 390 q 211 683 128 611 q 417 754 294 754 m 276 874 l 215 947 l 414 1119 l 517 1119 l 668 943 l 594 874 l 451 994 l 276 874 z "},"ɕ":{"ha":621,"x_min":47,"x_max":624,"o":"m 436 336 q 538 299 499 336 q 578 194 578 261 q 506 37 578 93 q 326 -19 433 -19 q 232 -8 269 -19 l 178 -110 l 96 -71 l 153 32 q 74 130 101 68 q 47 275 47 192 q 88 501 47 392 q 211 683 128 611 q 417 754 294 754 q 624 668 542 754 l 538 571 q 482 609 510 597 q 419 621 454 621 q 269 513 317 621 q 222 268 222 404 q 235 174 222 210 q 325 297 276 258 q 436 336 374 336 m 354 111 q 426 133 399 111 q 454 193 454 154 q 417 235 454 235 q 361 208 388 235 q 301 117 335 182 q 354 111 324 111 z "},"ċ":{"ha":596,"x_min":47,"x_max":624,"o":"m 417 754 q 624 668 542 754 l 538 571 q 482 609 510 597 q 419 621 454 621 q 304 566 349 621 q 241 431 260 511 q 222 267 222 350 q 251 153 222 188 q 333 118 279 118 q 400 131 369 118 q 471 169 431 143 l 533 60 q 311 -21 429 -21 q 117 58 186 -21 q 47 274 47 136 q 88 501 47 390 q 211 683 128 611 q 417 754 294 754 m 439 894 q 369 920 394 894 q 344 986 344 946 q 377 1070 344 1038 q 460 1103 410 1103 q 528 1077 503 1103 q 554 1011 554 1051 q 521 928 554 961 q 439 894 488 894 z "},"ƈ":{"ha":596,"x_min":47,"x_max":874,"o":"m 718 1047 q 874 993 808 1047 l 808 890 q 769 910 788 904 q 728 917 750 917 q 672 894 692 917 q 644 822 651 871 l 624 668 l 547 582 q 419 621 481 621 q 304 566 349 621 q 241 431 260 511 q 222 267 222 350 q 251 153 222 188 q 333 118 279 118 q 399 131 368 118 q 471 169 431 143 l 533 60 q 311 -21 429 -21 q 117 58 186 -21 q 47 274 47 136 q 87 500 47 389 q 206 683 126 611 q 399 754 286 754 q 482 740 440 754 l 496 838 q 567 994 511 940 q 718 1047 624 1047 z "},"ʗ":{"ha":618,"x_min":40,"x_max":646,"o":"m 446 754 q 557 733 508 754 q 646 668 606 713 l 563 572 q 506 609 533 597 q 446 621 479 621 q 317 536 369 621 q 240 322 265 451 q 215 58 215 192 q 242 -114 215 -65 q 322 -162 268 -162 q 386 -150 356 -162 q 457 -111 417 -137 l 521 -219 q 301 -300 417 -300 q 108 -209 175 -300 q 40 61 40 -118 q 88 407 40 249 q 226 660 135 565 q 446 754 318 754 z "},"ȼ":{"ha":596,"x_min":47,"x_max":624,"o":"m 538 571 q 489 606 513 594 l 303 121 q 333 118 322 118 q 400 131 369 118 q 471 169 431 143 l 533 60 q 311 -21 429 -21 q 250 -15 276 -21 l 218 -100 l 157 -83 l 190 3 q 84 104 121 35 q 47 274 47 174 q 88 501 47 390 q 211 683 128 611 q 417 754 294 754 q 476 749 453 754 l 508 831 l 568 813 l 536 731 q 624 668 583 710 l 538 571 m 428 621 l 419 621 q 304 566 349 621 q 241 431 260 511 q 222 267 222 350 q 249 156 222 193 l 428 621 z "},"d":{"ha":740,"x_min":44,"x_max":742,"o":"m 742 1028 l 597 0 l 449 0 l 451 107 q 251 -21 372 -21 q 98 52 151 -21 q 44 254 44 125 q 80 485 44 369 q 190 678 115 601 q 371 756 264 756 q 524 676 471 756 l 575 1046 l 742 1028 m 401 626 q 297 566 339 626 q 237 419 256 506 q 218 251 218 332 q 304 108 218 108 q 387 146 349 108 q 465 254 425 183 l 507 556 q 463 609 488 592 q 401 626 438 626 z "},"ð":{"ha":732,"x_min":43,"x_max":676,"o":"m 518 922 q 639 760 601 850 q 676 542 676 669 q 634 261 676 389 q 508 57 592 133 q 303 -19 424 -19 q 114 54 185 -19 q 43 258 43 128 q 80 449 43 356 q 186 602 117 542 q 349 663 256 663 q 513 588 449 663 q 487 724 508 669 q 417 826 465 778 l 328 742 l 228 794 l 328 890 q 207 931 274 915 l 254 1046 q 425 985 346 1026 l 535 1092 l 613 1014 l 518 922 m 314 108 q 444 202 401 108 q 503 456 486 296 q 379 538 463 538 q 252 451 292 538 q 213 251 213 364 q 314 108 213 108 z "},"ȸ":{"ha":1075,"x_min":46,"x_max":1029,"o":"m 842 754 q 981 683 932 754 q 1029 482 1029 613 q 992 236 1029 351 q 884 51 954 121 q 721 -19 814 -19 q 578 86 628 -19 l 554 0 l 425 0 l 426 94 q 244 -19 353 -19 q 99 56 151 -19 q 46 263 46 132 q 84 503 46 390 q 193 685 122 617 q 356 754 264 754 q 439 728 401 754 q 497 658 476 703 l 549 1029 l 719 1047 l 665 657 q 842 754 735 754 m 299 108 q 368 135 335 108 q 436 222 401 163 l 481 542 q 383 626 443 626 q 294 572 331 626 q 239 433 257 517 q 221 265 221 350 q 299 108 221 108 m 696 108 q 783 165 747 108 q 838 306 819 221 q 856 475 856 392 q 835 591 856 557 q 776 625 814 625 q 647 533 710 625 l 601 204 q 642 131 619 154 q 696 108 664 108 z "},"ď":{"ha":821,"x_min":44,"x_max":949,"o":"m 742 1028 l 597 0 l 449 0 l 451 107 q 251 -21 372 -21 q 98 52 151 -21 q 44 254 44 125 q 80 485 44 369 q 190 678 115 601 q 371 756 264 756 q 524 676 471 756 l 575 1046 l 742 1028 m 401 626 q 297 566 339 626 q 237 419 256 506 q 218 251 218 332 q 304 108 218 108 q 387 146 349 108 q 465 254 425 183 l 507 556 q 463 609 488 592 q 401 626 438 626 m 818 1046 l 949 1029 l 851 753 l 763 764 l 818 1046 z "},"ḓ":{"ha":740,"x_min":44,"x_max":742,"o":"m 742 1028 l 597 0 l 449 0 l 451 107 q 251 -21 372 -21 q 98 52 151 -21 q 44 254 44 125 q 80 485 44 369 q 190 678 115 601 q 371 756 264 756 q 524 676 471 756 l 575 1046 l 742 1028 m 401 626 q 297 566 339 626 q 237 419 256 506 q 218 251 218 332 q 304 108 218 108 q 387 146 349 108 q 465 254 425 183 l 507 556 q 463 609 488 592 q 401 626 438 626 m 117 -337 l 56 -264 l 254 -92 l 358 -92 l 508 -268 l 436 -337 l 293 -217 l 117 -337 z "},"đ":{"ha":753,"x_min":44,"x_max":814,"o":"m 814 946 l 797 835 l 714 835 l 597 0 l 449 0 l 451 107 q 251 -21 372 -21 q 98 52 151 -21 q 44 254 44 125 q 80 485 44 369 q 190 678 115 601 q 371 756 264 756 q 524 676 471 756 l 546 835 l 378 835 l 379 946 l 561 946 l 575 1046 l 742 1028 l 731 946 l 814 946 m 507 556 q 463 609 488 592 q 401 626 438 626 q 297 566 339 626 q 237 419 256 506 q 218 251 218 332 q 304 108 218 108 q 387 146 349 108 q 465 254 425 183 l 507 556 z "},"ȡ":{"ha":958,"x_min":44,"x_max":946,"o":"m 814 322 q 909 287 872 322 q 946 189 946 251 q 874 35 946 90 q 693 -19 803 -19 q 622 -14 664 -19 l 569 -110 l 489 -71 l 540 17 q 465 119 483 54 q 368 15 421 50 q 251 -21 315 -21 q 98 52 151 -21 q 44 254 44 125 q 80 486 44 371 q 190 678 115 601 q 372 756 264 756 q 461 734 424 756 q 524 676 499 713 l 575 1046 l 742 1028 l 625 203 q 624 168 622 178 q 707 285 663 249 q 814 322 751 322 m 507 556 q 463 609 488 592 q 401 626 438 626 q 297 566 339 626 q 237 419 256 506 q 218 251 218 332 q 304 108 218 108 q 387 147 349 108 q 464 254 425 185 l 507 556 m 725 111 q 797 131 769 111 q 825 186 825 151 q 792 221 825 221 q 745 198 767 221 q 692 113 724 175 q 725 111 701 111 z "},"ḋ":{"ha":740,"x_min":44,"x_max":742,"o":"m 742 1028 l 597 0 l 449 0 l 451 107 q 251 -21 372 -21 q 98 52 151 -21 q 44 254 44 125 q 80 485 44 369 q 190 678 115 601 q 371 756 264 756 q 524 676 471 756 l 575 1046 l 742 1028 m 401 626 q 297 566 339 626 q 237 419 256 506 q 218 251 218 332 q 304 108 218 108 q 387 146 349 108 q 465 254 425 183 l 507 556 q 463 609 488 592 q 401 626 438 626 m 475 1139 q 406 1165 431 1139 q 381 1231 381 1190 q 413 1315 381 1282 q 496 1347 446 1347 q 565 1322 539 1347 q 590 1256 590 1296 q 557 1172 590 1206 q 475 1139 524 1139 z "},"ḍ":{"ha":740,"x_min":44,"x_max":742,"o":"m 742 1028 l 597 0 l 449 0 l 451 107 q 251 -21 372 -21 q 98 52 151 -21 q 44 254 44 125 q 80 485 44 369 q 190 678 115 601 q 371 756 264 756 q 524 676 471 756 l 575 1046 l 742 1028 m 401 626 q 297 566 339 626 q 237 419 256 506 q 218 251 218 332 q 304 108 218 108 q 387 146 349 108 q 465 254 425 183 l 507 556 q 463 609 488 592 q 401 626 438 626 m 300 -94 q 369 -120 344 -94 q 394 -186 394 -146 q 361 -270 394 -237 q 279 -303 328 -303 q 210 -277 236 -303 q 185 -211 185 -251 q 218 -128 185 -161 q 300 -94 251 -94 z "},"ƍ":{"ha":725,"x_min":29,"x_max":679,"o":"m 257 -304 q 124 -280 179 -304 q 29 -211 69 -256 l 117 -125 q 182 -167 150 -154 q 256 -181 214 -181 q 337 -155 310 -181 q 364 -86 364 -129 q 341 -29 364 -53 q 253 28 318 -6 q 99 146 149 79 q 50 315 50 213 q 88 510 50 408 q 208 683 125 613 q 415 754 290 754 q 608 675 538 754 q 679 469 679 596 q 623 237 679 333 q 429 78 567 140 q 505 1 482 40 q 528 -83 528 -37 q 497 -191 528 -140 q 405 -273 467 -242 q 257 -304 343 -304 m 342 128 q 472 278 438 196 q 506 478 506 360 q 480 586 506 547 q 403 625 454 625 q 300 575 340 625 q 242 453 260 525 q 225 311 225 381 q 251 205 225 246 q 342 128 276 164 z "},"ʤ":{"ha":1232,"x_min":44,"x_max":1218,"o":"m 1201 613 l 913 289 q 1095 223 1033 283 q 1157 57 1157 163 q 1110 -131 1157 -50 q 981 -257 1064 -212 q 794 -301 899 -301 q 638 -267 703 -301 q 531 -167 574 -232 l 632 -82 q 708 -148 671 -128 q 797 -168 746 -168 q 933 -106 883 -168 q 983 54 983 -44 q 949 152 983 124 q 836 181 914 181 l 725 181 l 726 182 l 742 289 l 1015 603 l 682 603 l 597 0 l 449 0 l 451 107 q 251 -21 372 -21 q 98 52 151 -21 q 44 254 44 125 q 80 485 44 369 q 190 678 115 601 q 371 756 264 756 q 524 676 471 756 l 575 1046 l 742 1028 l 700 735 l 1218 735 l 1201 613 m 507 556 q 463 609 488 592 q 401 626 438 626 q 297 566 339 626 q 237 419 256 506 q 218 251 218 332 q 304 108 218 108 q 387 146 349 108 q 465 254 425 183 l 507 556 z "},"ɗ":{"ha":739,"x_min":44,"x_max":943,"o":"m 788 1047 q 943 993 875 1047 l 875 892 q 837 910 854 904 q 796 917 819 917 q 713 826 726 917 l 700 735 l 597 0 l 449 0 l 451 107 q 251 -21 372 -21 q 98 52 151 -21 q 44 254 44 125 q 80 486 44 371 q 190 678 115 601 q 372 756 264 756 q 461 734 424 756 q 524 676 499 713 l 532 735 l 544 825 q 623 988 560 929 q 788 1047 686 1047 m 507 556 q 463 609 488 592 q 401 626 438 626 q 297 566 339 626 q 237 419 256 506 q 218 251 218 332 q 304 108 218 108 q 387 146 349 108 q 465 254 425 183 l 507 556 z "},"ḏ":{"ha":740,"x_min":44,"x_max":742,"o":"m 742 1028 l 597 0 l 449 0 l 451 107 q 251 -21 372 -21 q 98 52 151 -21 q 44 254 44 125 q 80 485 44 369 q 190 678 115 601 q 371 756 264 756 q 524 676 471 756 l 575 1046 l 742 1028 m 401 626 q 297 566 339 626 q 237 419 256 506 q 218 251 218 332 q 304 108 218 108 q 387 146 349 108 q 465 254 425 183 l 507 556 q 463 609 488 592 q 401 626 438 626 m 131 -129 l 493 -129 l 475 -251 l 113 -251 l 131 -129 z "},"ɖ":{"ha":743,"x_min":44,"x_max":785,"o":"m 785 -249 q 614 -301 710 -301 q 469 -252 521 -301 q 417 -111 417 -203 q 419 -67 417 -97 l 429 0 l 443 97 q 251 -21 369 -21 q 98 52 151 -21 q 44 254 44 125 q 80 486 44 371 q 190 678 115 601 q 372 756 264 756 q 461 734 424 756 q 524 676 499 713 l 575 1046 l 742 1028 l 597 0 l 586 -89 q 585 -111 585 -97 q 646 -172 585 -172 q 690 -166 671 -172 q 735 -146 708 -160 l 785 -249 m 304 108 q 387 146 349 108 q 465 254 425 183 l 507 556 q 463 609 488 592 q 401 626 438 626 q 297 566 339 626 q 237 419 256 506 q 218 251 218 332 q 304 108 218 108 z "},"ƌ":{"ha":740,"x_min":44,"x_max":742,"o":"m 597 0 l 449 0 l 451 107 q 251 -21 372 -21 q 98 52 151 -21 q 44 254 44 125 q 80 481 44 368 q 189 670 115 594 q 369 746 263 746 q 522 667 471 746 l 556 903 l 290 903 l 308 1029 l 742 1029 l 597 0 m 506 546 q 461 600 486 582 q 400 618 436 618 q 297 559 338 618 q 237 415 256 500 q 218 251 218 329 q 304 108 218 108 q 387 146 349 108 q 465 254 425 183 l 506 546 z "},"ǳ":{"ha":1299,"x_min":44,"x_max":1317,"o":"m 742 1028 l 597 0 l 449 0 l 451 107 q 251 -21 372 -21 q 98 52 151 -21 q 44 254 44 125 q 80 485 44 369 q 190 678 115 601 q 371 756 264 756 q 524 676 471 756 l 575 1046 l 742 1028 m 401 626 q 297 566 339 626 q 237 419 256 506 q 218 251 218 332 q 304 108 218 108 q 387 146 349 108 q 465 254 425 183 l 507 556 q 463 609 488 592 q 401 626 438 626 m 1317 735 l 1299 611 l 929 135 l 1239 135 l 1203 0 l 710 0 l 726 124 l 1097 600 l 819 600 l 839 735 l 1317 735 z "},"ʣ":{"ha":1183,"x_min":44,"x_max":1201,"o":"m 1185 611 l 811 135 l 1125 135 l 1089 0 l 449 0 l 451 107 q 251 -21 372 -21 q 98 52 151 -21 q 44 254 44 125 q 80 485 44 369 q 190 678 115 601 q 371 756 264 756 q 524 676 471 756 l 575 1046 l 742 1028 l 700 735 l 1201 735 l 1185 611 m 507 556 q 463 609 488 592 q 401 626 438 626 q 297 566 339 626 q 237 419 256 506 q 218 251 218 332 q 304 108 218 108 q 387 146 349 108 q 465 254 425 183 l 507 556 m 615 124 l 985 600 l 682 600 l 615 124 z "},"ǆ":{"ha":1299,"x_min":44,"x_max":1340,"o":"m 742 1028 l 597 0 l 449 0 l 451 107 q 251 -21 372 -21 q 98 52 151 -21 q 44 254 44 125 q 80 485 44 369 q 190 678 115 601 q 371 756 264 756 q 524 676 471 756 l 575 1046 l 742 1028 m 401 626 q 297 566 339 626 q 237 419 256 506 q 218 251 218 332 q 304 108 218 108 q 387 146 349 108 q 465 254 425 183 l 507 556 q 463 609 488 592 q 401 626 438 626 m 1317 735 l 1299 611 l 929 135 l 1239 135 l 1203 0 l 710 0 l 726 124 l 1097 600 l 819 600 l 839 735 l 1317 735 m 1283 1106 l 1340 1033 l 1144 861 l 1040 861 l 890 1033 l 958 1106 l 1101 986 l 1283 1106 z "},"ʥ":{"ha":1257,"x_min":44,"x_max":1267,"o":"m 1131 331 q 1229 297 1192 331 q 1267 201 1267 263 q 1192 48 1267 96 q 993 0 1118 0 l 996 11 q 961 -176 978 -56 l 858 -169 q 889 0 875 -71 l 449 0 l 451 107 q 251 -21 372 -21 q 98 52 151 -21 q 44 254 44 125 q 80 485 44 369 q 190 678 115 601 q 371 756 264 756 q 524 676 471 756 l 575 1046 l 742 1028 l 700 735 l 1201 735 l 1185 617 l 804 135 l 926 135 q 1013 285 963 239 q 1131 331 1063 331 m 507 556 q 463 609 488 592 q 401 626 438 626 q 297 566 339 626 q 237 419 256 506 q 218 251 218 332 q 304 108 218 108 q 387 146 349 108 q 465 254 425 183 l 507 556 m 682 600 l 615 126 l 988 600 l 682 600 m 1031 135 q 1119 150 1090 136 q 1147 201 1147 164 q 1114 233 1147 233 q 1067 210 1088 233 q 1031 135 1047 188 z "},"e":{"ha":671,"x_min":46,"x_max":653,"o":"m 653 563 q 533 358 651 422 q 217 271 415 293 l 217 265 q 338 113 217 113 q 422 128 381 113 q 510 178 463 144 l 572 74 q 315 -21 450 -21 q 116 56 186 -21 q 46 269 46 132 q 87 500 47 389 q 211 683 126 611 q 422 754 296 754 q 592 700 532 754 q 653 563 653 646 m 410 632 q 288 561 333 632 q 226 385 243 490 q 421 440 358 397 q 483 558 483 483 q 466 612 483 592 q 410 632 449 632 z "},"é":{"ha":671,"x_min":46,"x_max":653,"o":"m 653 563 q 533 358 651 422 q 217 271 415 293 l 217 265 q 338 113 217 113 q 422 128 381 113 q 510 178 463 144 l 572 74 q 315 -21 450 -21 q 116 56 186 -21 q 46 269 46 132 q 87 500 47 389 q 211 683 126 611 q 422 754 296 754 q 592 700 532 754 q 653 563 653 646 m 410 632 q 288 561 333 632 q 226 385 243 490 q 421 440 358 397 q 483 558 483 483 q 466 612 483 592 q 410 632 449 632 m 556 1132 l 615 1001 l 317 876 l 275 961 l 556 1132 z "},"ĕ":{"ha":671,"x_min":46,"x_max":657,"o":"m 653 563 q 533 358 651 422 q 217 271 415 293 l 217 265 q 338 113 217 113 q 422 128 381 113 q 510 178 463 144 l 572 74 q 315 -21 450 -21 q 116 56 186 -21 q 46 269 46 132 q 87 500 47 389 q 211 683 126 611 q 422 754 296 754 q 592 700 532 754 q 653 563 653 646 m 410 632 q 288 561 333 632 q 226 385 243 490 q 421 440 358 397 q 483 558 483 483 q 466 612 483 592 q 410 632 449 632 m 431 886 q 293 946 340 886 q 251 1100 246 1006 l 350 1114 q 376 1036 354 1063 q 438 1010 397 1010 q 513 1038 481 1010 q 564 1118 544 1067 l 657 1093 q 578 942 638 999 q 431 886 518 886 z "},"ě":{"ha":671,"x_min":46,"x_max":674,"o":"m 653 563 q 533 358 651 422 q 217 271 415 293 l 217 265 q 338 113 217 113 q 422 128 381 113 q 510 178 463 144 l 572 74 q 315 -21 450 -21 q 116 56 186 -21 q 46 269 46 132 q 87 500 47 389 q 211 683 126 611 q 422 754 296 754 q 592 700 532 754 q 653 563 653 646 m 410 632 q 288 561 333 632 q 226 385 243 490 q 421 440 358 397 q 483 558 483 483 q 466 612 483 592 q 410 632 449 632 m 617 1106 l 674 1033 l 478 861 l 374 861 l 224 1033 l 292 1106 l 435 986 l 617 1106 z "},"ȩ":{"ha":671,"x_min":46,"x_max":653,"o":"m 653 563 q 533 358 651 422 q 217 271 415 293 l 217 265 q 338 113 217 113 q 422 128 381 113 q 510 178 463 144 l 572 74 q 356 -18 467 -7 l 347 -75 q 428 -111 400 -81 q 456 -189 456 -142 q 407 -301 456 -253 q 265 -349 358 -349 q 138 -308 188 -349 l 189 -228 q 263 -249 224 -249 q 312 -235 293 -249 q 331 -194 331 -221 q 308 -156 331 -167 q 225 -146 285 -146 l 256 -17 q 100 75 154 1 q 46 269 46 149 q 87 500 47 389 q 211 683 126 611 q 422 754 296 754 q 592 700 532 754 q 653 563 653 646 m 410 632 q 288 561 333 632 q 226 385 243 490 q 421 440 358 397 q 483 558 483 483 q 466 612 483 592 q 410 632 449 632 z "},"ê":{"ha":671,"x_min":46,"x_max":665,"o":"m 653 563 q 533 358 651 422 q 217 271 415 293 l 217 265 q 338 113 217 113 q 422 128 381 113 q 510 178 463 144 l 572 74 q 315 -21 450 -21 q 116 56 186 -21 q 46 269 46 132 q 87 500 47 389 q 211 683 126 611 q 422 754 296 754 q 592 700 532 754 q 653 563 653 646 m 410 632 q 288 561 333 632 q 226 385 243 490 q 421 440 358 397 q 483 558 483 483 q 466 612 483 592 q 410 632 449 632 m 274 874 l 213 947 l 411 1119 l 514 1119 l 665 943 l 592 874 l 449 994 l 274 874 z "},"ế":{"ha":671,"x_min":46,"x_max":835,"o":"m 835 1190 l 622 1001 l 561 1058 l 750 1281 l 835 1190 m 435 931 l 260 815 l 199 889 l 396 1056 l 500 1056 l 650 885 l 582 815 l 435 931 m 422 754 q 592 700 532 754 q 653 563 653 646 q 533 358 651 422 q 217 271 415 293 l 217 265 q 338 113 217 113 q 422 128 381 113 q 510 178 463 144 l 572 74 q 315 -21 450 -21 q 116 56 186 -21 q 46 269 46 132 q 87 500 47 389 q 211 683 126 611 q 422 754 296 754 m 226 385 q 421 440 358 397 q 483 558 483 483 q 466 612 483 592 q 410 632 449 632 q 288 561 333 632 q 226 385 243 490 z "},"ệ":{"ha":671,"x_min":46,"x_max":665,"o":"m 653 563 q 533 358 651 422 q 217 271 415 293 l 217 265 q 338 113 217 113 q 422 128 381 113 q 510 178 463 144 l 572 74 q 315 -21 450 -21 q 116 56 186 -21 q 46 269 46 132 q 87 500 47 389 q 211 683 126 611 q 422 754 296 754 q 592 700 532 754 q 653 563 653 646 m 410 632 q 288 561 333 632 q 226 385 243 490 q 421 440 358 397 q 483 558 483 483 q 466 612 483 592 q 410 632 449 632 m 274 874 l 213 947 l 411 1119 l 514 1119 l 665 943 l 592 874 l 449 994 l 274 874 m 293 -94 q 363 -120 338 -94 q 388 -186 388 -146 q 354 -270 388 -237 q 272 -303 321 -303 q 203 -277 229 -303 q 178 -211 178 -251 q 211 -128 178 -161 q 293 -94 244 -94 z "},"ề":{"ha":671,"x_min":46,"x_max":653,"o":"m 326 1053 l 257 1001 l 94 1196 l 200 1278 l 326 1053 m 258 815 l 197 889 l 394 1056 l 499 1056 l 649 885 l 581 815 l 433 931 l 258 815 m 653 563 q 533 358 651 422 q 217 271 415 293 l 217 265 q 338 113 217 113 q 422 128 381 113 q 510 178 463 144 l 572 74 q 315 -21 450 -21 q 116 56 186 -21 q 46 269 46 132 q 87 500 47 389 q 211 683 126 611 q 422 754 296 754 q 592 700 532 754 q 653 563 653 646 m 410 632 q 288 561 333 632 q 226 385 243 490 q 421 440 358 397 q 483 558 483 483 q 466 612 483 592 q 410 632 449 632 z "},"ể":{"ha":671,"x_min":46,"x_max":815,"o":"m 653 563 q 533 358 651 422 q 217 271 415 293 l 217 265 q 338 113 217 113 q 422 128 381 113 q 510 178 463 144 l 572 74 q 315 -21 450 -21 q 116 56 186 -21 q 46 269 46 132 q 87 500 47 389 q 211 683 126 611 q 422 754 296 754 q 592 700 532 754 q 653 563 653 646 m 410 632 q 288 561 333 632 q 226 385 243 490 q 421 440 358 397 q 483 558 483 483 q 466 612 483 592 q 410 632 449 632 m 256 815 l 194 889 l 392 1056 l 496 1056 l 646 885 l 578 815 l 431 931 l 256 815 m 594 1151 q 667 1172 643 1157 q 692 1218 692 1186 q 649 1256 692 1256 q 575 1236 614 1256 l 551 1319 q 676 1351 607 1351 q 778 1317 742 1351 q 815 1228 815 1283 q 694 1094 815 1117 l 683 1018 l 578 1018 l 594 1151 z "},"ễ":{"ha":671,"x_min":46,"x_max":699,"o":"m 399 1149 q 361 1134 378 1149 q 322 1088 344 1119 l 242 1135 q 317 1233 275 1196 q 406 1269 358 1269 q 452 1260 433 1269 q 494 1233 471 1251 q 544 1208 525 1208 q 581 1222 564 1208 q 618 1265 597 1236 l 699 1219 q 624 1121 665 1156 q 538 1086 583 1086 q 492 1096 511 1086 q 450 1124 472 1106 q 436 1134 447 1126 q 416 1145 425 1142 q 399 1149 407 1149 m 433 921 l 258 806 l 197 879 l 394 1046 l 499 1046 l 649 875 l 581 806 l 433 921 m 422 754 q 592 700 532 754 q 653 563 653 646 q 533 358 651 422 q 217 271 415 293 l 217 265 q 338 113 217 113 q 422 128 381 113 q 510 178 463 144 l 572 74 q 315 -21 450 -21 q 116 56 186 -21 q 46 269 46 132 q 87 500 47 389 q 211 683 126 611 q 422 754 296 754 m 226 385 q 421 440 358 397 q 483 558 483 483 q 466 612 483 592 q 410 632 449 632 q 288 561 333 632 q 226 385 243 490 z "},"ȅ":{"ha":671,"x_min":46,"x_max":653,"o":"m 653 563 q 533 358 651 422 q 217 271 415 293 l 217 265 q 338 113 217 113 q 422 128 381 113 q 510 178 463 144 l 572 74 q 315 -21 450 -21 q 116 56 186 -21 q 46 269 46 132 q 87 500 47 389 q 211 683 126 611 q 422 754 296 754 q 592 700 532 754 q 653 563 653 646 m 410 632 q 288 561 333 632 q 226 385 243 490 q 421 440 358 397 q 483 558 483 483 q 466 612 483 592 q 410 632 449 632 m 314 1174 l 396 915 l 296 875 l 182 1114 l 314 1174 m 519 1174 l 590 918 l 492 882 l 386 1117 l 519 1174 z "},"ë":{"ha":671,"x_min":46,"x_max":679,"o":"m 653 563 q 533 358 651 422 q 217 271 415 293 l 217 265 q 338 113 217 113 q 422 128 381 113 q 510 178 463 144 l 572 74 q 315 -21 450 -21 q 116 56 186 -21 q 46 269 46 132 q 87 500 47 389 q 211 683 126 611 q 422 754 296 754 q 592 700 532 754 q 653 563 653 646 m 410 632 q 288 561 333 632 q 226 385 243 490 q 421 440 358 397 q 483 558 483 483 q 466 612 483 592 q 410 632 449 632 m 299 901 q 238 924 261 901 q 215 982 215 946 q 245 1056 215 1026 q 318 1085 275 1085 q 378 1063 356 1085 q 401 1004 401 1040 q 372 931 401 960 q 299 901 342 901 m 576 901 q 516 924 539 901 q 493 982 493 946 q 523 1056 493 1026 q 596 1085 553 1085 q 656 1063 633 1085 q 679 1004 679 1040 q 649 931 679 960 q 576 901 619 901 z "},"ė":{"ha":671,"x_min":46,"x_max":653,"o":"m 653 563 q 533 358 651 422 q 217 271 415 293 l 217 265 q 338 113 217 113 q 422 128 381 113 q 510 178 463 144 l 572 74 q 315 -21 450 -21 q 116 56 186 -21 q 46 269 46 132 q 87 500 47 389 q 211 683 126 611 q 422 754 296 754 q 592 700 532 754 q 653 563 653 646 m 410 632 q 288 561 333 632 q 226 385 243 490 q 421 440 358 397 q 483 558 483 483 q 466 612 483 592 q 410 632 449 632 m 436 894 q 367 920 392 894 q 342 986 342 946 q 374 1070 342 1038 q 457 1103 407 1103 q 526 1077 500 1103 q 551 1011 551 1051 q 518 928 551 961 q 436 894 485 894 z "},"ẹ":{"ha":671,"x_min":46,"x_max":653,"o":"m 653 563 q 533 358 651 422 q 217 271 415 293 l 217 265 q 338 113 217 113 q 422 128 381 113 q 510 178 463 144 l 572 74 q 315 -21 450 -21 q 116 56 186 -21 q 46 269 46 132 q 87 500 47 389 q 211 683 126 611 q 422 754 296 754 q 592 700 532 754 q 653 563 653 646 m 410 632 q 288 561 333 632 q 226 385 243 490 q 421 440 358 397 q 483 558 483 483 q 466 612 483 592 q 410 632 449 632 m 293 -94 q 363 -120 338 -94 q 388 -186 388 -146 q 354 -270 388 -237 q 272 -303 321 -303 q 203 -277 229 -303 q 178 -211 178 -251 q 211 -128 178 -161 q 293 -94 244 -94 z "},"è":{"ha":671,"x_min":46,"x_max":653,"o":"m 653 563 q 533 358 651 422 q 217 271 415 293 l 217 265 q 338 113 217 113 q 422 128 381 113 q 510 178 463 144 l 572 74 q 315 -21 450 -21 q 116 56 186 -21 q 46 269 46 132 q 87 500 47 389 q 211 683 126 611 q 422 754 296 754 q 592 700 532 754 q 653 563 653 646 m 410 632 q 288 561 333 632 q 226 385 243 490 q 421 440 358 397 q 483 558 483 483 q 466 612 483 592 q 410 632 449 632 m 378 1131 l 619 960 l 568 878 l 300 1001 l 378 1131 z "},"ẻ":{"ha":671,"x_min":46,"x_max":653,"o":"m 653 563 q 533 358 651 422 q 217 271 415 293 l 217 265 q 338 113 217 113 q 422 128 381 113 q 510 178 463 144 l 572 74 q 315 -21 450 -21 q 116 56 186 -21 q 46 269 46 132 q 87 500 47 389 q 211 683 126 611 q 422 754 296 754 q 592 700 532 754 q 653 563 653 646 m 410 632 q 288 561 333 632 q 226 385 243 490 q 421 440 358 397 q 483 558 483 483 q 466 612 483 592 q 410 632 449 632 m 389 978 q 462 998 438 983 q 486 1044 486 1013 q 443 1082 486 1082 q 369 1063 408 1082 l 346 1146 q 471 1178 401 1178 q 573 1144 536 1178 q 610 1054 610 1110 q 489 921 610 943 l 478 844 l 372 844 l 389 978 z "},"ȇ":{"ha":671,"x_min":46,"x_max":653,"o":"m 653 563 q 533 358 651 422 q 217 271 415 293 l 217 265 q 338 113 217 113 q 422 128 381 113 q 510 178 463 144 l 572 74 q 315 -21 450 -21 q 116 56 186 -21 q 46 269 46 132 q 87 500 47 389 q 211 683 126 611 q 422 754 296 754 q 592 700 532 754 q 653 563 653 646 m 410 632 q 288 561 333 632 q 226 385 243 490 q 421 440 358 397 q 483 558 483 483 q 466 612 483 592 q 410 632 449 632 m 222 867 q 307 1019 246 963 q 456 1075 368 1075 q 592 1016 544 1075 q 633 861 639 957 l 535 847 q 444 951 526 951 q 318 842 357 951 l 222 867 z "},"ē":{"ha":671,"x_min":46,"x_max":653,"o":"m 653 563 q 533 358 651 422 q 217 271 415 293 l 217 265 q 338 113 217 113 q 422 128 381 113 q 510 178 463 144 l 572 74 q 315 -21 450 -21 q 116 56 186 -21 q 46 269 46 132 q 87 500 47 389 q 211 683 126 611 q 422 754 296 754 q 592 700 532 754 q 653 563 653 646 m 410 632 q 288 561 333 632 q 226 385 243 490 q 421 440 358 397 q 483 558 483 483 q 466 612 483 592 q 410 632 449 632 m 618 918 l 256 918 l 274 1040 l 636 1040 l 618 918 z "},"ę":{"ha":671,"x_min":46,"x_max":653,"o":"m 653 563 q 533 358 651 422 q 217 271 415 293 l 217 265 q 338 113 217 113 q 422 128 381 113 q 510 178 463 144 l 572 74 q 432 -3 504 21 q 330 -75 358 -40 q 301 -147 301 -110 q 364 -204 301 -204 q 442 -194 401 -204 l 419 -310 q 335 -319 374 -319 q 216 -281 261 -319 q 171 -181 171 -243 q 199 -88 171 -129 q 279 -19 228 -47 q 106 66 167 -10 q 46 269 46 142 q 87 500 47 389 q 211 683 126 611 q 422 754 296 754 q 592 700 532 754 q 653 563 653 646 m 410 632 q 288 561 333 632 q 226 385 243 490 q 421 440 358 397 q 483 558 483 483 q 466 612 483 592 q 410 632 449 632 z "},"ɛ":{"ha":615,"x_min":31,"x_max":604,"o":"m 286 -19 q 101 38 172 -19 q 31 190 31 94 q 82 325 31 269 q 238 393 133 381 q 107 540 107 425 q 138 646 107 597 q 231 724 169 694 q 376 754 292 754 q 503 733 444 754 q 604 671 561 711 l 524 583 q 459 619 490 607 q 388 631 428 631 q 302 602 332 631 q 272 529 272 574 q 298 463 272 486 q 374 440 324 440 l 446 440 l 411 321 l 350 321 q 239 288 274 321 q 204 200 204 256 q 232 132 204 157 q 314 107 260 107 q 396 122 357 107 q 483 169 435 138 l 547 69 q 428 4 496 28 q 286 -19 361 -19 z "},"ʚ":{"ha":718,"x_min":31,"x_max":669,"o":"m 288 -19 q 101 37 172 -19 q 31 188 31 93 q 83 324 31 268 q 242 393 135 381 q 118 533 118 425 q 151 642 118 592 q 246 724 183 693 q 394 754 308 754 q 598 674 526 754 q 669 456 669 594 q 626 206 669 314 q 496 40 582 99 q 288 -19 410 -19 m 304 107 q 455 208 407 107 q 503 457 503 308 q 474 590 503 549 q 389 631 446 631 q 308 601 336 631 q 281 525 281 572 q 372 440 281 440 l 411 440 l 375 321 l 344 321 q 237 286 269 321 q 204 196 204 251 q 229 130 204 153 q 304 107 254 107 z "},"ɜ":{"ha":621,"x_min":-15,"x_max":571,"o":"m 346 754 q 508 706 444 754 q 571 574 571 657 q 526 456 571 504 q 393 390 481 408 q 511 339 471 379 q 551 231 551 299 q 517 110 551 167 q 412 17 483 53 q 236 -19 340 -19 q -15 71 82 -19 l 71 168 q 235 107 149 107 q 341 144 306 107 q 376 235 376 181 q 345 301 376 282 q 254 321 314 321 l 161 321 l 192 440 l 256 440 q 362 472 325 440 q 399 554 399 504 q 313 631 399 631 q 232 617 268 631 q 150 576 196 604 l 85 672 q 346 754 203 754 z "},"ɞ":{"ha":707,"x_min":47,"x_max":658,"o":"m 321 -19 q 117 56 186 -19 q 47 269 47 132 q 93 521 47 411 q 226 692 139 631 q 428 754 313 754 q 593 705 528 754 q 658 572 658 656 q 615 456 658 503 q 483 392 571 410 q 599 340 560 381 q 638 232 638 299 q 603 110 638 167 q 499 17 569 53 q 321 -19 428 -19 m 329 107 q 433 144 399 107 q 467 236 467 181 q 436 301 467 282 q 347 321 406 321 l 310 321 l 342 440 l 357 440 q 455 472 421 440 q 489 554 489 503 q 469 611 489 592 q 410 631 449 631 q 299 577 343 631 q 233 439 254 524 q 213 263 213 354 q 240 144 213 181 q 329 107 268 107 z "},"ɝ":{"ha":931,"x_min":-15,"x_max":969,"o":"m 969 481 q 815 431 899 431 q 687 476 731 431 q 646 596 643 522 l 647 615 l 571 571 q 525 456 569 503 q 393 390 481 408 q 511 339 471 379 q 551 231 551 299 q 517 110 551 167 q 412 17 483 53 q 236 -19 340 -19 q -15 71 82 -19 l 71 168 q 235 107 149 107 q 341 144 306 107 q 376 235 376 181 q 345 301 376 282 q 254 321 314 321 l 161 321 l 192 440 l 256 440 q 362 472 325 440 q 399 554 399 504 q 313 631 399 631 q 232 617 268 631 q 150 576 196 604 l 85 672 q 346 754 203 754 q 463 732 411 754 q 542 669 514 710 l 658 735 l 801 735 l 788 628 q 786 610 786 621 q 842 554 786 554 q 885 560 867 554 q 928 579 904 567 l 969 481 z "},"ɘ":{"ha":674,"x_min":11,"x_max":624,"o":"m 350 754 q 557 670 490 754 q 624 449 624 586 q 578 206 624 313 q 449 40 533 100 q 250 -19 364 -19 q 11 78 101 -19 l 96 171 q 169 126 133 140 q 253 113 204 113 q 431 271 381 113 q 163 335 257 281 q 68 503 68 390 q 104 632 68 575 q 204 722 140 689 q 350 754 268 754 m 242 510 q 291 419 242 449 q 451 383 340 389 q 456 464 456 424 q 344 633 456 633 q 269 600 297 633 q 242 510 242 567 z "},"ʃ":{"ha":351,"x_min":-212,"x_max":554,"o":"m 399 1047 q 554 993 486 1047 l 486 892 q 448 910 465 904 q 407 917 431 917 q 324 826 338 917 l 311 735 l 208 0 l 199 -75 q 115 -244 182 -187 q -54 -301 49 -301 q -212 -243 -146 -301 l -140 -144 q -100 -166 -117 -160 q -58 -172 -83 -172 q 1 -150 -22 -172 q 29 -85 24 -128 l 40 0 l 143 735 l 156 825 q 234 988 171 929 q 399 1047 297 1047 z "},"ʆ":{"ha":414,"x_min":-168,"x_max":617,"o":"m 461 1047 q 617 993 549 1047 l 549 892 q 510 910 528 904 q 469 917 493 917 q 386 826 400 917 l 374 735 l 269 -15 q 389 -65 339 -35 l 347 -142 q 250 -104 315 -125 q -6 -300 192 -300 q -125 -260 -82 -300 q -168 -153 -168 -221 q -112 -25 -168 -72 q 31 22 -56 22 q 106 17 82 22 l 206 735 l 218 825 q 297 988 233 929 q 461 1047 360 1047 m -7 -201 q 58 -169 35 -201 q 93 -72 82 -137 q 31 -67 71 -67 q -36 -89 -12 -67 q -60 -147 -60 -111 q -7 -201 -60 -201 z "},"ƪ":{"ha":471,"x_min":11,"x_max":511,"o":"m 511 -249 q 340 -301 436 -301 q 195 -252 247 -301 q 143 -111 143 -203 q 146 -67 143 -97 l 156 0 l 244 642 q 167 624 206 624 q 57 673 101 624 q 11 801 13 722 q 42 930 11 874 q 126 1017 72 986 q 249 1047 181 1047 q 389 997 338 1047 q 440 854 440 947 q 436 804 440 832 l 324 0 l 313 -89 q 311 -111 311 -97 q 372 -172 311 -172 q 416 -166 397 -172 q 461 -146 435 -160 l 511 -249 m 213 747 q 261 756 236 747 l 274 846 q 276 874 276 868 q 236 924 276 924 q 181 890 200 924 q 163 806 163 856 q 175 761 163 775 q 213 747 188 747 z "},"ʅ":{"ha":594,"x_min":38,"x_max":557,"o":"m 557 33 q 386 -19 482 -19 q 241 30 293 -19 q 189 171 189 79 q 192 215 189 185 l 201 282 l 225 453 l 236 542 q 238 564 238 550 q 176 625 238 625 q 133 619 151 625 q 88 599 114 613 l 38 701 q 208 754 113 754 q 353 705 301 754 q 406 564 406 656 q 403 519 406 550 l 393 453 l 369 282 l 358 193 q 357 171 357 185 q 418 110 357 110 q 462 116 443 110 q 507 136 481 122 l 557 33 z "},"ɇ":{"ha":671,"x_min":46,"x_max":653,"o":"m 653 563 q 567 382 651 446 q 336 289 483 318 l 272 125 q 338 113 299 113 q 422 128 381 113 q 510 178 463 144 l 572 74 q 315 -21 450 -21 q 221 -8 265 -21 l 186 -100 l 125 -83 l 164 17 q 46 269 46 89 q 87 500 47 389 q 211 683 126 611 q 422 754 296 754 q 446 753 438 754 l 475 831 l 536 813 l 510 743 q 616 675 579 724 q 653 563 653 626 m 401 638 q 279 559 324 632 q 218 379 235 486 q 307 392 267 383 l 401 638 m 493 558 q 464 624 493 604 l 383 414 q 493 558 493 457 m 264 278 l 210 271 l 210 265 q 225 176 210 211 l 264 278 z "},"ẽ":{"ha":671,"x_min":46,"x_max":676,"o":"m 653 563 q 533 358 651 422 q 217 271 415 293 l 217 265 q 338 113 217 113 q 422 128 381 113 q 510 178 463 144 l 572 74 q 315 -21 450 -21 q 116 56 186 -21 q 46 269 46 132 q 87 500 47 389 q 211 683 126 611 q 422 754 296 754 q 592 700 532 754 q 653 563 653 646 m 410 632 q 288 561 333 632 q 226 385 243 490 q 421 440 358 397 q 483 558 483 483 q 466 612 483 592 q 410 632 449 632 m 514 897 q 470 906 489 897 q 425 935 451 915 q 397 955 407 949 q 374 961 386 961 q 336 946 353 961 q 297 899 319 931 l 217 947 q 291 1048 249 1010 q 381 1086 333 1086 q 428 1076 408 1086 q 471 1047 449 1065 q 521 1022 501 1022 q 557 1037 540 1022 q 594 1082 574 1051 l 676 1035 q 601 933 643 969 q 514 897 560 897 z "},"ǝ":{"ha":671,"x_min":18,"x_max":625,"o":"m 356 756 q 555 679 485 756 q 625 465 625 603 q 584 235 624 346 q 460 52 544 124 q 249 -19 375 -19 q 78 35 139 -19 q 18 172 18 89 q 138 377 19 313 q 454 464 256 442 l 454 469 q 333 622 454 622 q 249 606 290 622 q 161 557 208 590 l 99 661 q 356 756 221 756 m 261 103 q 383 174 338 103 q 444 350 428 244 q 250 294 313 338 q 188 176 188 251 q 205 123 188 143 q 261 103 222 103 z "},"ə":{"ha":671,"x_min":18,"x_max":625,"o":"m 356 756 q 555 679 485 756 q 625 465 625 603 q 584 235 624 346 q 460 52 544 124 q 249 -19 375 -19 q 78 35 139 -19 q 18 172 18 89 q 138 377 19 313 q 454 464 256 442 l 454 469 q 333 622 454 622 q 249 606 290 622 q 161 557 208 590 l 99 661 q 356 756 221 756 m 261 103 q 383 174 338 103 q 444 350 428 244 q 250 294 313 338 q 188 176 188 251 q 205 123 188 143 q 261 103 222 103 z "},"ɚ":{"ha":988,"x_min":18,"x_max":1028,"o":"m 1028 481 q 874 431 957 431 q 745 476 789 431 q 704 596 701 522 l 706 615 l 614 563 q 625 465 625 515 q 584 235 624 346 q 460 52 544 124 q 249 -19 375 -19 q 78 35 139 -19 q 18 172 18 89 q 138 377 19 313 q 454 464 256 442 l 454 469 q 333 622 454 622 q 249 606 290 622 q 161 557 208 590 l 99 661 q 356 756 221 756 q 574 656 504 756 l 717 735 l 860 735 l 846 628 q 844 610 844 621 q 900 554 844 554 q 944 560 925 554 q 986 579 963 567 l 1028 481 m 261 103 q 383 174 338 103 q 444 350 428 244 q 250 294 313 338 q 188 176 188 251 q 205 123 188 143 q 261 103 222 103 z "},"ʒ":{"ha":618,"x_min":-83,"x_max":604,"o":"m 588 613 l 299 289 q 481 223 419 283 q 543 57 543 163 q 497 -131 543 -50 q 367 -257 450 -212 q 181 -301 285 -301 q 24 -267 89 -301 q -83 -167 -40 -232 l 18 -82 q 94 -148 57 -128 q 183 -168 132 -168 q 319 -106 269 -168 q 369 54 369 -44 q 335 152 369 124 q 222 181 300 181 l 111 181 l 113 182 l 128 289 l 401 603 l 67 603 l 86 735 l 604 735 l 588 613 z "},"ǯ":{"ha":618,"x_min":-83,"x_max":608,"o":"m 588 613 l 299 289 q 481 223 419 283 q 543 57 543 163 q 497 -131 543 -50 q 367 -257 450 -212 q 181 -301 285 -301 q 24 -267 89 -301 q -83 -167 -40 -232 l 18 -82 q 94 -148 57 -128 q 183 -168 132 -168 q 319 -106 269 -168 q 369 54 369 -44 q 335 152 369 124 q 222 181 300 181 l 111 181 l 113 182 l 128 289 l 401 603 l 67 603 l 86 735 l 604 735 l 588 613 m 551 1106 l 608 1033 l 413 861 l 308 861 l 158 1033 l 226 1106 l 369 986 l 551 1106 z "},"ʓ":{"ha":617,"x_min":-100,"x_max":604,"o":"m 589 613 l 301 293 q 483 227 421 288 q 544 60 544 167 q 477 -154 544 -65 q 290 -279 410 -243 l 314 -360 l 217 -394 l 192 -299 q 135 -301 156 -301 q -39 -254 22 -301 q -100 -122 -100 -207 q -50 6 -100 -43 q 71 56 0 56 q 183 10 143 56 q 250 -149 224 -35 q 341 -69 311 -124 q 371 58 371 -15 q 335 156 371 128 q 221 185 300 185 l 113 185 l 128 292 l 403 603 l 68 603 l 86 735 l 604 735 l 589 613 m 24 -103 q 50 -152 24 -136 q 136 -168 76 -168 l 158 -168 q 122 -70 140 -96 q 74 -44 104 -44 q 38 -61 51 -44 q 24 -103 24 -78 z "},"ƹ":{"ha":621,"x_min":-26,"x_max":635,"o":"m 615 603 l 271 603 l 467 288 l 453 181 l 450 182 l 451 181 l 346 181 q 201 126 251 181 q 150 -25 150 72 q 183 -132 150 -96 q 278 -168 215 -168 q 376 -147 331 -168 q 474 -81 422 -126 l 554 -171 q 422 -269 494 -236 q 258 -301 350 -301 q 49 -228 125 -301 q -26 -32 -26 -154 q 15 135 -26 63 q 133 248 57 207 q 308 290 208 289 l 100 613 l 117 735 l 635 735 l 615 603 z "},"ƺ":{"ha":607,"x_min":-35,"x_max":592,"o":"m 125 -303 q 8 -222 50 -268 q -35 -121 -35 -176 q 23 3 -35 -39 q 203 74 81 44 q 343 123 303 96 q 383 206 383 150 q 363 258 383 243 q 294 274 342 274 l 121 274 l 136 379 l 378 607 l 58 607 l 76 735 l 592 735 l 576 617 l 319 382 l 356 382 q 504 338 451 382 q 557 210 557 293 q 485 43 557 103 q 281 -46 413 -17 q 180 -72 214 -60 q 134 -97 146 -85 q 122 -129 122 -110 q 137 -167 122 -149 q 181 -203 151 -185 l 125 -303 z "},"f":{"ha":428,"x_min":-96,"x_max":611,"o":"m 449 918 q 376 892 401 918 q 344 811 351 867 l 333 735 l 490 735 l 454 611 l 317 611 l 239 54 q 185 -121 224 -54 q 91 -226 147 -187 q -54 -301 35 -265 l -96 -176 q -12 -128 -43 -153 q 40 -60 19 -103 q 71 56 61 -17 l 149 611 l 44 611 l 61 735 l 165 735 l 178 821 q 258 985 192 924 q 436 1047 325 1047 q 611 992 532 1047 l 550 888 q 449 918 503 918 z "}}}
